<?xml version="1.0" encoding="UTF-8" standalone="no"?>
<svg
   xmlns:dc="http://purl.org/dc/elements/1.1/"
   xmlns:cc="http://creativecommons.org/ns#"
   xmlns:rdf="http://www.w3.org/1999/02/22-rdf-syntax-ns#"
   xmlns:svg="http://www.w3.org/2000/svg"
   xmlns="http://www.w3.org/2000/svg"
   xmlns:sodipodi="http://sodipodi.sourceforge.net/DTD/sodipodi-0.dtd"
   xmlns:inkscape="http://www.inkscape.org/namespaces/inkscape"
   version="1.1"
   id="Layer_1"
   x="0px"
   y="0px"
   viewBox="0 0 123.8 131.4"
   enable-background="new 0 0 123.8 131.4"
   xml:space="preserve"
   inkscape:version="0.91 r13725"
   sodipodi:docname="angular.svg"><metadata
     id="metadata23"><rdf:RDF><cc:Work
         rdf:about=""><dc:format>image/svg+xml</dc:format><dc:type
           rdf:resource="http://purl.org/dc/dcmitype/StillImage" /><dc:title></dc:title></cc:Work></rdf:RDF></metadata><defs
     id="defs21" /><sodipodi:namedview
     pagecolor="#ffffff"
     bordercolor="#666666"
     borderopacity="1"
     objecttolerance="10"
     gridtolerance="10"
     guidetolerance="10"
     inkscape:pageopacity="0"
     inkscape:pageshadow="2"
     inkscape:window-width="1920"
     inkscape:window-height="1058"
     id="namedview19"
     showgrid="false"
     inkscape:zoom="1.7960427"
     inkscape:cx="61.900002"
     inkscape:cy="65.699997"
     inkscape:window-x="1912"
     inkscape:window-y="-8"
     inkscape:window-maximized="1"
     inkscape:current-layer="Layer_1" /><g
     id="g3"><polygon
       fill="#BA2731"
       points="117.4,26.5 60.7,6.7 60.7,124.7 108.5,98.8  "
       id="polygon5" /><polygon
       fill="#E72734"
       points="6.3,26.5 60.7,6.7 60.7,124.7 15,99.3  "
       id="polygon7" /><g
       id="g9"><polygon
         fill="#FFFFFF"
         points="50.3,66.2 60.7,41.3 60.7,14.8 24.2,96 36.8,96 45.4,77.2 60.7,77.2 60.7,66.2   "
         id="polygon11" /><polygon
         fill="#B4B3B4"
         points="60.7,14.8 60.7,41.3 73.9,66.2 60.7,66.2 60.7,77.2 78.6,77.2 86.8,96 99.6,96   "
         id="polygon13" /><g
         id="g15"><path
           fill="#B4B3B4"
           d="M60.7,0L0,22l9.7,81.1l50.9,28.3l53.3-28.9l9.9-80.6L60.7,0z M108.5,98.8l-47.8,25.9L15,99.3L6.3,26.5     L60.7,6.7l56.7,19.7L108.5,98.8z"
           id="path17" /></g></g></g></svg>