<svg xmlns:rdf="http://www.w3.org/1999/02/22-rdf-syntax-ns#" xmlns="http://www.w3.org/2000/svg" xml:space="preserve" height="541.91" viewBox="0 0 437.99564 541.90765" width="438" version="1.1" xmlns:cc="http://creativecommons.org/ns#" xmlns:dc="http://purl.org/dc/elements/1.1/"><defs><clipPath id="a" clipPathUnits="userSpaceOnUse"><path d="m0 500h500v-500h-500v500z"/></clipPath></defs><g transform="matrix(1.25 0 0 -1.25 -94.485 581.99)"><g clip-path="url(#a)"><g transform="translate(250.74 366.1)"><path d="m0 0v-67.597l-116.74-68.204s0.043-75.32 0.043-98.2c7.709 4.404 116.61 67.167 116.61 67.167v-67.211l-174.73-99.985-0.338 233.82 175.16 100.21" fill-rule="evenodd" fill="#0372b4"/></g><g transform="translate(425.98 465.59)"><path d="m0 0v-199.84l-57.917 33.252-0.158 65.884-58.84-32.305-58.325 33.515 175.24 99.505z" fill-rule="evenodd" fill="#0372b4"/></g><g transform="translate(250.65 132.05)"><path d="m0 0v67.21l116.98-66.458v97.897l-116.89 67.8v67.595l175.24-100.35v-233.52l-175.33 99.83z" fill-rule="evenodd" fill="#012b42"/></g><g transform="translate(192.05 332.76)"><path d="m0 0-58.029 33.201v-66.939l-58.43-33.138 0.205 199.68s119.22-67.425 174.95-99.468l-58.69-33.332z" fill-rule="evenodd" fill="#012b42"/></g><g transform="translate(165.06 248.51)"><path d="m0 0 85.594-49.249-58.432-33.643-58.178 33.387-0.042 31.289 31.058 18.216z" fill-rule="evenodd" fill="#012b42"/></g><g transform="translate(250.65 198.88)"><path d="m0 0 86.211 49.646 30.77-17.827s0.032-22.351 0-31.992c-19.376-11.066-57.719-33.2-57.719-33.2l-59.261 33.373z" fill-rule="evenodd" fill="#0372b4"/></g></g></g></svg>
