<svg xmlns:rdf="http://www.w3.org/1999/02/22-rdf-syntax-ns#" xmlns="http://www.w3.org/2000/svg" enable-background="new 0 0 462.529 406.613" xml:space="preserve" height="406.61px" viewBox="0 0 462.529 406.613" width="462.53px" version="1.1" y="0px" x="0px" xmlns:cc="http://creativecommons.org/ns#" xmlns:dc="http://purl.org/dc/elements/1.1/"><path d="m453.69 198.61c-23.79-22.859-142.75-37.129-180.28-41.283 1.818-4.294 3.366-8.735 4.644-13.308 5.117-2.241 10.641-4.326 16.352-6.067 0.696 2.053 3.974 9.919 5.842 13.652 75.479 2.082 79.354-56.091 82.424-72.028 3.002-15.583 2.849-30.64 28.739-58.166-38.571-11.24-94.039 17.421-112.62 60.08-6.982-2.616-13.979-4.548-20.9-5.743-4.95-20.006-30.78-75.743-98.55-75.743-85.808 0-179.33 70.789-179.33 190.62 0 100.73 68.772 189.01 107.63 189.01 16.969 0 31.566-12.707 34.993-24.098 2.873 7.81 11.688 32.09 14.583 38.271 4.279 9.14 24.068 17.049 32.728 7.564 11.135 6.186 31.566 9.912 42.702-6.585 21.445 4.536 40.404-8.252 40.818-23.511 10.523-0.562 15.685-15.337 13.387-27.104-1.694-8.663-19.789-39.748-26.847-50.478 13.972 11.365 49.363 14.582 53.661 0.007 22.527 17.682 57.633 8.401 60.417-5.979 27.372 7.112 58.767-8.508 53.612-27.426 43.98-3.04 38.35-49.83 26.01-61.68z" fill="#543729"/><path d="m331.25 98.825c9.471-18.791 21.372-39.309 36.404-52.003-16.545 6.668-32.88 26.601-42.538 47.906-4.923-3.129-9.921-5.92-14.961-8.361 13.473-28.758 44.779-52.775 79.28-54.651-23.109 20.958-14.906 64.518-33.906 87.578-5.43-5.46-17.91-16-24.27-20.465zm-14.94 30.595c0.01-0.719 0.279-6.266 0.784-8.798-1.325-0.312-9.561-1.923-13.855-1.822-0.313 5.393 2.266 14.568 4.815 20.091 17.555-0.368 30.235-5.625 37.698-10.458-6.354-2.962-17.196-5.595-25.44-7.17-0.92 1.91-3.19 6.76-4.01 8.16z" fill="#00ACEE"/><path d="m251.08 278.09c0.004 0.025 0.015 0.059 0.018 0.084-2.225-4.788-4.588-10.604-7.41-18.206 10.988 15.994 45.426 7.745 43.62-6.587 16.856 12.683 51.553-2.113 43.665-19.897 16.885 7.868 36.157-7.963 31.835-14.861 28.787 5.552 56.374 11.086 65.034 13.302-5.753 9.38-18.855 16.004-38.605 11.401 10.672 14.538-10.048 31.979-38.908 22.373 6.353 14.272-19.343 27.121-48.548 12.245 0.38 14.3-36.23 15.95-50.7 0.17zm57.11-72.17c33.411 2.565 88.663 7.547 122.87 12.334-2.161-11.132-8.064-14.312-26.633-19.3-19.98 2.14-70.64 7.11-96.24 6.97z" fill="#2BAF2B"/><path d="m287.31 253.38c16.856 12.683 51.553-2.113 43.665-19.897 16.885 7.868 36.157-7.963 31.835-14.861-34.034-6.562-69.747-13.148-77.848-14.299 4.914 0.261 13.059 0.819 23.225 1.6 25.599 0.141 76.266-4.836 96.236-6.966-32.336-8.199-98.356-20.164-143.95-23.112-2.113 3.088-5.997 8.325-12.762 13.89-19.948 42.207-56.091 70.262-96.081 70.262-11.654 0-24.693-1.966-39.308-6.638-9.114 9.764-47.973 17.163-79.503 1.687 25.01 58.562 83.01 97.654 147.21 97.654 54.07 0 78.046-55.214 72.799-69.823-1.273-3.547-6.318-15.308-9.141-22.909 10.97 16 45.41 7.75 43.6-6.58z" fill="#FFCC2F"/><path d="m254.54 142.26c4.774-2.597 21.272-12.597 36.993-16.355-0.248-1.741-0.435-3.497-0.551-5.263-10.314 2.47-29.759 10.804-40.902-0.681 23.509 7.094 35.247-6.321 52.526-6.321 10.296 0 24.988 2.876 36.569 7.423-9.315-8.605-39.861-34.575-77.681-34.665-8.45 10.238-17.57 32.415-6.96 55.865z" fill="#CECECE"/><path d="m112.32 253.36c14.615 4.672 27.654 6.638 39.308 6.638 39.99 0 76.132-28.056 96.081-70.262-14.754 12.316-40.396 22.854-80.441 22.854 35.669-8.088 66.375-25.863 81.995-51.845-10.98-17.476-22.889-56.138 7.269-86.702-4.639-14.904-27.219-54.248-77.206-54.248-87.236 0-159.53 72.997-159.53 170.82 0 23.158 4.675 44.877 13.025 64.426 31.535 15.48 70.395 8.08 79.505-1.68z" fill="#EF5734"/><path d="m138.5 104.41c0 22.252 18.039 40.293 40.292 40.293s40.294-18.041 40.294-40.293c0-22.253-18.041-40.293-40.294-40.293-22.25-0.003-40.29 18.037-40.29 40.293z" fill="#FFCC2F"/><path d="m154.66 104.41c0 13.322 10.802 24.123 24.123 24.123 13.324 0 24.124-10.801 24.124-24.123 0-13.323-10.799-24.124-24.124-24.124-13.31-0.003-24.12 10.798-24.12 24.124z" fill="#543729"/><ellipse rx="14.057" ry="8.74" cy="93.703" cx="178.79" fill="#fff"/></svg>
