<svg version="1.1" id="Layer_1" xmlns="http://www.w3.org/2000/svg" xmlns:xlink="http://www.w3.org/1999/xlink" x="0px" y="0px"
	 viewBox="0 0 105.3 119.4" enable-background="new 0 0 105.3 119.4" xml:space="preserve">
<g>
	<polygon fill="#0A71B9" points="0,0 105.3,0 95.9,107.6 52.6,119.4 9.4,107.6 	"/>
	<polygon fill="#28A7DE" points="52.6,8.9 96.5,8.9 88.1,100.6 52.6,110.8 	"/>
	<g>
		<polygon fill="#EBEBEB" points="79.8,22.2 19.7,22.2 21,35.3 71.2,35.3 69.6,48.5 22.2,48.5 23.4,61.4 68.9,61.4 67.2,79.2 
			52.4,82.8 37.9,79.2 37.1,68.6 24.1,68.6 26.1,89.9 53,97.2 79.8,89.9 86.1,22.2 		"/>
	</g>
	<g>
		<polygon fill="none" points="69.6,48.5 71.2,35.3 52.9,35.3 52.9,48.5 		"/>
		<polygon fill="none" points="67.2,79.2 68.9,61.4 52.9,61.4 52.9,82.6 		"/>
		<polygon fill="#FFFFFF" points="79.7,22.2 52.6,22.2 52.6,35.3 71.1,35.3 69.5,48.5 52.6,48.5 52.6,61.4 68.8,61.4 67.1,79.2 
			52.6,82.6 52.6,97.2 52.8,97.2 79.7,89.9 86.1,22.2 		"/>
	</g>
</g>
</svg>
