<?xml version="1.0" encoding="UTF-8"?>
<svg width="322px" height="104px" viewBox="0 0 322 104" version="1.1" xmlns="http://www.w3.org/2000/svg" xmlns:xlink="http://www.w3.org/1999/xlink">
    <!-- Generator: Sketch 46.2 (44496) - http://www.bohemiancoding.com/sketch -->
    <title>cyclejs</title>
    <desc>Created with Sketch.</desc>
    <defs>
        <linearGradient x1="29.1842525%" y1="99.591125%" x2="86.4835855%" y2="0.354484375%" id="linearGradient-1">
            <stop stop-color="#51D3D9" offset="41.47%"></stop>
            <stop stop-color="#C8FF8C" offset="100%"></stop>
        </linearGradient>
        <linearGradient x1="34.1175797%" y1="106.866256%" x2="94.6503472%" y2="20.5520801%" id="linearGradient-2">
            <stop stop-color="#51D3D9" offset="41.47%"></stop>
            <stop stop-color="#5A919B" offset="100%"></stop>
        </linearGradient>
    </defs>
    <g id="Page-1" stroke="none" stroke-width="1" fill="none" fill-rule="evenodd">
        <g id="Logos" transform="translate(-31.000000, -648.000000)">
            <g id="cyclejs" transform="translate(31.000000, 648.000000)">
                <g id="cycle.js-logo-figure">
                    <g id="Shape">
                        <path d="M103.99289,80.5675 C103.944136,81.62375 103.65161,82.66375 103.115313,83.60625 L93.2669473,100.66875 C92.080593,102.7325 89.8866502,104 87.5139417,104 L32.8603881,104 C30.4876796,104 28.2937368,102.7325 27.1073825,100.685 L0.893828559,55.33125 C0.29252571,54.29125 0,53.15375 0,52 C0,50.84625 0.227519997,49.64375 0.926331416,48.47375 L27.1236339,3.315 C28.3099882,1.2675 30.503931,0 32.8603881,0 L87.5139417,0 C89.8866502,0 92.080593,1.2675 93.2669473,3.315 C93.2669473,3.315 102.74153,18.83375 103.42409,19.93875 C104.10665,21.04375 103.99289,22.44125 103.99289,23.57875 C103.99289,24.55375 103.716616,25.88625 103.456593,26.9425 C103.19657,27.99875 95.265873,60.14125 95.265873,60.14125 L77.9581018,23.335 L42.4812337,23.335 L25.8722739,52 L42.4812337,80.665 L77.9418504,80.665 L103.99289,80.5675 Z" fill="url(#linearGradient-1)" fill-rule="nonzero"></path>
                        <path d="M91.3660601,52 L103.369561,77.7873652 C104.294155,79.7760657 104.196829,82.0934771 103.110026,84 L78,81.0251669 L91.3660601,52 Z" fill="url(#linearGradient-2)" fill-rule="nonzero"></path>
                    </g>
                </g>
                <g id="Cycle.js-logo-text" transform="translate(134.000000, 24.000000)" fill="#FFFFFF">
                    <g id="Cycle.js">
                        <path d="M2.51298405,13.1006834 C4.18831513,10.0646773 6.48867178,7.74731247 9.41412301,6.14851936 C12.3395742,4.54972625 15.6476657,3.75034169 19.3384966,3.75034169 C20.8522475,3.75034169 22.3319594,3.8353826 23.7776765,4.00546697 C25.2233937,4.17555134 26.8476751,4.4136659 28.6505695,4.71981777 C30.0622698,4.94092745 30.9551993,5.06848882 31.329385,5.10250569 L30.7170843,16.4810934 L25.2574032,16.4810934 L23.4715262,8.77630979 C23.1823828,8.38511574 22.646625,8.06621232 21.8642369,7.81958998 C21.0818488,7.57296764 20.0273415,7.44965831 18.7006834,7.44965831 C16.897789,7.44965831 15.3287842,8.0364406 13.9936219,9.21002278 C12.6584595,10.383605 11.6252125,12.1396998 10.8938497,14.4783599 C10.1624869,16.81702 9.79681093,19.6871508 9.79681093,23.0888383 C9.79681093,26.2864245 10.1327225,29.1480512 10.8045558,31.6738041 C11.4763891,34.199557 12.5096362,36.1937664 13.904328,37.656492 C15.2990199,39.1192176 17.0338545,39.8505695 19.1088838,39.8505695 C20.4355419,39.8505695 21.468789,39.6932438 22.208656,39.3785877 C22.9485231,39.0639316 23.5310533,38.6599873 23.9562642,38.1667426 L26.405467,32.5284738 L31.3548975,32.9876993 L30.3854214,41.5599089 C29.8411514,41.6109342 29.3266539,41.6959751 28.8419134,41.8150342 C28.357173,41.9340932 27.7321223,42.1041751 26.9667426,42.3252847 C25.6570929,42.7164788 24.4282518,43.0226261 23.2801822,43.2437358 C22.1321127,43.4648454 20.7076774,43.5753986 19.0068337,43.5753986 C14.8737834,43.5753986 11.3871061,42.7845182 8.54669704,41.2027335 C5.706288,39.6209488 3.57176113,37.3588606 2.14305239,34.4164009 C0.714343654,31.4739412 0,27.9532475 0,23.8542141 C0,19.7211638 0.837652975,16.1366894 2.51298405,13.1006834 Z M35.0644191,49.3412301 C35.3025372,49.5113144 35.8127827,49.6686401 36.5951708,49.8132118 C37.3775589,49.9577836 38.0919025,50.0300683 38.7382232,50.0300683 C40.40505,50.0300683 41.799721,49.4858065 42.9222778,48.3972665 C44.0448347,47.3087265 45.0823338,45.5058592 46.0348063,42.9886105 L42.7947152,42.9886105 L33.2530295,17.96082 L30.9313895,17.2974943 L30.9313895,13.9553531 L46.1113439,13.9553531 L46.1113439,17.2974943 L42.5140774,17.96082 L46.8767197,32.1457859 L48.432984,37.5544419 L49.7341229,32.1457859 L53.790615,17.909795 L50.6270614,17.2974943 L50.6270614,13.9553531 L62.337312,13.9553531 L62.337312,17.2974943 L59.8881093,17.909795 C58.3913668,22.5530984 56.6140117,27.834139 54.5559908,33.7530752 C52.4979699,39.6720114 51.3073971,42.9886069 50.9842368,43.7029613 C49.9637306,46.4753366 48.9007192,48.7501809 47.7951708,50.5275626 C46.6896223,52.3049443 45.4097566,53.6613469 43.9555352,54.5968109 C42.5013138,55.532275 40.7962436,56 38.8402733,56 C38.1599358,56 37.4413401,55.9532275 36.6844646,55.8596811 C35.9275892,55.7661347 35.3875794,55.6428254 35.0644191,55.4897494 L35.0644191,49.3412301 Z M80.5889748,13.4833713 C81.5924726,13.6789683 82.6980045,13.9468472 83.9056035,14.2870159 C84.7390169,14.5421425 85.3768238,14.7037202 85.8190431,14.771754 L85.4618677,23.8287016 L80.3338495,23.8287016 L79.007198,18.3690205 C78.8371137,17.8757758 78.5054541,17.5100999 78.0122094,17.2719818 C77.5189647,17.0338637 76.9321825,16.9148064 76.251845,16.9148064 C72.71409,16.9148064 70.945239,20.3504592 70.945239,27.2218679 C70.945239,29.7221082 71.225874,31.8141146 71.7871525,33.4979499 C72.3484309,35.1817852 73.1308073,36.4361386 74.1343051,37.2610478 C75.1378029,38.085957 76.2943593,38.4984055 77.604009,38.4984055 C79.0667346,38.4984055 80.3593564,38.3070634 81.4819133,37.9243736 C82.6044702,37.5416837 83.6419693,37.0441944 84.5944418,36.4318907 L85.9976308,39.5189066 C85.4873777,40.0971935 84.7135054,40.7009839 83.6759907,41.3302961 C82.6384761,41.9596083 81.418139,42.491114 80.0149429,42.9248292 C78.6117468,43.3585443 77.1447911,43.5753986 75.6140318,43.5753986 C72.552513,43.5753986 70.0182939,42.9460959 68.0112983,41.6874715 C66.0043027,40.4288472 64.5203388,38.6940126 63.559362,36.4829157 C62.5983853,34.2718189 62.1094001,31.7035833 62.0923917,28.7781321 C62.0923917,25.7166134 62.7089383,23.0080604 63.94205,20.6523918 C65.1751617,18.2967232 66.9227524,16.4640916 69.1848746,15.1544419 C71.4469967,13.8447922 74.0747609,13.1899772 77.0682459,13.1899772 C78.4119124,13.1899772 79.585477,13.2877743 80.5889748,13.4833713 Z M90.8297037,39.0596811 L90.8297037,5.17904328 L87.079362,4.51571754 L87.079362,1.37767654 L97.3864235,0.127562642 L97.5139861,0.127562642 L99.0447378,1.2501139 L99.0447378,39.0596811 L102.488929,39.5699317 L102.488929,42.9886105 L87.4110248,42.9886105 L87.4110248,39.5699317 L90.8297037,39.0596811 Z M105.803007,20.3334852 C106.985093,18.0373462 108.647643,16.2769993 110.790706,15.0523918 C112.933769,13.8277843 115.416964,13.2154897 118.240364,13.2154897 C121.829144,13.2154897 124.580218,14.1254275 126.493667,15.9453303 C128.407116,17.7652331 129.406347,20.3759891 129.491389,23.7776765 C129.491389,26.1418493 129.363828,27.9362126 129.108701,29.16082 L112.627608,29.16082 C112.831709,32.2903725 113.601329,34.6119894 114.936492,36.1257403 C116.271654,37.6394912 118.044757,38.3963554 120.255854,38.3963554 C121.531487,38.3963554 122.862377,38.175249 124.248565,37.7330296 C125.634752,37.2908102 126.761544,36.7890689 127.628975,36.2277904 L129.108701,39.391344 C128.513406,40.0206561 127.633233,40.658463 126.468155,41.3047836 C125.303077,41.9511042 123.967934,42.491114 122.462688,42.9248292 C120.957441,43.3585443 119.447965,43.5753986 117.934214,43.5753986 C114.770644,43.5753986 112.151384,42.9460959 110.076355,41.6874715 C108.001326,40.4288472 106.474841,38.6727523 105.496856,36.4191344 C104.518871,34.1655164 104.029886,31.5249962 104.029886,28.4974943 C104.029886,25.3509334 104.62092,22.6296242 105.803007,20.3334852 Z M121.352893,25.6656036 L121.378405,23.5225513 C121.378405,21.3964966 121.072258,19.7467029 120.459954,18.5731207 C119.84765,17.3995386 118.810151,16.8127563 117.347426,16.8127563 C116.377945,16.8127563 115.553048,17.0593749 114.87271,17.5526196 C114.192373,18.0458643 113.648111,18.9430459 113.239909,20.2441913 C112.831706,21.5453368 112.602096,23.3524562 112.55107,25.6656036 L121.352893,25.6656036 Z M133.991799,36.6997722 C134.468035,35.9769136 135.10159,35.4156436 135.892483,35.0159453 C136.683375,34.6162471 137.54654,34.4164009 138.482004,34.4164009 C139.434477,34.4164009 140.255121,34.611995 140.943963,35.0031891 C141.632805,35.3943831 142.160059,35.9173847 142.52574,36.5722096 C142.891421,37.2270344 143.074259,37.9286219 143.074259,38.6769932 C143.074259,40.1397188 142.572518,41.2962752 141.56902,42.146697 C140.565522,42.9971189 139.272901,43.4223235 137.691116,43.4223235 C136.942745,43.4223235 136.228401,43.2394855 135.548063,42.8738041 C134.867726,42.5081227 134.319212,42.0021293 133.902505,41.3558087 C133.485799,40.709488 133.277448,39.9696321 133.277448,39.1362187 C133.277448,38.2347715 133.515563,37.4226308 133.991799,36.6997722 Z M147.294031,18.5220957 L147.345057,14.5166287 L157.218405,13.2410023 L157.345968,13.2410023 L158.927744,14.3635535 L158.927744,42.4273349 C158.927744,45.1997101 158.328206,47.5893597 157.129111,49.5963554 C155.930016,51.603351 154.475817,53.1213312 152.766469,54.1503417 C151.057121,55.1793521 149.462604,55.6938497 147.98287,55.6938497 C147.472617,55.6938497 146.919851,55.6725894 146.324555,55.6300683 C145.72926,55.5875472 145.346576,55.5407747 145.176492,55.4897494 L144.742779,52.1476082 C145.048931,52.1646166 145.452875,52.1220962 145.954624,52.0200456 C146.456373,51.9179949 146.911342,51.7564172 147.319544,51.5353075 C148.56116,50.9400122 149.445585,49.7706997 149.972847,48.0273349 C150.500109,46.28397 150.763735,43.9240847 150.763735,40.9476082 L150.738223,19.6191344 L147.294031,18.5220957 Z M149.628428,2.50022779 C150.011118,1.73484811 150.572388,1.12680559 151.312255,0.676082005 C152.052122,0.225358415 152.932295,0 153.952801,0 L153.978314,0 C154.947795,0 155.776944,0.195594096 156.465785,0.586788155 C157.154627,0.977982214 157.681881,1.49673177 158.047562,2.14305239 C158.413244,2.78937301 158.596082,3.50371667 158.596082,4.28610478 C158.596082,5.7488304 158.153869,6.9436552 157.26943,7.87061503 C156.384991,8.79757487 155.117882,9.26104784 153.468063,9.26104784 L153.442551,9.26104784 C152.592129,9.26104784 151.835265,9.07395783 151.171936,8.69977221 C150.508607,8.32558659 149.989857,7.81959317 149.615672,7.18177677 C149.241486,6.54396036 149.054396,5.82536467 149.054396,5.02596811 C149.054396,4.10751249 149.245738,3.26560747 149.628428,2.50022779 Z M169.040911,34.518451 L170.34205,38.4984055 C170.597176,38.9236164 171.179706,39.3105525 172.089658,39.6592255 C172.999609,40.0078985 173.939311,40.1822323 174.908792,40.1822323 C176.388526,40.1822323 177.47705,39.871833 178.174396,39.2510251 C178.871742,38.6302171 179.22041,37.8265805 179.22041,36.8400911 C179.22041,36.1087283 178.952531,35.4539133 178.416765,34.8756264 C177.880999,34.2973396 177.17516,33.7743379 176.299225,33.3066059 C175.423291,32.8388739 174.143425,32.2223273 172.459589,31.4569476 L171.132938,30.8446469 C168.751757,29.7901238 166.987158,28.5442745 165.839088,27.1070615 C164.691019,25.6698485 164.116993,23.845721 164.116993,21.6346241 C164.116993,20.035831 164.584718,18.6071437 165.520182,17.3485194 C166.455646,16.089895 167.79504,15.0991684 169.538405,14.3763098 C171.28177,13.6534512 173.335508,13.2920273 175.699681,13.2920273 C177.315482,13.2920273 178.701649,13.3940764 179.858223,13.5981777 C181.014796,13.8022789 182.29041,14.0829139 183.685102,14.4400911 C184.433473,14.6612008 185.02876,14.8057704 185.470979,14.8738041 L185.470979,21.8387244 L180.878724,21.8387244 L179.552072,18.0883827 C179.36498,17.7141971 178.944027,17.3825375 178.289202,17.0933941 C177.634377,16.8042506 176.856253,16.6596811 175.954806,16.6596811 C174.594131,16.6596811 173.548128,16.9488202 172.816765,17.5271071 C172.085402,18.1053939 171.719726,18.862258 171.719726,19.7977221 C171.719726,20.5801102 171.953589,21.2476814 172.421321,21.8004556 C172.889053,22.3532298 173.475835,22.8209548 174.181685,23.2036446 C174.887535,23.5863345 175.886766,24.0583115 177.179407,24.61959 L178.378496,25.1298405 C180.232416,25.9462455 181.771656,26.7413781 182.996264,27.515262 C184.220871,28.2891459 185.23711,29.2713684 186.045011,30.461959 C186.852912,31.6525496 187.256856,33.089741 187.256856,34.7735763 C187.256856,36.4404032 186.823147,37.9371232 185.955717,39.2637813 C185.088287,40.5904394 183.757396,41.6406947 181.963006,42.4145786 C180.168616,43.1884625 177.9533,43.5753986 175.316993,43.5753986 C173.480081,43.5753986 171.809028,43.4180729 170.303781,43.1034169 C168.798534,42.7887608 167.212521,42.3763123 165.545694,41.8660592 C165.205526,41.7470002 164.737801,41.6109347 164.142505,41.4578588 L164.142505,34.518451 L169.040911,34.518451 Z"></path>
                    </g>
                </g>
            </g>
        </g>
    </g>
</svg>