<?xml version="1.0" encoding="UTF-8"?>
<svg width="96px" height="91px" viewBox="0 0 96 91" version="1.1" xmlns="http://www.w3.org/2000/svg" xmlns:xlink="http://www.w3.org/1999/xlink">
    <!-- Generator: Sketch 46.2 (44496) - http://www.bohemiancoding.com/sketch -->
    <title>d3</title>
    <desc>Created with Sketch.</desc>
    <defs>
        <linearGradient x1="-79.2484128%" y1="-92.819878%" x2="102.393822%" y2="106.041826%" id="linearGradient-1">
            <stop stop-color="#F9A03C" offset="0%"></stop>
            <stop stop-color="#F7974E" offset="100%"></stop>
        </linearGradient>
        <linearGradient x1="-258.923825%" y1="-245.99449%" x2="97.6202479%" y2="98.283081%" id="linearGradient-2">
            <stop stop-color="#F9A03C" offset="0%"></stop>
            <stop stop-color="#F7974E" offset="100%"></stop>
        </linearGradient>
        <linearGradient x1="-208.625688%" y1="-261.967947%" x2="91.6852743%" y2="101.690818%" id="linearGradient-3">
            <stop stop-color="#F9A03C" offset="0%"></stop>
            <stop stop-color="#F7974E" offset="100%"></stop>
        </linearGradient>
        <linearGradient x1="15.4024229%" y1="-1.82169774%" x2="79.0804991%" y2="92.1067478%" id="linearGradient-4">
            <stop stop-color="#F26D58" offset="0%"></stop>
            <stop stop-color="#F9A03C" offset="100%"></stop>
        </linearGradient>
        <linearGradient x1="15.8436473%" y1="10.9928244%" x2="120.126091%" y2="68.9196662%" id="linearGradient-5">
            <stop stop-color="#B84E51" offset="0%"></stop>
            <stop stop-color="#F68E48" offset="100%"></stop>
        </linearGradient>
        <linearGradient x1="49.1718487%" y1="23.4664325%" x2="50.5165262%" y2="147.391179%" id="linearGradient-6">
            <stop stop-color="#F9A03C" offset="0%"></stop>
            <stop stop-color="#F7974E" offset="100%"></stop>
        </linearGradient>
    </defs>
    <g id="Page-1" stroke="none" stroke-width="1" fill="none" fill-rule="evenodd">
        <g id="Logos" transform="translate(-30.000000, -1462.000000)" fill-rule="nonzero">
            <g id="d3" transform="translate(30.000000, 1462.000000)">
                <path d="M95.9017702,64.9230292 C95.9448621,64.5123709 95.9759279,64.0977831 95.9999791,63.6812302 C96.0290412,63.1880473 65.7245421,35 65.7245421,35 L65,35 C65,35 95.7163757,66.7631311 95.9017702,64.9230292 L95.9017702,64.9230292 L95.9017702,64.9230292 Z" id="Shape" fill="url(#linearGradient-1)"></path>
                <path d="M31.2965469,56.0428376 C31.2567563,56.1299403 31.2169657,56.2170429 31.1761804,56.3041452 C31.1334055,56.3952071 31.0896359,56.4862687 31.0458663,56.5763408 C30.0869135,58.5658412 44.4702101,72.5566816 45.6271208,70.8571927 C45.6798432,70.7819681 45.732566,70.7027837 45.7852883,70.6275591 C45.8439793,70.538477 45.9016758,70.4533538 45.9593722,70.3642717 C46.884503,68.9666725 31.7073845,55.1342001 31.2965469,56.0428376 L31.2965469,56.0428376 L31.2965469,56.0428376 Z" id="Shape" fill="url(#linearGradient-2)"></path>
                <path d="M51.582946,76 C51.5429854,76.0901503 51.2593617,76.5829716 51.0001043,76.8434056 C50.956245,76.9335558 64.7573186,91 64.7573186,91 L66,91 C66.0009744,91 53.0449242,76.5949917 51.582946,76 L51.582946,76 L51.582946,76 Z" id="Shape" fill="url(#linearGradient-3)"></path>
                <path d="M96,64.5109745 C95.3375719,79.2304422 83.1847235,91 68.3371344,91 L66.3298378,91 L51.5022619,76.3627529 C52.7220495,74.6391313 53.8557819,72.8533432 54.8654337,70.9913506 L68.3371344,70.9913506 C72.5978859,70.9913506 76.0651252,67.5190401 76.0651252,63.2475869 C76.0651252,58.9781391 72.5978859,55.5038233 68.3371344,55.5038233 L60.3649855,55.5038233 C60.9723779,52.286196 61.3045923,48.9682996 61.3045923,45.5741988 C61.3045923,42.1279585 60.966374,38.7629359 60.3369677,35.4941712 L65.2891658,35.4941712 L95.9129438,65.7302439 C95.948967,65.3251574 95.9779857,64.9200714 96,64.5109745 L96,64.5109745 L96,64.5109745 Z M8.05520232,0 L0,0 L0,20.0086496 L8.05520232,20.0086496 C22.1242886,20.0086496 33.5716817,31.4763983 33.5716817,45.5741988 C33.5716817,49.4094824 32.7181304,53.0502446 31.2011507,56.3190091 L45.8966415,70.828915 C50.7217579,63.5945173 53.5425795,54.9092291 53.5425795,45.5741988 C53.5425795,20.4448191 33.1364006,0 8.05520232,0 L8.05520232,0 L8.05520232,0 Z" id="Shape" fill="url(#linearGradient-4)"></path>
                <path d="M68.4498127,0 L36,0 C43.9258056,4.81984595 50.4888343,11.6544886 54.9604143,19.7860575 L68.4498127,19.7860575 C72.688456,19.7860575 76.1377044,23.2197392 76.1377044,27.4436733 C76.1377044,31.6666159 72.688456,35.1002975 68.4498127,35.1002975 L65.418655,35.1002975 L95.8835319,65 C95.9552046,64.1889255 96,63.372893 96,62.5439708 C96,55.8739226 93.5969739,49.7551674 89.6071939,44.9928304 C93.5969739,40.2324767 96,34.1127298 96,27.4436733 C96,12.3118755 83.6424329,0 68.4498127,0 L68.4498127,0 L68.4498127,0 Z" id="Shape" fill="url(#linearGradient-5)"></path>
                <path d="M66,90.850875 L35.7724441,90.850875 C41.8569856,87.048192 47.117112,82.028328 51.2461571,76.1419277 L66,90.850875 L66,90.850875 Z M45.6684117,70.5809824 L31.0469927,56 C27.0075581,64.7852661 18.2048366,70.8953537 8.01514629,70.8953537 L0,70.8953537 L0,91 L8.01514629,91 C23.7009369,91 37.5457329,82.8807578 45.6684117,70.5809824 L45.6684117,70.5809824 L45.6684117,70.5809824 Z" id="Shape" fill="url(#linearGradient-6)"></path>
            </g>
        </g>
    </g>
</svg>