<?xml version="1.0" encoding="UTF-8"?>
<svg width="202px" height="170px" viewBox="0 0 202 170" version="1.1" xmlns="http://www.w3.org/2000/svg" xmlns:xlink="http://www.w3.org/1999/xlink">
    <!-- Generator: Sketch 46.2 (44496) - http://www.bohemiancoding.com/sketch -->
    <title>docker</title>
    <desc>Created with Sketch.</desc>
    <defs></defs>
    <g id="Page-1" stroke="none" stroke-width="1" fill="none" fill-rule="evenodd">
        <g id="Logos" transform="translate(-31.000000, -1601.000000)" fill-rule="nonzero">
            <g id="docker" transform="translate(31.000000, 1601.000000)">
                <path d="M30.3914152,137.987457 L30.3914152,125.062453 C30.3914152,123.36518 31.4541853,122 33.2134721,122 L33.7012455,122 C35.4601089,122 36.5177981,123.366026 36.5177981,125.062453 L36.5177981,152.272987 C36.5177981,158.908516 33.2363365,164.187747 27.5193954,167.551413 C24.8683978,169.109926 21.939217,169.90949 18.8660753,169.90949 L17.6512994,169.90949 C11.0087744,169.90949 5.73091386,166.628743 2.35926502,160.919692 C0.794748822,158.269288 0,155.346863 0,152.272987 L0,151.060104 C0,144.42246 3.28315524,139.146189 8.99586232,135.776601 C11.6489769,134.211742 14.5739235,133.418524 17.6512994,133.418524 L18.8660753,133.418524 C23.361466,133.418524 27.1755828,135.159372 30.3914152,137.987457 L30.3914152,137.987457 Z M6.12553609,151.665488 C6.12553609,156.458637 8.45092797,160.062171 12.6545861,162.360174 C14.3541715,163.289614 16.1998349,163.788812 18.1390728,163.788812 C22.8478643,163.788812 26.3401862,161.569496 28.7494142,157.582678 C29.8697687,155.727607 30.3914152,153.699086 30.3914152,151.541534 C30.3914152,147.386344 28.4225382,144.144093 25.0716367,141.735673 C23.039671,140.27573 20.7523865,139.543432 18.2580522,139.543432 C13.1258463,139.543432 9.43240252,142.133763 7.21540474,146.736117 C6.46723151,148.292093 6.12553609,149.944523 6.12553609,151.665488 L6.12553609,151.665488 Z M57.7706604,133.418524 L58.6196062,133.418524 C65.7177252,133.418524 71.1154119,136.858761 74.5366003,143.049242 C75.9046521,145.525773 76.6363122,148.228212 76.6363122,151.060104 L76.6363122,152.272987 C76.6363122,158.908092 73.3616253,164.195363 67.635369,167.552259 C64.9843715,169.105696 62.0560375,169.90949 58.9837426,169.90949 L57.7706604,169.90949 C51.1281353,169.90949 45.849428,166.628743 42.478626,160.919692 C40.9141098,158.269288 40.1176673,155.346863 40.1176673,152.272987 L40.1176673,151.060104 C40.1176673,144.421614 43.4131016,139.162688 49.1118359,135.778293 C51.7615632,134.204973 54.6915909,133.418524 57.7706604,133.418524 L57.7706604,133.418524 Z M46.2432034,151.665488 C46.2432034,156.318184 48.5287943,159.740654 52.4618907,162.146958 C54.3088242,163.277346 56.3424836,163.788812 58.5006268,163.788812 C63.1018711,163.788812 66.5027355,161.45781 68.8700454,157.577602 C69.9988682,155.727607 70.5095059,153.695701 70.5095059,151.541534 C70.5095059,147.215432 68.4237666,143.910147 64.8586173,141.514842 C62.9045599,140.201274 60.7294802,139.543432 58.3765664,139.543432 C53.2443605,139.543432 49.5509167,142.133763 47.3347657,146.736117 C46.5848988,148.292093 46.2432034,149.944523 46.2432034,151.665488 L46.2432034,151.665488 Z M102.104265,140.032477 C101.179528,139.599698 99.4477629,139.455861 98.4480812,139.417787 C93.3298479,139.225299 89.6266658,142.104996 87.4541267,146.616394 C86.7042601,148.17237 86.3617178,149.819723 86.3617178,151.541534 C86.3617178,156.784384 89.116452,160.45476 93.8002617,162.692269 C95.5112796,163.509176 97.7202319,163.664859 99.5900303,163.664859 C101.234995,163.664859 103.558693,162.657578 105.018203,161.965047 L105.271405,161.845324 L106.403614,161.845324 L106.528522,161.870707 C107.921979,162.160072 108.97374,163.042553 108.97374,164.540571 L108.97374,165.146377 C108.97374,168.872596 102.157191,169.726309 99.5561573,169.907375 C90.3773799,170.542372 83.5125623,165.505546 80.8954374,156.757733 C80.4406908,155.239409 80.2361815,153.730392 80.2361815,152.147341 L80.2361815,150.936151 C80.2361815,144.298506 83.5324623,139.041273 89.2303505,135.658993 C91.8800771,134.086942 94.8101049,133.297532 97.888328,133.297532 L99.1022567,133.297532 C102.367205,133.297532 105.374718,134.22401 108.070597,136.063852 L108.292466,136.216995 L108.432193,136.447557 C108.723079,136.929834 108.97374,137.48699 108.97374,138.061067 L108.97374,138.666874 C108.97374,140.229195 107.803846,141.069371 106.391336,141.341392 L106.274473,141.362121 L105.912454,141.362121 C104.997879,141.362121 102.920184,140.416183 102.104265,140.032477 L102.104265,140.032477 Z M121.974679,144.177091 C124.353845,141.796593 126.742325,139.420325 129.157058,137.078747 C129.830287,136.425982 132.378394,133.661355 133.381463,133.661355 L134.478953,133.661355 L134.60386,133.686738 C136.001128,133.976949 137.048232,134.861123 137.048232,136.361678 L137.048232,136.967061 C137.048232,137.990841 135.848275,139.180033 135.186479,139.880603 C133.779049,141.371006 132.297098,142.81318 130.856643,144.273123 L123.455783,151.779711 C126.6424,154.970772 129.826052,158.165217 132.986841,161.380816 C133.861191,162.270065 134.735966,163.160584 135.596767,164.062948 C135.901202,164.382774 136.350445,164.780863 136.605763,165.224642 C136.879713,165.639653 137.048232,166.107968 137.048232,166.608013 L137.048232,167.240895 L137.012665,167.386424 C136.668429,168.782486 135.781376,169.90949 134.232526,169.90949 L133.745176,169.90949 C132.731522,169.90949 131.587033,168.763449 130.892209,168.109415 C129.462339,166.76158 128.080315,165.344365 126.677966,163.967762 L121.974679,159.354833 L121.974679,166.727736 C121.974679,168.425856 120.910638,169.790613 119.153046,169.790613 L118.670353,169.790613 C116.911066,169.790613 115.84872,168.425856 115.84872,166.727736 L115.84872,125.18133 C115.84872,123.482365 116.911913,122.123953 118.670353,122.123953 L119.153046,122.123953 C120.910638,122.123953 121.974679,123.482365 121.974679,125.18133 L121.974679,144.177091 L121.974679,144.177091 Z M198.328151,133.661355 L198.936174,133.661355 C200.773792,133.661355 202,134.89835 202,136.723385 C202,139.257451 199.575529,139.905986 197.477511,139.905986 C194.726165,139.905986 192.099725,141.570262 190.203252,143.436755 C187.838059,145.766065 186.80281,148.749832 186.80281,152.02931 L186.80281,166.847459 C186.80281,168.546425 185.741734,169.90949 183.98033,169.90949 L183.497215,169.90949 C181.736657,169.90949 180.67558,168.546425 180.67558,166.847459 L180.67558,151.178981 C180.67558,145.16195 183.607303,140.250771 188.493928,136.80588 C191.412947,134.747745 194.754956,133.661355 198.328151,133.661355 L198.328151,133.661355 Z M154.786331,163.0269 C157.015608,163.804465 159.557787,163.693626 161.845073,163.295537 C163.014543,162.798877 166.006813,161.495039 167.107267,161.685834 L167.279173,161.714601 L167.437107,161.792442 C168.108642,162.117768 168.750538,162.578045 169.09308,163.260847 C169.895027,164.862935 169.50972,166.472214 167.935042,167.381347 L167.410855,167.683827 C161.599492,171.035224 155.418912,170.570716 149.626603,167.440574 C146.857049,165.945095 144.738284,163.724085 143.175462,161.017416 L142.809632,160.384534 C139.07935,153.929648 139.58279,147.139283 143.789835,141.000837 C145.24257,138.879245 147.140738,137.239929 149.360275,135.958089 L150.199907,135.474121 C155.672537,132.31775 161.537674,132.533505 167.1585,135.304055 C170.180408,136.793612 172.629014,139.01462 174.31632,141.934507 L174.619484,142.460357 C175.84527,144.58195 174.257465,146.431098 172.618428,147.694747 C170.716451,149.161036 168.795843,150.925151 166.972621,152.497626 C162.907843,156.003436 158.848992,159.517706 154.786331,163.0269 L154.786331,163.0269 Z M149.524983,159.334949 C154.071608,155.439933 158.619078,151.54238 163.152576,147.631712 C164.701849,146.296568 166.401012,144.911082 167.938429,143.506982 C166.7046,141.954391 164.644689,140.835002 162.89387,140.16743 C159.3609,138.822133 155.8762,139.27395 152.635809,141.142982 C148.39362,143.589899 146.587334,147.48703 146.746115,152.336444 C146.808357,154.246088 147.322805,156.086353 148.337306,157.711286 C148.694668,158.284094 149.093948,158.82179 149.524983,159.334949 L149.524983,159.334949 Z" id="Shape" fill="#364548"></path>
                <path d="M116.926007,36.3156327 L135.009869,36.3156327 L135.009869,54.8772585 L144.153666,54.8772585 C148.376128,54.8772585 152.719305,54.1219499 156.718128,52.7614586 C158.683019,52.0924831 160.888492,51.1615311 162.826699,49.9907176 C160.273908,46.6441387 158.970616,42.4184929 158.586871,38.2532377 C158.065893,32.5879973 159.203997,25.213956 163.022807,20.7799198 L164.923741,18.572258 L167.188936,20.4005643 C172.892161,25.0013128 177.688547,31.4299424 178.53397,38.7584779 C185.401137,36.730287 193.463587,37.2100101 199.516672,40.7177725 L202,42.1565164 L200.692896,44.7180165 C195.573759,54.7496726 184.871688,57.8572405 174.408503,57.3073452 C158.751635,96.4626154 124.664858,115 83.334793,115 C61.9823245,115 42.3918621,106.985477 31.2361586,87.9636916 L31.053181,87.6532328 L29.4279841,84.3330215 C25.6570361,75.9599823 24.4045714,66.7874048 25.2542312,57.6224824 L25.5092139,54.8772585 L40.9729386,54.8772585 L40.9729386,36.3156327 L59.0563772,36.3156327 L59.0563772,18.1576037 L95.2249486,18.1576037 L95.2249486,0 L116.926007,0 L116.926007,36.3156327" id="Shape" fill="#364548"></path>
                <path d="M175.504751,43.3737802 C176.717425,33.9346627 169.665026,26.5201527 165.291267,23 C160.251237,28.8366568 159.46806,44.1336444 167.37522,50.5740348 C162.962493,54.500212 153.663491,58.0589732 144.14254,58.0589732 L28.2430238,58.0589732 C27.3171052,68.014425 29.0622035,77.1820109 33.0471269,85.0292744 L34.3656926,87.4446331 C35.2005442,88.8638097 36.1124851,90.2333469 37.0981269,91.5519726 L37.0985504,91.5519726 C41.8632617,91.8582944 46.2565042,91.9643612 50.2757367,91.8752646 L50.277431,91.8752646 C58.1761185,91.7000421 64.6206986,90.7666528 69.5052795,89.0712766 C70.2325451,88.8179887 71.0250399,89.2044973 71.276639,89.9321166 C71.5278146,90.6597367 71.1432152,91.4539671 70.4167969,91.7064066 C69.7674678,91.931693 69.0901833,92.1425537 68.3908734,92.3428085 C68.3900262,92.3432324 68.3891791,92.3432324 68.3883319,92.343657 C64.5423386,93.4433599 60.4184851,94.1837081 55.097206,94.5125161 C55.4127639,94.5176067 54.768094,94.5600339 54.7663998,94.5604577 C54.5855364,94.5714889 54.3576571,94.5973697 54.1759466,94.6075517 C52.0818286,94.7250744 49.8212487,94.7496814 47.5102642,94.7496814 C44.9828366,94.7496814 42.4935302,94.7017397 39.7106915,94.5604577 L39.6395321,94.6075517 C49.2964485,105.479422 64.3957843,112 83.322476,112 C123.379259,112 157.355729,94.213831 172.400848,54.2829868 C183.075174,55.3801442 193.333556,52.6537971 198,43.5294866 C190.566813,39.2329232 181.008588,40.602885 175.504751,43.3737802" id="Shape" fill="#22A0C8"></path>
                <path d="M175.275209,43.2328584 C176.486578,33.8590296 169.441762,26.4958045 165.072706,23 C160.038095,28.7962857 159.25576,43.9874668 167.154418,50.3833101 C162.746435,54.2823307 153.457432,57.8164765 143.946717,57.8164765 L35.0274979,57.8164765 C34.5548816,72.957519 40.1975051,84.4506552 50.180836,91.3988668 L50.1825285,91.3988668 C58.0727236,91.2248562 64.5103748,90.297923 69.3897039,88.6142734 C70.1161875,88.3627375 70.9078303,88.7465727 71.1591589,89.4691591 C71.4100644,90.1917464 71.0258786,90.9804833 70.3002413,91.2311767 C69.6516103,91.4549048 68.975054,91.664307 68.2764959,91.8631768 C68.2756496,91.8635977 68.2748034,91.8635977 68.2739572,91.8640193 C64.432099,92.9561158 59.9585344,93.7857214 54.6429766,94.1122551 C54.6417073,94.1122551 54.5143505,93.9896473 54.5126581,93.9900682 C68.1300991,100.945864 87.875896,100.921005 110.514088,92.2613371 C135.898278,82.550863 159.518513,64.0501064 176,42.8898929 C175.75121,43.0015463 175.50919,43.116149 175.275209,43.2328584" id="Shape" fill="#37B1D9"></path>
                <path d="M28,70 C28.7188679,75.3523608 30.2724001,80.3640509 32.576919,84.9294629 L33.8925191,87.3537602 C34.725493,88.7781888 35.6353828,90.1527943 36.6192302,91.4762999 C41.3740701,91.7837553 45.7578541,91.8902147 49.7684693,91.8007883 C57.6493913,91.6249174 64.0794765,90.6880738 68.9530711,88.9864235 C69.6787009,88.7321982 70.4694133,89.1201372 70.7204465,89.8504492 C70.9710572,90.580762 70.5873228,91.3779317 69.8625384,91.6313054 C69.2146697,91.8574255 68.5389085,92.0690665 67.8411715,92.2700625 C67.8403262,92.2704879 67.839481,92.2704879 67.8386358,92.2709141 C64.0012927,93.3746867 59.5566521,94.1654684 54.2473416,94.4959186 C54.0651946,94.5069906 53.7473882,94.50912 53.5635508,94.5193396 C51.474988,94.6377234 49.2427363,94.7096897 46.936527,94.7096897 C44.4152067,94.7096897 41.8368334,94.6611445 39.0606764,94.5193396 C48.6954501,105.431445 63.855068,112 82.7391904,112 C116.954513,112 146.722659,98.9139908 164,70 L28,70" id="Shape" fill="#1B81A5"></path>
                <path d="M36,70 C38.0452642,79.231076 42.9602368,86.4782374 50.0949971,91.4139702 C57.9751802,91.2412198 64.4046624,90.3209989 69.2778001,88.6495415 C70.0033618,88.3998271 70.7940001,88.7808827 71.0450097,89.4982366 C71.2955969,90.2155912 70.9118986,90.9986164 70.187182,91.2474944 C69.5393741,91.4696025 68.8636763,91.6774883 68.1660047,91.8749179 C68.1651595,91.8753357 68.1643143,91.8753357 68.1634692,91.8757544 C64.326486,92.9599424 59.788028,93.736693 54.4792152,94.0612799 C68.0785315,100.965451 87.7422254,100.866318 110.35,92.270195 C124.02707,87.0688526 137.19029,79.3256073 149,70 L36,70" id="Shape" fill="#1D91B4"></path>
                <path d="M44,39 L60,39 L60,55 L44,55 L44,39 Z M45.3326847,40.3334775 L46.5953192,40.3334775 L46.5953192,53.6673873 L45.3326847,53.6673873 L45.3326847,40.3334775 Z M47.7066104,40.3334775 L49.0198368,40.3334775 L49.0198368,53.6673873 L47.7066104,53.6673873 L47.7066104,40.3334775 Z M50.1302632,40.3334775 L51.4434896,40.3334775 L51.4434896,53.6673873 L50.1302632,53.6673873 L50.1302632,40.3334775 Z M52.5552132,40.3334775 L53.8684396,40.3334775 L53.8684396,53.6673873 L52.5552132,53.6673873 L52.5552132,40.3334775 Z M54.9797309,40.3334775 L56.2929571,40.3334775 L56.2929571,53.6673873 L54.9797309,53.6673873 L54.9797309,40.3334775 Z M57.4038161,40.3334775 L58.6673153,40.3334775 L58.6673153,53.6673873 L57.4038161,53.6673873 L57.4038161,40.3334775 Z" id="Shape" fill="#23A3C2"></path>
                <path d="M62,21 L78,21 L78,37 L62,37 L62,21 Z M63.3342702,22.3335495 L64.5959034,22.3335495 L64.5959034,35.6668829 L63.3342702,35.6668829 L63.3342702,22.3335495 Z M65.7079393,22.3335495 L67.0201589,22.3335495 L67.0201589,35.6668829 L65.7079393,35.6668829 L65.7079393,22.3335495 Z M68.1308977,22.3335495 L69.4439821,22.3335495 L69.4439821,35.6668829 L68.1308977,35.6668829 L68.1308977,22.3335495 Z M70.5551532,22.3335495 L71.8682376,22.3335495 L71.8682376,35.6668829 L70.5551532,35.6668829 L70.5551532,22.3335495 Z M72.9798411,22.3335495 L74.2929254,22.3335495 L74.2929254,35.6668829 L72.9798411,35.6668829 L72.9798411,22.3335495 Z M75.4032319,22.3335495 L76.6674593,22.3335495 L76.6674593,35.6668829 L75.4032319,35.6668829 L75.4032319,22.3335495 Z" id="Shape" fill="#23A3C2"></path>
                <path d="M62,39 L78,39 L78,55 L62,55 L62,39 Z M63.3342702,40.3334775 L64.5959034,40.3334775 L64.5959034,53.6673873 L63.3342702,53.6673873 L63.3342702,40.3334775 Z M65.7079393,40.3334775 L67.0201589,40.3334775 L67.0201589,53.6673873 L65.7079393,53.6673873 L65.7079393,40.3334775 Z M68.1308977,40.3334775 L69.4439821,40.3334775 L69.4439821,53.6673873 L68.1308977,53.6673873 L68.1308977,40.3334775 Z M70.5551532,40.3334775 L71.8682376,40.3334775 L71.8682376,53.6673873 L70.5551532,53.6673873 L70.5551532,40.3334775 Z M72.9798411,40.3334775 L74.2929254,40.3334775 L74.2929254,53.6673873 L72.9798411,53.6673873 L72.9798411,40.3334775 Z M75.4032319,40.3334775 L76.6674593,40.3334775 L76.6674593,53.6673873 L75.4032319,53.6673873 L75.4032319,40.3334775 Z" id="Shape" fill="#34BBDE"></path>
                <path d="M80,39 L96,39 L96,55 L80,55 L80,39 Z M81.3334775,40.3334775 L82.5951788,40.3334775 L82.5951788,53.6673873 L81.3334775,53.6673873 L81.3334775,40.3334775 Z M83.7068423,40.3334775 L85.0199981,40.3334775 L85.0199981,53.6673873 L83.7068423,53.6673873 L83.7068423,40.3334775 Z M86.1312288,40.3334775 L87.4443846,40.3334775 L87.4443846,53.6673873 L86.1312288,53.6673873 L86.1312288,40.3334775 Z M88.5556154,40.3334775 L89.8687712,40.3334775 L89.8687712,53.6673873 L88.5556154,53.6673873 L88.5556154,40.3334775 Z M90.97957,40.3334775 L92.2935897,40.3334775 L92.2935897,53.6673873 L90.97957,53.6673873 L90.97957,40.3334775 Z M93.4039565,40.3334775 L94.6665225,40.3334775 L94.6665225,53.6673873 L93.4039565,53.6673873 L93.4039565,40.3334775 Z" id="Shape" fill="#23A3C2"></path>
                <path d="M80,21 L96,21 L96,37 L80,37 L80,21 Z M81.3334775,22.3335495 L82.5951788,22.3335495 L82.5951788,35.6668829 L81.3334775,35.6668829 L81.3334775,22.3335495 Z M83.7068423,22.3335495 L85.0199981,22.3335495 L85.0199981,35.6668829 L83.7068423,35.6668829 L83.7068423,22.3335495 Z M86.1312288,22.3335495 L87.4443846,22.3335495 L87.4443846,35.6668829 L86.1312288,35.6668829 L86.1312288,22.3335495 Z M88.5556154,22.3335495 L89.8687712,22.3335495 L89.8687712,35.6668829 L88.5556154,35.6668829 L88.5556154,22.3335495 Z M90.97957,22.3335495 L92.2935897,22.3335495 L92.2935897,35.6668829 L90.97957,35.6668829 L90.97957,22.3335495 Z M93.4039565,22.3335495 L94.6665225,22.3335495 L94.6665225,35.6668829 L93.4039565,35.6668829 L93.4039565,22.3335495 Z" id="Shape" fill="#34BBDE"></path>
                <path d="M98,39 L114,39 L114,55 L98,55 L98,39 Z M99.3335135,40.3334775 L100.595681,40.3334775 L100.595681,53.6673873 L99.3335135,53.6673873 L99.3335135,40.3334775 Z M101.707375,40.3334775 L103.020566,40.3334775 L103.020566,53.6673873 L101.707375,53.6673873 L101.707375,40.3334775 Z M104.130962,40.3334775 L105.444153,40.3334775 L105.444153,53.6673873 L104.130962,53.6673873 L104.130962,40.3334775 Z M106.555846,40.3334775 L107.869038,40.3334775 L107.869038,53.6673873 L106.555846,53.6673873 L106.555846,40.3334775 Z M108.980298,40.3334775 L110.29349,40.3334775 L110.29349,53.6673873 L108.980298,53.6673873 L108.980298,40.3334775 Z M111.404318,40.3334775 L112.667351,40.3334775 L112.667351,53.6673873 L111.404318,53.6673873 L111.404318,40.3334775 Z" id="Shape" fill="#34BBDE"></path>
                <path d="M98,21 L114,21 L114,37 L98,37 L98,21 Z M99.3335135,22.3335495 L100.595681,22.3335495 L100.595681,35.6668829 L99.3335135,35.6668829 L99.3335135,22.3335495 Z M101.707375,22.3335495 L103.020566,22.3335495 L103.020566,35.6668829 L101.707375,35.6668829 L101.707375,22.3335495 Z M104.130962,22.3335495 L105.444153,22.3335495 L105.444153,35.6668829 L104.130962,35.6668829 L104.130962,22.3335495 Z M106.555846,22.3335495 L107.869038,22.3335495 L107.869038,35.6668829 L106.555846,35.6668829 L106.555846,22.3335495 Z M108.980298,22.3335495 L110.29349,22.3335495 L110.29349,35.6668829 L108.980298,35.6668829 L108.980298,22.3335495 Z M111.404318,22.3335495 L112.667351,22.3335495 L112.667351,35.6668829 L111.404318,35.6668829 L111.404318,22.3335495 Z" id="Shape" fill="#23A3C2"></path>
                <path d="M98,3 L114,3 L114,19 L98,19 L98,3 Z M99.3335135,4.33261269 L100.595681,4.33261269 L100.595681,17.6665225 L99.3335135,17.6665225 L99.3335135,4.33261269 Z M101.707375,4.33261269 L103.020566,4.33261269 L103.020566,17.6665225 L101.707375,17.6665225 L101.707375,4.33261269 Z M104.130962,4.33261269 L105.444153,4.33261269 L105.444153,17.6665225 L104.130962,17.6665225 L104.130962,4.33261269 Z M106.555846,4.33261269 L107.869038,4.33261269 L107.869038,17.6665225 L106.555846,17.6665225 L106.555846,4.33261269 Z M108.980298,4.33261269 L110.29349,4.33261269 L110.29349,17.6665225 L108.980298,17.6665225 L108.980298,4.33261269 Z M111.404318,4.33261269 L112.667351,4.33261269 L112.667351,17.6665225 L111.404318,17.6665225 L111.404318,4.33261269 Z" id="Shape" fill="#34BBDE"></path>
                <path d="M116,39 L132,39 L132,55 L116,55 L116,39 Z M117.332613,40.3334775 L118.596043,40.3334775 L118.596043,53.6673873 L117.332613,53.6673873 L117.332613,40.3334775 Z M119.70641,40.3334775 L121.019565,40.3334775 L121.019565,53.6673873 L119.70641,53.6673873 L119.70641,40.3334775 Z M122.131229,40.3334775 L123.444384,40.3334775 L123.444384,53.6673873 L122.131229,53.6673873 L122.131229,40.3334775 Z M124.554751,40.3334775 L125.867906,40.3334775 L125.867906,53.6673873 L124.554751,53.6673873 L124.554751,40.3334775 Z M126.980002,40.3334775 L128.292725,40.3334775 L128.292725,53.6673873 L126.980002,53.6673873 L126.980002,40.3334775 Z M129.403956,40.3334775 L130.666523,40.3334775 L130.666523,53.6673873 L129.403956,53.6673873 L129.403956,40.3334775 Z" id="Shape" fill="#23A3C2"></path>
                <path d="M76.5004407,80 C78.9854034,80 81,82.0154785 81,84.5004412 C81,86.9854039 78.9854034,89 76.5004407,89 C74.0150372,89 72,86.9854039 72,84.5004412 C72,82.0154785 74.0150372,80 76.5004407,80" id="Shape" fill="#D3ECEC"></path>
                <path d="M76.0002051,81 C76.383437,81 76.7490255,81.0722147 77.0863023,81.2031042 C76.7207139,81.4144153 76.4732954,81.8103668 76.4732954,82.2633521 C76.4732954,82.9395472 77.0214729,83.4869037 77.697668,83.4869037 C78.1609108,83.4869037 78.5634275,83.2296379 78.7714556,82.8496885 C78.9183474,83.2037886 79,83.5927645 79,84.0006156 C79,85.657047 77.657047,87 76.0002051,87 C74.3437735,87 73,85.657047 73,84.0006156 C73,82.3433629 74.3437735,81 76.0002051,81" id="Shape" fill="#364548"></path>
                <path d="M0,71 L201,71 C196.623414,69.9357407 187.152804,68.4981995 188.714661,63 C180.756808,71.8273064 161.565014,69.1928285 156.721564,64.8400365 C151.327866,72.3389461 119.928613,69.4886139 117.738627,63.6467516 C110.976929,71.2535882 90.0243409,71.2535882 83.2622194,63.6467516 C81.0713866,69.4886139 49.6725573,72.3389461 44.2784363,64.8400365 C39.4349863,69.1928285 20.2448844,71.8273064 12.2861857,63 C13.8480427,68.4981995 4.37743247,69.9357407 0,71" id="Shape" fill="#364548"></path>
                <path d="M88,111.904597 C77.3335541,106.725663 71.4786328,99.685733 68.2210233,92 C64.2592368,93.1573491 59.4962328,93.8968271 53.9623892,94.214548 C51.8777047,94.3341246 49.6850099,94.3954238 47.3834608,94.3954238 C44.7304562,94.3954238 41.9348442,94.3151303 39,94.1558386 C48.7816888,104.157997 60.8155625,111.859271 83.0969194,112 C84.7419684,112 86.3752028,111.967192 88,111.904597" id="Shape" fill="#BDD9D7"></path>
                <path d="M72,99 C70.5420275,96.9771156 69.1278192,94.4348753 68.0883157,92 C64.1737137,93.142666 59.4676052,93.8729154 54,94.1864884 C57.7553837,96.2702981 63.1267078,98.2011565 72,99" id="Shape" fill="#D3ECEC"></path>
            </g>
        </g>
    </g>
</svg>