<svg xmlns:rdf="http://www.w3.org/1999/02/22-rdf-syntax-ns#" xmlns="http://www.w3.org/2000/svg" height="177.25mm" width="185.73mm" version="1.1" xmlns:cc="http://creativecommons.org/ns#" xmlns:dc="http://purl.org/dc/elements/1.1/">
 <defs>
  <clipPath id="ar" clipPathUnits="userSpaceOnUse">
   <path d="m0 653h774v-653h-774v653z"/>
  </clipPath>
  <clipPath id="aq" clipPathUnits="userSpaceOnUse">
   <path d="m256.74 458.01h255.42v-89.229h-255.42v89.229z"/>
  </clipPath>
  <clipPath id="ap" clipPathUnits="userSpaceOnUse">
   <path d="m260.5 464.5h50.367v-24.384h-50.367v24.384z"/>
  </clipPath>
  <clipPath id="ao" clipPathUnits="userSpaceOnUse">
   <path d="m465.5 451.43h38.192v-25.823h-38.192v25.823z"/>
  </clipPath>
  <clipPath id="an" clipPathUnits="userSpaceOnUse">
   <path d="m484.19 274.85h35.348v-41.074h-35.348v41.074z"/>
  </clipPath>
  <clipPath id="am" clipPathUnits="userSpaceOnUse">
   <path d="m498.94 295.54h11.787v-9.622h-11.787v9.622z"/>
  </clipPath>
  <clipPath id="al" clipPathUnits="userSpaceOnUse">
   <path d="m517.98 298.04h11.56v-10.771h-11.56v10.771z"/>
  </clipPath>
  <clipPath id="ak" clipPathUnits="userSpaceOnUse">
   <path d="m500.88 280.16h23.804v-12.99h-23.804v12.99z"/>
  </clipPath>
  <clipPath id="aj" clipPathUnits="userSpaceOnUse">
   <path d="m528.74 283.4h8.588v-7.548h-8.588v7.548z"/>
  </clipPath>
  <clipPath id="ai" clipPathUnits="userSpaceOnUse">
   <path d="m292.39 295.94h194.21v-54.993h-194.21v54.993z"/>
  </clipPath>
  <clipPath id="ah" clipPathUnits="userSpaceOnUse">
   <path d="m464.73 503.5h27.141v-67.167h-27.141v67.167z"/>
  </clipPath>
  <clipPath id="ag" clipPathUnits="userSpaceOnUse">
   <path d="m250.83 493.38h66.587v-47.632h-66.587v47.632z"/>
  </clipPath>
  <clipPath id="af" clipPathUnits="userSpaceOnUse">
   <path d="m465.57 507.41h39.427v-66.535h-39.427v66.535z"/>
  </clipPath>
  <clipPath id="ae" clipPathUnits="userSpaceOnUse">
   <path d="m285.73 473.58h176.74v-168.58h-176.74v168.58z"/>
  </clipPath>
  <clipPath id="ad" clipPathUnits="userSpaceOnUse">
   <path d="m371.33 391.33h19.667v-8.333h-19.667v8.333z"/>
  </clipPath>
  <clipPath id="ac" clipPathUnits="userSpaceOnUse">
   <path d="m370.44 400.4h21.858v-14.905h-21.858v14.905z"/>
  </clipPath>
  <clipPath id="ab" clipPathUnits="userSpaceOnUse">
   <path d="m304.4 382.87h170.07v-96.553h-170.07v96.553z"/>
  </clipPath>
  <clipPath id="aa" clipPathUnits="userSpaceOnUse">
   <path d="m313.25 381.25h140.99v-71.604h-140.99v71.604z"/>
  </clipPath>
  <clipPath id="z" clipPathUnits="userSpaceOnUse">
   <path d="m314.75 379.74h138v-70.027h-138v70.027z"/>
  </clipPath>
  <clipPath id="y" clipPathUnits="userSpaceOnUse">
   <path d="m316.25 378.25h135v-68.457h-135v68.457z"/>
  </clipPath>
  <clipPath id="x" clipPathUnits="userSpaceOnUse">
   <path d="m348.04 345.93h75.63v-31.136h-75.63v31.136z"/>
  </clipPath>
  <clipPath id="w" clipPathUnits="userSpaceOnUse">
   <path d="m358.25 363.25h45.347v-34.854h-45.347v34.854z"/>
  </clipPath>
  <clipPath id="v" clipPathUnits="userSpaceOnUse">
   <path d="m358.33 363.75h44.761v-15.5h-44.761v15.5z"/>
  </clipPath>
  <clipPath id="u" clipPathUnits="userSpaceOnUse">
   <path d="m379.54 354.37h8.255v-22.239h-8.255v22.239z"/>
  </clipPath>
  <clipPath id="t" clipPathUnits="userSpaceOnUse">
   <path d="m251.6 493.4h59.399v-53.812h-59.399v53.812z"/>
  </clipPath>
  <clipPath id="s" clipPathUnits="userSpaceOnUse">
   <path d="m282.95 437.27h201.39v-64.021h-201.39v64.021z"/>
  </clipPath>
  <clipPath id="r" clipPathUnits="userSpaceOnUse">
   <path d="m266.72 456.22h236.99v-79.92h-236.99v79.92z"/>
  </clipPath>
  <clipPath id="q" clipPathUnits="userSpaceOnUse">
   <path d="m289.7 445.27h76.009v-51.499h-76.009v51.499z"/>
  </clipPath>
  <clipPath id="p" clipPathUnits="userSpaceOnUse">
   <path d="m403.42 438.2h75.422v-52.734h-75.422v52.734z"/>
  </clipPath>
  <clipPath id="o" clipPathUnits="userSpaceOnUse">
   <path d="m266.74 448.01h235.39v-69.229h-235.39v69.229z"/>
  </clipPath>
  <clipPath id="n" clipPathUnits="userSpaceOnUse">
   <path d="m270.45 454.62h30.419v-4.5h-30.419v4.5z"/>
  </clipPath>
  <clipPath id="m" clipPathUnits="userSpaceOnUse">
   <path d="m368.5 447.25h32.643v-8.034h-32.643v8.034z"/>
  </clipPath>
  <clipPath id="l" clipPathUnits="userSpaceOnUse">
   <path d="m475.14 441.43h18.56v-5.823h-18.56v5.823z"/>
  </clipPath>
  <clipPath id="k" clipPathUnits="userSpaceOnUse">
   <path d="m286.58 446.3h43.61v-43.135h-43.61v43.135z"/>
  </clipPath>
  <clipPath id="j" clipPathUnits="userSpaceOnUse">
   <path d="m441.41 438.67h41.893v-46.031h-41.893v46.031z"/>
  </clipPath>
  <clipPath id="i" clipPathUnits="userSpaceOnUse">
   <path d="m291.92 443.21h72.013v-41.396h-72.013v41.396z"/>
  </clipPath>
  <clipPath id="h" clipPathUnits="userSpaceOnUse">
   <path d="m293.48 415.84h53.02v-20.936h-53.02v20.936z"/>
  </clipPath>
  <clipPath id="g" clipPathUnits="userSpaceOnUse">
   <path d="m405.56 436.14h71.799v-38.464h-71.799v38.464z"/>
  </clipPath>
  <clipPath id="f" clipPathUnits="userSpaceOnUse">
   <path d="m419.03 404.64h54.683v-17.618h-54.683v17.618z"/>
  </clipPath>
  <clipPath id="e" clipPathUnits="userSpaceOnUse">
   <path d="m324.38 427.5h3v-3h-3v3z"/>
  </clipPath>
  <clipPath id="d" clipPathUnits="userSpaceOnUse">
   <path d="m443.38 420.5h3v-3h-3v3z"/>
  </clipPath>
  <clipPath id="c" clipPathUnits="userSpaceOnUse">
   <path d="m271.12 451.73h97.609v-14.275h-97.609v14.275z"/>
  </clipPath>
  <clipPath id="b" clipPathUnits="userSpaceOnUse">
   <path d="m400.16 447.01h72.091v-13.921h-72.091v13.921z"/>
  </clipPath>
  <clipPath id="a" clipPathUnits="userSpaceOnUse">
   <path d="m0 653h774v-653h-774v653z"/>
  </clipPath>
 </defs>
 <g transform="translate(-57.648 -204.8)">
  <g transform="matrix(1.3648 0 0 1.3648 1215.1 108.38)">
   <g transform="matrix(1.25 0 0 -1.25 -1089.1 725.15)">
    <g clip-path="url(#ar)">
     <g transform="translate(280 240.5)">
      <path d="m0 0c0.327 0.749 0.64 1.504 0.953 2.257l0.128 0.308c0.759 1.818 1.503 3.672 2.219 5.531 0.956 2.435 1.862 4.911 2.738 7.305 0.51 1.39 1.017 2.777 1.532 4.156 1.207 3.297 2.879 7.706 4.888 11.957 1.203 2.497 2.182 4.346 3.204 6.066 1.16 1.926 2.351 3.706 3.665 5.486l1.098 1.486 1.555 0.996c0.194 0.124 0.439 0.272 0.718 0.428 0.773 0.436 1.64 0.816 2.221 1.053 1.086 0.448 2.367 0.891 3.887 1.346 2.118 0.63 4.456 1.217 7.372 1.854 4.153 0.899 8.737 1.738 14.444 2.643 8.566 1.345 17.694 2.538 28.744 3.755 19.478 2.118 38.853 3.657 57.602 4.577 9.908 0.464 17.488 0.671 24.598 0.671 1.496 0 2.991-0.01 4.482-0.03 4.708-0.088 10.094-0.243 15.094-0.979 1.893-0.291 3.441-0.654 4.669-1.089 0.462-0.16 0.86-0.333 1.113-0.449l1.449-0.665 1.169-1.083c0.479-0.443 0.957-0.897 1.426-1.368 1.717-1.714 3.425-3.646 5.196-5.881 5.67-7.223 10.842-15.923 15.401-25.895 4.329-9.621 7.179-18.301 8.739-26.592l2.227-11.849h-27.652l-1.65 7.975c-1.744 8.435-24.491 30.749-35.792 35.111-1.144 0.441-6.03 1.881-20.886 1.881-30.634 0-74.104-5.42-80.303-6.726-7.303-3.405-18.669-17.988-25.112-32.338l-2.65-5.903" fill="#fff"/>
     </g>
     <g transform="translate(468.33 284.62)">
      <path d="m0 0c-1.412 1.781-2.893 3.485-4.45 5.04-0.37 0.372-0.748 0.731-1.127 1.081-0.06 0.027-0.153 0.067-0.277 0.11-0.679 0.241-1.742 0.461-2.788 0.623-4.322 0.635-9.093 0.785-13.774 0.873-9.427 0.127-18.949-0.185-28.455-0.63-19.022-0.933-38.056-2.469-56.995-4.529-9.466-1.043-18.917-2.222-28.274-3.692-4.673-0.741-9.33-1.552-13.878-2.536-2.267-0.495-4.517-1.034-6.639-1.665-1.055-0.316-2.086-0.658-2.979-1.026-0.443-0.18-0.851-0.373-1.14-0.536-0.071-0.039-0.132-0.076-0.181-0.107-1.123-1.521-2.144-3.046-3.115-4.659-0.999-1.679-1.895-3.436-2.757-5.225-1.697-3.592-3.161-7.36-4.563-11.189-1.428-3.819-2.793-7.701-4.304-11.55-0.743-1.93-1.515-3.855-2.317-5.774-0.379-0.912-0.756-1.826-1.152-2.733h12.843c6.941 15.458 19.983 33.225 30.923 37.701 3.017 1.235 51.551 7.266 83.622 7.266 11.887 0 20.126-0.869 24.486-2.552 13.142-5.072 39.272-29.296 41.985-42.415h7.453c-1.552 8.257-4.481 16.451-8.004 24.282-3.864 8.458-8.506 16.665-14.139 23.842" fill="#ba8449"/>
     </g>
     <g transform="translate(462.66 290.84)">
      <path d="m0 0-0.017 0.014-0.033 0.028 0.061-0.054 0.007-0.005-0.018 0.017z" fill="#fff"/>
     </g>
     <g transform="translate(462.66 290.84)">
      <path d="m0 0-0.017 0.014-0.033 0.028 0.061-0.054 0.007-0.005-0.018 0.017z" fill="#ba8449"/>
     </g>
     <g transform="translate(482.18 226.5)">
      <path d="m0 0-1.533 8.151c-1.263 6.718-3.65 13.923-7.296 22.028-3.879 8.483-8.225 15.827-12.89 21.771-0.94 1.187-1.851 2.25-2.749 3.208-3.683 0.5-8.109 0.621-11.988 0.695-1.35 0.017-2.753 0.027-4.158 0.027-6.786 0-14.077-0.2-23.642-0.649-18.334-0.898-37.31-2.406-56.382-4.48-10.723-1.182-19.562-2.335-27.802-3.63-5.316-0.843-9.551-1.616-13.315-2.431-2.404-0.525-4.286-0.996-5.905-1.476-0.226-0.068-0.432-0.132-0.619-0.192-0.371-0.561-0.729-1.129-1.079-1.71-0.686-1.154-1.409-2.527-2.316-4.408-1.622-3.434-3.025-7.131-4.18-10.284-0.523-1.401-1.014-2.743-1.506-4.089-0.916-2.502-1.864-5.089-2.881-7.679-0.758-1.971-1.573-4.001-2.398-5.974l-0.114-0.276c-0.361-0.871-0.724-1.742-1.101-2.606l-2.63-5.996h-17.598l-2.528 1.242-0.264 0.151c-6.092 3.468-6.11 8.644-5.834 10.709l0.064 0.482 0.32 1.368 0.436 1.655c0.302 1.133 0.616 2.23 0.942 3.327 0.654 2.237 1.323 4.35 2.035 6.422 1.339 3.979 2.965 8.129 4.95 12.634 2.093 4.648 4.127 8.705 6.251 12.479 1.071 1.932 2.307 3.98 3.749 6.202 1.356 2.123 2.85 4.227 4.406 6.199 1.291 1.633 2.5 2.621 3.411 3.303l0.102 0.075c0.934 0.681 1.734 1.145 2.255 1.434 1.327 0.728 2.411 1.191 3.214 1.516 1.863 0.748 3.518 1.259 4.756 1.622 3.037 0.88 5.886 1.515 8.033 1.971 4.394 0.921 9 1.734 14.957 2.641 8.692 1.309 17.956 2.461 29.17 3.626 19.665 2.011 39.219 3.44 58.136 4.249 9.067 0.366 16.038 0.529 22.627 0.529 2.373 0 4.715-0.023 6.961-0.067 4.856-0.132 10.276-0.28 16.16-1.172l0.181-0.029c1.434-0.245 3.396-0.579 5.818-1.426l0.13-0.047c0.635-0.232 1.495-0.568 2.531-1.111 0.718-0.383 1.291-0.732 1.865-1.131l0.729-0.537 0.569-0.463 0.583-0.53c0.577-0.539 1.14-1.086 1.688-1.64 1.941-1.965 3.83-4.127 5.773-6.607 6.082-7.867 11.367-16.874 16.195-27.582 2.227-4.996 4.139-9.977 5.698-14.843 1.693-5.319 2.893-10.237 3.672-15.052l1.884-11.599h-27.546z" fill="#fff"/>
     </g>
     <g transform="translate(289.62 226.5)">
      <path d="m0 0 6.691 14.25c5.607 11.94 19.069 33.772 33.961 39.865l0.282 0.11c5.016 1.878 55.358 7.711 85.997 7.711 17.228 0 23.665-1.716 27.007-3.006 15.531-5.993 42.503-31.554 46.147-46.573l3-12.357h-203.08z" fill="#fff"/>
     </g>
     <g transform="translate(472.13 226.5)">
      <path d="m0 0-1.854 7.643c-1.71 7.048-22.948 28.397-33.913 32.628-1.011 0.391-5.428 1.665-19.805 1.665-29.61 0-72.274-5.227-79.264-6.585-5.756-2.858-16.052-15.077-22.872-29.601l-2.7-5.75h-25.161l6.33 14.097c7.425 16.535 21.938 37 36.258 42.859 5.532 2.264 56.524 8.011 87.409 8.011 13.465 0 22.389-1.024 28.087-3.223 15.491-5.979 44.571-32.278 48.177-49.719l2.469-12.025h-23.179z" fill="#fff"/>
     </g>
     <g transform="translate(483.64 226.5)">
      <path d="m0 0-2.878 2.672c-10.887 10.11-13.86 31.013-10.475 39.633 2.242 5.708 7.011 7.742 10.728 7.742 0.978 0 1.954-0.13 2.906-0.387 1.913 0.117 6.5 3.847 7.852 6.077 2.035 3.976 6.162 6.346 11.062 6.346 7.404 0 19.394-5.879 23.326-11.437 2.222-3.141 2.807-6.898 1.603-10.307-0.098-0.278-0.291-0.86-0.564-1.677-4.084-12.231-9.325-27.147-13.628-33.987l-2.942-4.675h-26.99z" fill="#fff"/>
     </g>
     <g transform="translate(482.72 226.5)">
      <path d="m0 0 9.329 15.225c4.57 7.459 7.671 13.455 9.713 18.097-5.271-3.679-12.674-6.083-23.607-6.561l-0.301 0.239-0.195-1c-6.46 0-11.74 5.293-12.018 11.729-0.142 3.193 0.973 6.385 3.138 8.75 2.167 2.366 5.125 3.808 8.329 3.947 10.778 0.472 12.109 3.018 14.125 6.825 2.72 5.14 8.635 8.104 16.226 8.104 1.96 0 3.875-0.199 5.693-0.607 9.502-2.138 15.668-9.306 16.09-18.713 0.429-9.537-4.754-23.389-15.405-41.175l-2.911-4.86h-28.206z" fill="#fff"/>
     </g>
     <g transform="translate(522.45 256.16)">
      <path d="m0 0c-12.193 0-25.467 7.948-32.277 15.801-6.195 7.141-6.81 13.433-6.236 17.455 0.709 4.964 4.756 9.973 12.199 9.973 1.343 0 2.635-0.156 3.892-0.357 1.203 5.365 4.066 16.665 15.611 16.665 0.516 0 1.043-0.027 1.567-0.082 5.549-0.578 9.809-4.071 11.477-9.379 1.824 0.932 3.913 1.57 6.329 1.57 3.604 0 7.021-1.526 9.62-4.297 4.096-4.37 5.008-10.393 2.442-16.118 2.709-1.667 4.72-4.27 5.689-7.567 1.254-4.262 0.444-8.684-2.281-12.45-5.282-7.303-17.445-10.887-27.156-11.2-0.29-0.009-0.581-0.014-0.876-0.014" fill="#fff"/>
     </g>
     <g transform="translate(510.3 504.35)">
      <path d="m0 0c-11.048-6.905-23.089-22.767-37.77-44.458-2.282-3.374-6.051-5.309-10.339-5.309-5.457 0-12.287 3.269-20.301 9.715-12.695 10.211-12.964 15.986-13.066 18.16-0.284 6.112 4.229 11.161 10.497 11.746 12.199 1.137 22.317 8.438 32.102 15.5 9.711 7.007 18.883 13.626 29.705 13.626 2.173 0 4.334-0.279 6.424-0.831" fill="#fff"/>
     </g>
     <g transform="translate(440.25,484.25)">
      <path d="m0 0c29.5 2.75 46.751 33.333 64.751 28.583-12-7.5-24.001-22.583-40.751-47.333-3.934-5.812-32.035 18.001-24 18.75" fill="#fff8ee"/>
     </g>
     <g transform="translate(248.96 498.34)">
      <path d="m0 0c7.358 6.806 17.318 10.257 29.603 10.257 10.569 0 23.053-2.59 37.105-7.7 3.796-1.381 8.702-1.557 12.552-1.557 1.041 0 2.034 0.013 2.963 0.025 0.897 0.012 1.739 0.022 2.512 0.022 3.541 0 10.91 0 13.944-6.827 1.134-2.553 2.424-7.778-1.683-14.097-4.952-7.62-18.089-15.844-30.678-15.844-0.205 0-0.41 0.003-0.615 0.007-6.757 0.144-13.141 3.708-20.535 7.836-9.21 5.142-19.649 10.969-31.909 10.969-1.708 0-3.438-0.115-5.141-0.343" fill="#fff"/>
     </g>
     <g transform="translate(476.19 425.22)">
      <path d="m0 0c-5.457 0-15.603 2.283-22.233 17.574-3.568 8.225-4.833 17.279-4.833 22.532 0 10.632 5.579 13.462 8.976 14.199 2.418 2.444 6.926 8.548 10.333 13.161 13.789 18.674 23.691 30.914 35.216 30.914 1.931 0 3.805-0.358 5.569-1.064 15.562-6.225 23.03-19.283 20.488-35.826-1.875-12.207-9.462-26.745-20.817-39.887-5.332-6.173-19.04-20.627-31.129-21.543-0.528-0.04-1.055-0.06-1.57-0.06" fill="#fff"/>
     </g>
     <g transform="translate(298.11 419.5)">
      <path d="m0 0c-1.296 0-2.62 0.011-3.937 0.221-19.315 3.082-43.311 22.571-52.399 42.614-6.209 13.693-3.422 23.051 0.009 28.511 5.577 8.872 13.898 13.55 24.065 13.55 12.292 0 24.67-6.761 35.591-12.72 4.133-2.255 10.231-5.586 12.826-6.222 0.938 0.256 1.901 0.385 2.876 0.385 3.97 0 7.582-2.153 9.663-5.759 5.012-8.681 1.991-32.182-5.879-45.809-5.536-9.587-13.638-14.771-22.813-14.771h-0.002z" fill="#fff"/>
     </g>
     <g transform="translate(365.29 251.5)">
      <path d="m0 0c-45.244 0-89.928 22.192-104.79 38.232-15.518 16.749-21.187 35.725-16.851 56.428 3.559 16.992 13.065 32.306 21.451 45.822 5.771 9.299 11.221 18.08 12.649 24.394 18.362 81.171 64.482 91.58 102.61 91.58 2.427 0 4.97-0.042 7.777-0.126 81.159-2.432 89.261-41.638 94.103-65.062 0.894-4.325 1.738-8.41 2.86-11.165 27.23-66.91 31.73-107.02 15.05-134.11-16.41-26.633-52.384-39.824-124.18-45.596-3.483-0.281-7.076-0.394-10.678-0.394h-0.002z" fill="#fff"/>
     </g>
     <g transform="translate(363.6 251.3)">
      <path d="m0 0c-46.061 0-88.751 22.918-103.1 38.407-15.517 16.749-21.186 35.739-16.85 56.442 3.558 16.993 13.064 32.313 21.451 45.83 5.771 9.299 11.221 18.082 12.648 24.396 18.363 81.172 64.483 91.582 102.61 91.582 2.427 0 4.97-0.041 7.776-0.125 81.159-2.432 89.262-41.637 94.104-65.061 0.893-4.325 1.738-8.41 2.859-11.165 26.8-65.88 31.21-105.56 14.74-132.71-18.87-31.13-63.113-41.314-123.73-47.03-4.087-0.385-8.295-0.58-12.51-0.58" fill="#fff"/>
     </g>
     <g transform="translate(480.9 307.92)">
      <path d="m0 0c0.55 1.358 1.15 2.787 1.774 4.273 6.226 14.816 10.779 27.748 3.396 35.951-8.695 9.66-45.74 27.123-78.425 42.53-62.798 29.601-101.57 48.714-107.14 67.81-1.421 4.877-0.757 9.855 1.871 14.019 10.714 16.979 41.087 35.252 82.453 35.252 0.418 0 0.838-0.002 1.257-0.005 38.957-0.343 67.346-11.565 84.379-33.354 14.403-18.41 17.664-39.87 20.046-55.54 0.813-5.347 1.824-12 2.883-13.822 29.534-50.768 16.028-88.208 5.35-106l-17.845 8.892z" fill="#fff"/>
     </g>
     <g transform="translate(450.05 366.3)">
      <path d="m0 0c-15.229 0-40.641 3.79-49.46 12.217-6.918 6.611-9.57 17.633-12.136 28.292-1.104 4.588-2.838 11.789-4.527 15.033-0.048 0.001-0.097 0.001-0.148 0.002-0.648-1.657-1.379-3.707-1.986-5.401-4.113-11.509-9.746-27.238-21.732-35.8-5.166-3.69-23.595-7.146-37.922-7.146h-0.004c-14.252 0-25.133 3.055-32.341 9.145-10.39 8.778-18.301 24.852-23.52 47.817-0.245 0.161-0.491 0.314-0.7 0.449-2.446 1.589-5.491 3.563-7.27 7.121-2.725 5.451-1.606 15.137 1.216 20.157 2.145 3.817 5.662 6.196 9.648 6.528 0.394 0.032 0.819 0.051 1.276 0.051 2.026 0 4.179-0.365 6.672-0.788 2.512-0.426 5.359-0.909 7.623-0.909 0.657 0 1.094 0.043 1.345 0.079 14.278 2.039 27.72 3.073 39.952 3.073 29.705 0 45.293-6.08 51.161-8.369 0.478-0.186 0.865-0.343 1.17-0.45 1.646-0.401 4.726-1.017 8.109-1.017 1.246 0.001 2.431 0.084 3.522 0.25 13.447 2.039 26.227 3.073 37.986 3.073 31.339 0 47.972-7.158 55.075-10.215 0.558-0.24 1.236-0.532 1.569-0.662 0.065-0.005 0.27-0.026 0.61-0.026 1.941 0 4.762 0.606 7.25 1.141 1.88 0.404 3.657 0.786 5.342 0.984 0.47 0.055 0.948 0.083 1.419 0.083 4.718 0 8.879-2.651 11.417-7.274 2.869-5.227 4.793-16.285 0.769-22.609-2.679-4.21-7.095-6.209-10.643-7.815-0.45-0.203-1.024-0.463-1.518-0.7-1.205-2.057-3.35-6.301-5.133-9.829-5.221-10.326-11.137-22.03-16.585-28.33-4.746-5.488-13.746-8.155-27.512-8.155" fill="#fff"/>
     </g>
     <g opacity="0.3" clip-path="url(#aq)">
      <g transform="translate(443.98 368.78)">
       <path d="m0 0c-12.063 0-29.009 1.808-41.235 10.418-6.988 4.921-10.141 14.95-14.502 30.885-1.233 4.502-2.99 10.92-4.345 14.085-0.004 0.001-0.008 0.001-0.013 0.002-0.754-1.849-1.637-4.217-2.363-6.159-4.535-12.152-10.748-28.795-22.006-35.765-5.805-3.594-24.016-6.866-38.216-6.866-15.176 0-26.117 3.39-32.522 10.077-16.143 16.851-19.311 32.956-21.203 42.578-0.271 1.375-0.611 3.104-0.914 4.287-9.472 4.959-10.096 12.363-9.889 15.467 0.388 5.826 4.934 10.22 10.575 10.22 3.664 0 6.228-1.799 7.924-2.99 0.178-0.124 0.36-0.254 0.548-0.381 0.172-0.063 0.529-0.167 0.799-0.246 2.344-0.685 9.478-2.77 10.996-11.874 0.274-1.581 2.733-11.347 6.642-21.415 6.241-16.071 10.612-18.852 10.971-19.057 5.104-1.76 11.124-2.653 17.896-2.653 11.07 0 20.541 2.342 24.185 3.571 2.228 3.543 6.775 12.529 9.912 18.727 9.554 18.881 11.189 21.73 15.153 23.798 2.273 1.186 4.928 1.738 8.358 1.738 4.561 0 11-1.1 14.059-2.402 6.96-2.962 10.638-12.061 18.634-35.403 1.439-4.202 3.312-9.669 4.442-12.42 5.993-2.884 19.67-4.893 34.077-4.893 4.079 0 7.046 0.165 9.007 0.344 1.368 2.797 3.294 6.886 4.955 10.412 11.547 24.512 13.284 27.314 16.304 29.604 5 3.788 13.676 6.331 18.643 6.331 6.591 0 10.329-4.338 11.111-8.637 1.6-8.799-6.911-12.046-9.708-13.112-0.659-0.259-1.774-0.685-2.518-1.031-1.022-1.847-2.966-5.66-4.584-8.835-12.303-24.134-16.447-30.71-21.116-33.511-5.604-3.362-19.501-4.893-30.042-4.894" fill="#fff"/>
      </g>
     </g>
     <g opacity="0.3" clip-path="url(#ap)">
      <g transform="translate(285.29 440.12)">
       <path d="m0 0c-1.9 0-5.236 0.269-12.238 2.596-1.885 0.626-3.456 1.217-4.462 1.603-2.217 0.851-8.088 3.111-8.088 10.03v10l9.98 0.001c1.262 0 2.269-0.235 2.978-0.453 2.088-0.31 8.875-0.781 11.185-0.942l1.328-0.093c1.764 0.013 7.347 0.768 9.742 1.116 3 0.437 4.009 0.526 5.079 0.526h8.639l1.336-8.504c0.625-4.26-1.67-9.423-7.267-11.104-0.349-0.103-1.39-0.471-2.227-0.777-5.354-1.962-10.538-3.736-15.108-3.983-0.281-0.015-0.573-0.016-0.877-0.016" fill="#fff"/>
      </g>
     </g>
     <g opacity="0.3" clip-path="url(#ao)">
      <g transform="translate(484.29 425.61)">
       <path d="m0 0c-3.306 0-6.589 1.395-11.056 4.524-4.33 3.033-7.732 5.975-7.732 11.264v10l9.863 0.034c1.403 0 2.7-0.291 4.041-0.865 1.135-0.482 5.143-1.762 6.967-2.205 0.623 0.075 1.853 0.244 4.255 0.759 1.176 0.253 1.93 0.379 3.058 0.379h8.509l1.374-8.361c0.653-4.018-1.193-9.17-6.771-11.101-0.358-0.153-1.259-0.598-1.863-0.905-2.721-1.376-5.805-2.931-8.95-3.402-0.554-0.084-1.125-0.121-1.695-0.121" fill="#fff"/>
      </g>
     </g>
     <path d="m451.5 204.5h-37v32h37v-32z" fill="#fff"/>
    </g>
   </g>
   <g transform="matrix(1.25 0 0 -1.25 -503.7 369.37)">
    <path d="m0 0c-1.412 1.781-2.893 3.485-4.45 5.04-0.37 0.372-0.748 0.731-1.127 1.081-0.06 0.027-0.153 0.067-0.277 0.11-0.679 0.241-1.742 0.461-2.788 0.623-4.322 0.635-9.093 0.785-13.774 0.873-9.427 0.127-18.949-0.185-28.455-0.63-19.022-0.933-38.056-2.469-56.995-4.529-9.466-1.043-18.917-2.222-28.274-3.692-4.673-0.741-9.33-1.552-13.878-2.536-2.267-0.495-4.517-1.034-6.639-1.665-1.055-0.316-2.086-0.658-2.979-1.026-0.443-0.18-0.851-0.373-1.14-0.536-0.071-0.039-0.132-0.076-0.181-0.107-1.123-1.521-2.144-3.046-3.115-4.659-0.999-1.679-1.895-3.436-2.757-5.225-1.697-3.592-3.161-7.36-4.563-11.189-1.428-3.819-2.793-7.701-4.304-11.55-0.743-1.93-1.515-3.855-2.317-5.774-0.379-0.912-0.756-1.826-1.152-2.733h12.843c6.941 15.458 19.983 33.225 30.923 37.701 3.017 1.235 51.551 7.266 83.622 7.266 11.887 0 20.126-0.869 24.486-2.552 13.142-5.072 39.272-29.296 41.985-42.415h7.453c-1.552 8.257-4.481 16.451-8.004 24.282-3.864 8.458-8.506 16.665-14.139 23.842" fill="#ba8449"/>
   </g>
   <g transform="matrix(1.25 0 0 -1.25 -510.8 361.6)">
    <path d="m0 0-0.017 0.014-0.033 0.028 0.061-0.054 0.007-0.005-0.018 0.017z" fill="#ba8449"/>
   </g>
   <g transform="matrix(1.25 0 0 -1.25 -510.86 361.55)">
    <path d="m0 0 0.033-0.028 0.017-0.014 0.017-0.017-0.006 0.005-0.061 0.054zm26.758-26.996c-4.039 8.959-8.813 17.585-14.952 25.526-1.549 1.978-3.198 3.907-5.016 5.747-0.454 0.46-0.922 0.913-1.4 1.361l-0.274 0.247-0.202 0.165-0.287 0.214c-0.292 0.203-0.554 0.353-0.801 0.485-0.493 0.259-0.915 0.427-1.318 0.574-1.582 0.554-2.882 0.783-4.195 1.007-5.152 0.781-9.976 0.928-14.859 1.061-9.718 0.192-19.343-0.067-28.963-0.455-19.23-0.822-38.39-2.247-57.53-4.205-9.57-0.994-19.131-2.124-28.698-3.565-4.786-0.728-9.57-1.527-14.386-2.537-2.411-0.512-4.824-1.068-7.296-1.785-1.239-0.364-2.487-0.761-3.813-1.293-0.665-0.27-1.35-0.572-2.108-0.988-0.381-0.211-0.781-0.452-1.23-0.779-0.442-0.33-0.953-0.735-1.534-1.47l-0.015-0.019c-1.363-1.728-2.676-3.581-3.867-5.445-1.209-1.865-2.363-3.75-3.425-5.667-2.152-3.822-4.057-7.704-5.814-11.605-1.724-3.914-3.296-7.851-4.643-11.849-0.685-1.994-1.316-4-1.905-6.018-0.299-1.008-0.589-2.015-0.86-3.03l-0.4-1.521-0.178-0.76c-0.018-0.131 0.244-0.34 0.87-0.697l0.169-0.083h8.731c0.396 0.907 0.773 1.821 1.152 2.734 0.802 1.918 1.573 3.843 2.316 5.773 1.512 3.85 2.876 7.731 4.305 11.55 1.401 3.829 2.865 7.597 4.563 11.189 0.862 1.789 1.757 3.546 2.756 5.225 0.972 1.613 1.993 3.138 3.116 4.659 0.048 0.031 0.11 0.068 0.18 0.107 0.289 0.164 0.698 0.356 1.141 0.537 0.892 0.367 1.924 0.71 2.978 1.025 2.122 0.631 4.372 1.17 6.64 1.665 4.548 0.984 9.205 1.795 13.878 2.536 9.356 1.47 18.808 2.65 28.273 3.692 18.94 2.06 37.974 3.596 56.996 4.529 9.505 0.445 19.028 0.758 28.455 0.63 4.68-0.088 9.452-0.238 13.774-0.873 1.046-0.161 2.108-0.382 2.787-0.622 0.124-0.043 0.218-0.083 0.277-0.111 0.379-0.35 0.757-0.709 1.127-1.081 1.558-1.555 3.039-3.259 4.451-5.04 5.632-7.177 10.275-15.384 14.142-23.842 3.524-7.831 6.452-16.025 8.005-24.282h7.502c-0.756 4.668-1.919 9.187-3.323 13.599-1.509 4.706-3.291 9.296-5.292 13.785" fill="#895b2e"/>
   </g>
   <g transform="matrix(1.25 0 0 -1.25 -539.17 380.02)">
    <path d="m0 0c-4.015 1.55-11.89 2.335-23.406 2.335-32.267 0-79.888-6.102-82.492-7.076-9.79-4.005-21.961-20.518-28.696-34.86h174.62c-2.726 11.279-27.011 34.58-40.02 39.601" fill="#fff8ee"/>
   </g>
   <g transform="matrix(1.25 0 0 -1.25 -537.82 376.5)">
    <path d="m0 0c-4.36 1.683-12.599 2.552-24.486 2.552-32.071 0-80.605-6.031-83.622-7.266-10.94-4.476-23.982-22.243-30.923-37.701h3.357c6.735 14.342 18.905 30.854 28.695 34.859 2.605 0.975 50.226 7.077 82.493 7.077 11.516 0 19.391-0.786 23.406-2.335 13.009-5.021 37.294-28.323 40.03-39.601h3.035c-2.723 13.119-28.853 37.343-41.995 42.415" fill="#e5d0ae"/>
   </g>
   <g transform="matrix(1.25 0 0 -1.25 -463.28 378.06)">
    <path d="m0 0c-1.834-3.667-11.314-13.457-19.333-11.167-4.205 1.201-3.429-21.028 6.232-30h17.541c4.82 7.659 12.368 31.232 13.227 33.667 1 2.833-15.833 11.167-17.667 7.5" fill="#ba8449"/>
   </g>
   <g transform="matrix(1.25 0 0 -1.25 -440.06 385.03)">
    <path d="m0 0c-0.218 4.844-3.24 8.272-8.294 9.409-4.065 0.914-9.537 0.155-10.888-2.396-2.684-5.071-6.026-11.382-22.529-12.105-1.103-0.048-1.959-0.982-1.91-2.086 0.048-1.103 0.98-1.94 2.086-1.91 17.23 0.755 22.234 7.362 25.82 14.101 0.809 0.602 4.803 1.376 8.089 0.008 2.329-0.97 3.517-2.671 3.63-5.201 0.422-9.386-9.335-26.685-14.681-35.41h4.683c6.037 10.082 14.428 25.942 13.994 35.59" fill="#895b2e"/>
   </g>
   <g transform="matrix(1.25 0 0 -1.25 -1089.1 725.15)">
    <g opacity=".14999" clip-path="url(#an)">
     <g transform="translate(485.34 236)">
      <path d="m0 0c10.666 2.499 20.166 13.166 20.999 28.499 0.154 2.844-5.667 8.334-5.667 9.834s18-0.333 18.834-4.5-11.165-29.666-15.166-33.833-25.242-1.463-19 0" fill="#e3ab5e"/>
     </g>
    </g>
   </g>
   <g transform="matrix(1.25 0 0 -1.25 -471.82 365.15)">
    <path d="m0 0c-1.333-9.333 16.934-22.228 29.167-21.833 10.333 0.333 21.833 5.167 20.166 10.833-1.705 5.796-11.667-1-12.5 3s11.667 11.334 6.667 16.667c-4.616 4.923-10-7.833-15.5-6-5.452 1.817 1.065 14.299-5.667 15-8 0.833-5-17-11-17.333-4.329-0.24-10.898 2.708-11.333-0.334" fill="#fcd4c3"/>
   </g>
   <g transform="matrix(1.25 0 0 -1.25 -471.82 365.15)">
    <path d="m0 0c-1.333-9.333 16.934-22.228 29.167-21.833 10.333 0.333 21.833 5.167 20.166 10.833-1.705 5.796-11.667-1-12.5 3s11.667 11.334 6.667 16.667c-4.616 4.923-10-7.833-15.5-6-5.452 1.817 1.065 14.299-5.667 15-8 0.833-5-17-11-17.333-4.329-0.24-10.898 2.708-11.333-0.334z" stroke="#f8a38f" stroke-miterlimit="10" stroke-width="2" fill="none"/>
   </g>
   <g transform="matrix(1.25 0 0 -1.25 -1089.1 725.15)">
    <g opacity=".5" clip-path="url(#am)">
     <g transform="translate(498.94 288.04)">
      <path d="m0 0c1.979-1.458 8.979-3.459 10.146-0.876s2.166 7.625 1.333 8.375c-0.541-2.375-1.311-6.884-3.958-7.895-2.021-0.771-6.125 0.167-7.521 0.396" fill="#fcd4c3"/>
     </g>
    </g>
   </g>
   <g transform="matrix(1.25 0 0 -1.25 -1089.1 725.15)">
    <g opacity=".5" clip-path="url(#al)">
     <g transform="translate(518.46 298.04)">
      <path d="m0 0c-0.354-1.646-1.625-9.459 2.333-10.543 3.508-0.961 6.042 1.167 8.75 5.625-1.458-1.417-5.208-4.645-8.208-3.374-2.741 1.161-3.104 4.292-2.875 8.292" fill="#fcd4c3"/>
     </g>
    </g>
   </g>
   <g transform="matrix(1.25 0 0 -1.25 -1089.1 725.15)">
    <g opacity=".25" clip-path="url(#ak)">
     <g transform="translate(500.88 276.96)">
      <path d="m0 0c20.5 9.999 24.667-6.293 23.667-9.626-8-1.416-22.417 6.959-23.667 9.626" fill="#fcd4c3"/>
     </g>
    </g>
   </g>
   <g transform="matrix(1.25 0 0 -1.25 -1089.1 725.15)">
    <g opacity=".5" clip-path="url(#aj)">
     <g transform="translate(530.75 283.4)">
      <path d="m0 0c-3.542-3.938-1.752-7.074 0.458-7.479 2.958-0.542 6.542 2.338 6.083 2.375-0.812 0.063-6.353-1.896-7.416 0.875-0.802 2.089 0.479 3.292 0.875 4.229" fill="#fcd4c3"/>
     </g>
    </g>
   </g>
   <g transform="matrix(1.25 0 0 -1.25 -1089.1 725.15)">
    <g opacity=".14999" clip-path="url(#ai)">
     <g transform="translate(296.83 257.17)">
      <path d="m0 0c65.75-37.75 196.48 0.562 189.5 13-9.167 16.333-12.834 26.709-32.959 25.709s-149-11.25-154.25-15.25c-5.249-4-10.897-18.518-2.29-23.459" fill="#e3ab5e"/>
     </g>
    </g>
   </g>
   <g transform="matrix(1.25 0 0 -1.25 -538.8 119.83)">
    <path d="m0 0c29.5 2.75 46.751 33.333 64.751 28.583-12-7.5-24.001-22.583-40.751-47.333-3.934-5.812-32.035 18.001-24 18.75" fill="#fff8ee"/>
   </g>
   <g transform="matrix(1.25 0 0 -1.25 -538.8 119.83)">
    <path stroke-linejoin="round" d="m0 0c29.5 2.75 46.751 33.333 64.751 28.583-12-7.5-24.001-22.583-40.751-47.333-3.934-5.812-32.035 18.001-24 18.75z" stroke="#e5d0ae" stroke-linecap="round" stroke-miterlimit="10" stroke-width="3" fill="none"/>
   </g>
   <g transform="matrix(1.25 0 0 -1.25 -769.43 111.4)">
    <path d="m0 0c13.333 12.333 37.168 7.529 56.5 0.5 11-4 25.25-0.75 26.25-3 2.361-5.314-11.875-16.125-23.625-15.875s-31.125 22.125-59.125 18.375" fill="#ba8449"/>
   </g>
   <g transform="matrix(1.25 0 0 -1.25 -769.43 111.4)">
    <path stroke-linejoin="round" d="m0 0c13.333 12.333 37.168 7.529 56.5 0.5 11-4 25.25-0.75 26.25-3 2.361-5.314-11.875-16.125-23.625-15.875s-31.125 22.125-59.125 18.375z" stroke="#895b2e" stroke-linecap="round" stroke-miterlimit="10" stroke-width="2" fill="none"/>
   </g>
   <g transform="matrix(1.25 0 0 -1.25 -513.49 137.96)">
    <path d="m0 0c6.75-2 32.5 48.5 45 43.5 39.774-15.91-12-76.75-28.5-78s-20.365 35.645-16.5 34.5" fill="#fcd4c3"/>
   </g>
   <g transform="matrix(1.25 0 0 -1.25 -513.49 137.96)">
    <path d="m0 0c6.75-2 32.5 48.5 45 43.5 39.774-15.91-12-76.75-28.5-78s-20.365 35.645-16.5 34.5z" stroke="#f8a38f" stroke-miterlimit="10" stroke-width="2" fill="none"/>
   </g>
   <g transform="matrix(1.25 0 0 -1.25 -693.18 130.46)">
    <path d="m0 0c-11-4.75-50 36-66.5 9.75-10.86-17.278 22-52.25 45.5-56s26.811 48.759 21 46.25" fill="#fcd4c3"/>
   </g>
   <g transform="matrix(1.25 0 0 -1.25 -693.18 130.46)">
    <path d="m0 0c-11-4.75-50 36-66.5 9.75-10.86-17.278 22-52.25 45.5-56s26.811 48.759 21 46.25z" stroke="#f8a38f" stroke-miterlimit="10" stroke-width="2" fill="none"/>
   </g>
   <g transform="matrix(1.25 0 0 -1.25 -1089.1 725.15)">
    <g clip-path="url(#ah)">
     <g transform="translate(491.17 503.5)">
      <path d="m0 0c-2.167-6.917-19.917-24.833-17.417-40.25 0.919-5.666 6.999-22.584 9.583-21.917s9.083 4.667 8.5 3.75-9-7.166-12.25-8.75c-3.083 1.667-16.597 32.765-14.666 34.5 5.75 5.167 23.75 32.334 26.25 32.667" fill="#fcd4c3"/>
     </g>
    </g>
   </g>
   <g transform="matrix(1.25 0 0 -1.25 -1089.1 725.15)">
    <g clip-path="url(#ag)">
     <g transform="translate(250.83 484.5)">
      <path d="m0 0c12 7.333 34 4.25 46.75-8.25 4.542-4.453 5.834-19.583-4.416-29.917-4.067-4.101 24.167 14.5 24.25 19.917 0.083 5.416-1.836 6.953-6 8.5-15.48 5.75-31.771 18.916-45.917 18.625-9.1-0.187-13.417-6.542-14.667-8.875" fill="#fcd4c3"/>
     </g>
    </g>
   </g>
   <g transform="matrix(1.25 0 0 -1.25 -1089.1 725.15)">
    <g opacity=".25" clip-path="url(#af)">
     <g transform="translate(496 507.38)">
      <path d="m0 0c27.375-15.125-16.75-38-13.5-66.5-5.75 0.625-19.891 28.191-16.375 30.625 4.875 3.375 25.287 37.145 29.875 35.875" fill="#fcd4c3"/>
     </g>
    </g>
   </g>
   <g transform="matrix(1.25 0 0 -1.25 -733.47 206.6)">
    <path d="m0 0c0.442 1.999 0.693 4.043 0.847 6.125 0.163 2.078 0.298 4.18 0.675 6.224 0.122 1.042 0.453 2.026 0.903 2.971 0.398 0.961 0.748 1.937 1.133 2.901 0.757 1.931 1.551 3.85 2.382 5.753 3.371 7.592 7.446 14.885 12.189 21.664 4.725 6.789 10.092 13.088 16.192 18.593 6.076 5.529 13.108 10.026 20.699 13.159 7.577 3.173 15.618 5.122 23.728 6.115 8.111 1.042 16.29 1.254 24.408 1.131 8.135-0.089 16.29-0.544 24.411-1.646 8.112-1.115 16.214-2.837 24.036-5.719 3.907-1.438 7.734-3.186 11.387-5.306 3.651-2.125 7.085-4.688 10.184-7.636 3.098-2.948 5.833-6.308 8.094-9.945 2.252-3.646 4.008-7.557 5.398-11.533 1.392-3.979 2.41-8.03 3.286-12.034 0.891-3.998 1.548-7.989 2.486-11.752 0.475-1.898 0.987-3.65 1.707-5.407 0.753-1.883 1.48-3.777 2.194-5.677 1.431-3.797 2.827-7.61 4.181-11.439 5.322-15.339 9.92-30.999 12.806-47.021 1.416-8.006 2.39-16.109 2.539-24.235 0.111-8.109-0.565-16.299-2.915-24.06-0.564-1.943-1.248-3.847-2.002-5.721-0.719-1.897-1.743-3.634-2.392-5.586-0.337-0.972-0.655-1.973-1.119-2.892-0.462-0.922-1.024-1.784-1.583-2.649-1.125-1.725-2.358-3.385-3.685-4.972-5.328-6.35-12.1-11.442-19.357-15.411-7.282-3.967-15.03-6.948-22.914-9.229-7.887-2.293-15.891-4.028-23.919-5.485-8.029-1.449-16.092-2.603-24.165-3.578-4.035-0.496-8.078-0.896-12.12-1.289l-6.069-0.552c-1.99-0.169-4.064-0.358-6.144-0.467-16.611-0.916-33.177 1.453-49.029 5.88-7.933 2.223-15.711 4.98-23.272 8.263-7.556 3.298-14.915 7.088-21.891 11.666-3.481 2.304-6.871 4.791-10.048 7.718-0.784 0.726-1.586 1.515-2.319 2.302-0.739 0.8-1.421 1.57-2.114 2.376-1.371 1.607-2.682 3.274-3.917 5.004-4.951 6.888-8.633 14.987-9.899 23.578-1.305 8.59-0.169 17.325 2.297 25.351 2.476 8.062 6.13 15.559 10.155 22.701 4.036 7.144 8.476 13.961 12.631 20.826 2.086 3.423 4.098 6.864 5.857 10.361 1.751 3.502 3.277 7.017 4.076 10.614l-0.014-0.03zm5.953-1.383c-1.024-4.293-2.819-8.221-4.724-11.91-1.934-3.694-4.04-7.214-6.154-10.693-4.266-6.93-8.595-13.702-12.425-20.683-3.829-6.963-7.236-14.123-9.373-21.574-2.158-7.425-2.97-15.144-1.754-22.565 1.148-7.431 4.362-14.453 8.862-20.641 1.122-1.551 2.32-3.056 3.582-4.515 0.628-0.722 1.292-1.459 1.927-2.14 0.645-0.691 1.286-1.318 1.983-1.965 2.77-2.552 5.913-4.869 9.171-7.019 6.544-4.29 13.606-7.931 20.861-11.089 7.267-3.148 14.762-5.8 22.393-7.931 7.632-2.129 15.405-3.738 23.242-4.729 7.834-0.992 15.735-1.401 23.584-1.013 1.957 0.092 3.908 0.258 5.945 0.418l6.006 0.511c4.006 0.352 8.003 0.767 11.998 1.174 7.989 0.832 15.951 1.841 23.85 3.134 7.899 1.289 15.732 2.889 23.416 4.94 7.67 2.075 15.245 4.47 22.432 7.732 7.165 3.259 14.001 7.386 19.629 12.967 1.405 1.392 2.731 2.868 3.966 4.421 0.629 0.771 1.195 1.585 1.809 2.374 0.621 0.784 1.32 1.531 1.962 2.326 1.3 1.587 2.008 3.509 2.797 5.362 0.756 1.873 1.37 3.802 1.899 5.749 2.019 7.826 2.488 15.969 1.929 23.983-0.522 8.03-1.959 15.968-3.858 23.774-3.809 15.623-9.345 30.762-15.249 45.717-1.466 3.746-2.975 7.474-4.519 11.19l-2.321 5.574c-0.845 1.971-1.507 4.097-2.041 6.11-1.06 4.07-1.837 8.04-2.683 11.933-0.844 3.889-1.801 7.691-3.073 11.346-2.523 7.301-6.394 13.991-11.829 19.34-5.422 5.351-12.176 9.381-19.416 12.353-7.257 2.971-14.999 4.919-22.846 6.279-7.859 1.349-15.851 2.118-23.868 2.505-8.028 0.346-16.059 0.401-24.009-0.44-7.931-0.879-15.796-2.593-23.147-5.659-7.337-3.071-14.128-7.409-19.957-12.815-5.828-5.42-10.493-12.007-14.089-19.063-3.601-7.072-6.206-14.582-8.371-22.166-0.551-1.895-1.07-3.799-1.551-5.713-0.232-0.96-0.493-1.91-0.679-2.883-0.093-0.486-0.156-0.982-0.293-1.455-0.126-0.476-0.334-0.928-0.523-1.387-0.737-1.839-1.662-3.637-2.492-5.476-0.843-1.834-1.535-3.719-1.988-5.661l-0.008-0.035z" fill="#e5d0ae"/>
   </g>
   <g transform="matrix(1.25 0 0 -1.25 -729.74 207.44)">
    <path d="m0 0c-6.334-28-61.667-72.333-19.667-117.67 14.305-15.44 60.715-39.063 107.33-34.667 121.08 11.417 151.67 40.667 100.67 166-8.292 20.377 1 67.332-88 69.999-37.368 1.128-82.309-3.998-100.33-83.659" fill="#fff8ee"/>
   </g>
   <g transform="matrix(1.25 0 0 -1.25 -703.47 138.95)">
    <path d="m0 0c3.856 6.01 9.092 10.966 14.848 14.994 5.771 4.041 12.128 7.139 18.693 9.529 13.176 4.757 27.147 6.706 41.007 7.026 13.841 0.253 27.831-0.732 41.469-4.281 6.799-1.79 13.487-4.268 19.772-7.66 6.274-3.395 12.107-7.75 17.093-12.954 4.989-5.2 9.115-11.217 12.26-17.644 3.141-6.435 5.388-13.22 7.009-20.06 1.621-6.844 2.637-13.756 3.582-20.523 0.468-3.377 0.914-6.74 1.561-9.901 0.327-1.57 0.711-3.1 1.211-4.404 0.125-0.325 0.257-0.632 0.393-0.916l0.103-0.204 0.106-0.2 0.303-0.537 1.276-2.29c6.655-12.27 11.678-25.658 13.494-39.662 0.919-6.982 1.042-14.084 0.228-21.083-0.81-6.996-2.56-13.875-5.213-20.368-1.323-3.247-2.873-6.398-4.616-9.423-0.435-0.756-0.883-1.504-1.338-2.244-0.476-0.76-0.859-1.415-1.438-2.262-0.089-0.119-0.153-0.219-0.348-0.432-0.435 0.269 0.661-1.069-2.398-0.038-0.75 1.364-0.276 1.104-0.398 1.344 0.065 0.45 0.13 0.615 0.195 0.863l0.4 1.273 0.799 2.44c2.087 6.456 3.851 13.016 4.611 19.704 0.357 3.337 0.455 6.703 0.07 9.997-0.385 3.281-1.286 6.52-3.036 9.248-0.448 0.693-0.902 1.301-1.463 1.928-0.56 0.626-1.138 1.233-1.729 1.829-1.187 1.186-2.432 2.313-3.742 3.356-2.61 2.105-5.504 3.839-8.557 5.201-6.128 2.73-12.91 3.707-19.601 3.504-6.714-0.226-13.349-1.621-19.853-3.453-3.26-0.91-6.488-1.952-9.752-3-1.637-0.52-3.276-1.046-4.987-1.508-0.863-0.23-1.718-0.443-2.682-0.604-0.91-0.137-1.728-0.234-2.599-0.344-6.865-0.838-13.802-1.24-20.75-1.074-6.944 0.171-13.905 0.895-20.739 2.358-6.827 1.478-13.524 3.67-19.884 6.637-6.357 2.965-12.376 6.696-17.825 11.138-5.431 4.461-10.298 9.596-14.489 15.22-8.384 11.261-14.011 24.417-16.786 38.088-1.368 6.846-2.013 13.848-1.709 20.867 0.166 3.507 0.588 7.022 1.405 10.488 0.827 3.449 2.033 6.913 4.036 10.024l0.01 0.02zm2.979-1.909c-1.701-2.661-2.781-5.756-3.527-8.947-0.737-3.198-1.122-6.507-1.261-9.83-0.282-6.656 0.455-13.373 1.862-19.916 2.832-13.098 8.498-25.579 16.534-36.222 4.017-5.322 8.659-10.162 13.825-14.354 5.144-4.22 10.806-7.807 16.829-10.662 6.022-2.86 12.392-4.998 18.924-6.459 6.528-1.483 13.219-2.322 19.945-2.597 6.729-0.275 13.493-0.001 20.219 0.703l2.493 0.283c0.726 0.1 1.539 0.273 2.333 0.465 1.604 0.386 3.236 0.86 4.872 1.334 3.276 0.956 6.587 1.928 9.94 2.769 6.703 1.677 13.622 2.826 20.604 2.814 6.966 0.042 14.016-1.243 20.379-4.175 3.186-1.443 6.168-3.313 8.913-5.465 1.372-1.078 2.675-2.241 3.915-3.465 0.618-0.615 1.223-1.242 1.808-1.886 0.591-0.637 1.185-1.387 1.676-2.123 2.017-3.015 3.049-6.529 3.53-10.009 0.479-3.498 0.438-7.016 0.14-10.482-0.588-6.942-2.186-13.721-4.103-20.333l-0.711-2.464-0.32-1.189c-0.043-0.165-0.091-0.414-0.08-0.389-0.131 0.137 0.326-0.239-0.37 1.03-2.956 0.975-1.773-0.234-2.139 0.098-0.051-0.055 0.009 0.02 0.043 0.076 0.363 0.579 0.823 1.415 1.224 2.122 0.411 0.736 0.811 1.473 1.199 2.216 1.551 2.97 2.902 6.031 4.032 9.17 4.561 12.565 5.418 26.237 3.134 39.304-1.117 6.548-3.006 12.952-5.384 19.169-2.37 6.225-5.319 12.234-8.619 18.052l-1.253 2.173-0.336 0.576-0.202 0.362-0.191 0.366c-0.242 0.482-0.454 0.959-0.642 1.43-0.75 1.883-1.207 3.68-1.608 5.45-0.775 3.531-1.272 6.951-1.794 10.341-0.985 6.772-1.994 13.41-3.559 19.878-1.547 6.461-3.582 12.757-6.432 18.632-2.823 5.879-6.411 11.353-10.832 16.095-8.821 9.546-20.792 15.891-33.542 19.541-12.8 3.695-26.356 4.938-39.838 4.952-13.455-0.058-26.986-1.659-39.691-5.927-6.332-2.141-12.439-4.971-17.959-8.674-5.51-3.696-10.391-8.345-13.991-13.835l0.008 0.013z" fill="#e5bfa1"/>
   </g>
   <g transform="matrix(1.25 0 0 -1.25 -705.77 137.91)">
    <path d="m0 0c2.244 3.547 4.92 6.475 7.766 9.125 2.852 2.641 5.899 4.972 9.067 7.075 6.34 4.202 13.158 7.496 20.203 10.052 14.13 5.034 29.158 7.003 43.899 6.59 14.593-0.401 29.415-2.255 43.53-7.335 7.032-2.545 13.848-5.946 20.018-10.37 6.174-4.408 11.65-9.859 16.052-16.029 4.421-6.164 7.766-12.991 10.225-20.006 2.468-7.023 4.053-14.24 5.243-21.4 0.596-3.581 1.092-7.154 1.586-10.68 0.501-3.514 0.979-7.021 1.711-10.266 0.367-1.608 0.817-3.168 1.393-4.38l0.107-0.219 0.113-0.212 0.315-0.564 0.665-1.194 1.297-2.408c1.704-3.225 3.291-6.516 4.743-9.871 2.903-6.707 5.271-13.675 6.879-20.84 1.599-7.161 2.446-14.514 2.359-21.872-0.131-14.699-4.168-29.425-11.962-41.848l-0.001-0.001c-0.555-0.953-1.777-1.278-2.73-0.723-0.866 0.503-1.213 1.556-0.856 2.459l0.018 0.044c2.113 5.367 4.355 10.555 6.089 15.865 1.73 5.287 3.022 10.705 3.049 16.028 0.057 5.309-1.382 10.429-4.502 14.474-0.195 0.251-0.39 0.511-0.582 0.733l-0.289 0.348-0.355 0.4c-0.413 0.468-0.864 0.921-1.336 1.37-0.945 0.896-1.981 1.757-3.053 2.589-2.152 1.661-4.458 3.212-6.816 4.699-9.486 5.929-19.657 11.041-29.844 16.041-10.216 4.976-20.554 9.758-30.913 14.52-20.728 9.515-41.541 18.941-62.051 29.273-10.24 5.207-20.419 10.595-30.283 16.897-4.919 3.191-9.778 6.549-14.343 10.808-2.26 2.173-4.505 4.514-6.324 7.808-0.882 1.655-1.677 3.629-1.849 6.017-0.084 1.181 0.014 2.449 0.326 3.661 0.156 0.605 0.358 1.196 0.602 1.757 0.196 0.48 0.671 1.33 0.774 1.487l0.05 0.09zm8.378-5.151c-0.274-0.449-0.137-0.228-0.232-0.399-0.044-0.092-0.074-0.177-0.101-0.261-0.05-0.168-0.076-0.339-0.068-0.581 0.007-0.47 0.219-1.236 0.665-2.096 0.891-1.744 2.541-3.682 4.365-5.469 3.715-3.608 8.205-6.885 12.8-9.972 9.261-6.161 19.178-11.658 29.18-16.97 20.059-10.591 40.693-20.31 61.214-30.321 10.27-4.995 20.539-10.019 30.73-15.26 10.173-5.28 20.327-10.636 30.061-17.033 2.425-1.62 4.818-3.316 7.134-5.203 1.157-0.947 2.295-1.941 3.393-3.037 0.546-0.549 1.089-1.121 1.604-1.735l0.345-0.409 0.385-0.484c0.263-0.326 0.49-0.642 0.723-0.961 1.847-2.561 3.239-5.479 4.064-8.514 0.838-3.038 1.119-6.164 1.031-9.211-0.202-6.119-1.79-11.899-3.736-17.383-1.956-5.494-4.387-10.732-6.588-15.924l-3.569 1.779v0.001c7.069 12.003 10.456 25.949 10.201 39.781-0.222 13.868-3.974 27.525-9.792 40.156-1.458 3.163-3.046 6.27-4.747 9.318l-2.718 4.754c-0.995 1.997-1.539 3.891-2.021 5.744-0.92 3.702-1.476 7.268-2.068 10.804-0.578 3.53-1.145 7.016-1.802 10.463-1.303 6.887-2.978 13.626-5.375 20.033-2.385 6.404-5.518 12.46-9.525 17.831-3.998 5.377-8.868 10.04-14.383 13.825-5.513 3.795-11.643 6.723-18.069 8.912-12.892 4.372-26.812 5.901-40.706 6.009-6.892 0.072-13.731-0.376-20.488-1.45-6.749-1.059-13.394-2.687-19.773-4.99-6.383-2.267-12.542-5.161-18.139-8.799-2.796-1.815-5.454-3.814-7.861-5.999-2.399-2.178-4.575-4.573-6.172-7.051l0.06 0.098z" fill="#895b2e"/>
   </g>
   <g transform="matrix(1.25 0 0 -1.25 -701.62 140.15)">
    <path d="m0 0c-16.542-25.563 3.25-124 107.25-110.75 11.016 1.403 47.593 20.896 72.25-6.5 13.5-15-4.717-53.112 0-45.25 5.25 8.75 25.5 42.5-4.75 94.5-9.699 16.673 6.252 97.083-97.916 98-40.031 0.352-65.833-13-76.834-30" fill="#ba8449"/>
   </g>
   <g transform="matrix(1.25 0 0 -1.25 -1089.1 725.15)">
    <g opacity=".14999" clip-path="url(#ae)">
     <g transform="translate(307.17 461.83)">
      <path d="m0 0c30 19.333 120.67 18 149.67-28.333 19.276-30.798-16-106.67-29-116.33-13-9.666-31.1-18.066-78.666-6.666-40.333 9.667 20.395 47.197-27 52.666-43.334 5-47.6 77.658-15 98.667" fill="#e3ab5e"/>
     </g>
    </g>
   </g>
   <g transform="matrix(1.25 0 0 -1.25 -1089.1 725.15)">
    <g opacity=".25" clip-path="url(#ad)">
     <g transform="translate(391 387.17)">
      <path d="m0 0c0-2.301-4.402-4.166-9.834-4.166-5.431 0-9.833 1.865-9.833 4.166 0 2.302 4.402 4.167 9.833 4.167 5.432 0 9.834-1.865 9.834-4.167" fill="#e3ab5e"/>
     </g>
    </g>
   </g>
   <g transform="matrix(1.25 0 0 -1.25 -621.93 225.77)">
    <path d="m0 0c2.25 1.5 14.25 1 15.75-0.5s4.875-7.875 1-10.5c-1.325-0.897-1.427 2.86-4.375 2.25-3.625-0.75-1.706-5.455-4.5-5.375-4.375 0.125-0.164 5.083-4 5.75-2.875 0.5-3.52-2.217-4.75-2-4.25 0.75-2.272 8.276 0.875 10.375" fill="#f8a38f"/>
   </g>
   <g transform="matrix(1.25 0 0 -1.25 -1089.1 725.15)">
    <g clip-path="url(#ac)">
     <g transform="translate(380.22 400.41)">
      <path d="m0 0c-2.875 0-5.528-0.277-6.471-0.905-3.147-2.099-5.125-9.625-0.875-10.375 0.047-0.009 0.094-0.013 0.14-0.013 1.043 0 1.719 2.074 3.927 2.074 0.213 0 0.44 0.043 0.683 0.001 3.836-0.667-0.375-5.687 4-5.687h0.07c2.692 0 0.837 4.57 4.43 5.312 0.224 0.047 0.431 0.036 0.623 0.036 2.075 0 2.456-2.472 3.362-2.472 0.119 0 0.248 0.035 0.39 0.132 3.875 2.625 0.5 8.996-1 10.496-0.872 0.872-5.289 1.402-9.279 1.401m0.001-1c4.525 0 8.044-0.65 8.571-1.112 0.965-0.965 2.715-4.174 2.483-6.615-0.089-0.932-0.451-1.647-1.106-2.178-0.072 0.094-0.151 0.205-0.218 0.299-0.539 0.754-1.44 2.018-3.204 2.018-0.265 0-0.543-0.029-0.826-0.088-2.515-0.52-3.033-2.504-3.376-3.858-0.346-1.367-0.471-1.371-0.887-1.371h-0.005c-1.231 0-1.26 0.221-1.228 1.717 0.027 1.303 0.074 3.455-2.629 3.924-0.292 0.051-0.579 0.061-0.855 0.061-1.706 0-2.722-0.968-3.394-1.603-0.173-0.164-0.427-0.408-0.553-0.475-0.524 0.102-1.217 0.389-1.468 1.585-0.457 2.177 0.971 5.755 2.778 6.96 0.551 0.367 2.594 0.736 5.917 0.736" fill="#f8a38f"/>
     </g>
    </g>
   </g>
   <g transform="matrix(1.25 0 0 -1.25 -1089.1 725.15)">
    <g opacity=".25" clip-path="url(#ab)">
     <g transform="translate(474.1 359.95)">
      <path d="m0 0c4.437-28.923-31.663-65.327-80.266-72.784-48.6-7.456-84.563 36.077-89 65-4.437 28.921 25.4 17.878 74 25.334 48.607 7.457 90.832 11.371 95.27-17.55" fill="#f7e8d0"/>
     </g>
    </g>
   </g>
   <g transform="matrix(1.25 0 0 -1.25 -1089.1 725.15)">
    <g opacity=".5" clip-path="url(#aa)">
     <g transform="translate(347.21 315.98)">
      <path d="m0 0c-1.358 2.16-2.143 4.604-2.922 7.008-0.782 2.412-1.46 4.854-2.211 7.272-1.487 4.835-3.134 9.64-5.397 14.123-2.237 4.482-5.143 8.676-8.763 11.903-3.642 3.198-7.997 5.217-12.592 6.217h-0.003l-0.054-0.033c-1.567 0.541-2.397 2.223-1.856 3.789 0.506 1.466 2.049 2.271 3.527 1.926 10.876-2.576 22.11-3.76 33.368-4.001 11.264-0.235 22.571 0.46 33.804 1.81 11.236 1.356 22.406 3.364 33.459 5.891 11.04 2.542 22.02 5.558 32.694 9.204 1.569 0.537 3.275-0.302 3.811-1.871 0.406-1.189 0.024-2.457-0.869-3.235l-0.049-0.041-0.002-0.002c-0.371-0.26-0.85-0.707-1.306-1.178-0.461-0.477-0.925-1-1.381-1.54-0.914-1.081-1.807-2.233-2.68-3.407-1.723-2.362-3.378-4.825-4.997-7.314-3.232-4.987-6.25-10.138-9.191-15.332-2.902-5.214-5.677-10.505-8.28-15.874-1.306-2.681-2.533-5.4-3.657-8.15-0.559-1.375-1.091-2.761-1.556-4.156-0.232-0.699-0.446-1.396-0.621-2.102-0.005-0.025-0.033-0.124-0.068-0.222-0.033-0.097-0.076-0.163-0.118-0.243-0.086-0.139-0.18-0.254-0.272-0.349-0.187-0.19-0.372-0.329-0.556-0.452-0.367-0.242-0.731-0.418-1.095-0.582-2.907-1.2-5.854-1.757-8.813-2.342-2.959-0.558-5.927-1.023-8.906-1.406-5.955-0.765-11.939-1.263-17.932-1.492-5.99-0.215-12-0.268-17.977 0.289-2.983 0.286-5.965 0.71-8.866 1.489-1.446 0.396-2.876 0.882-4.22 1.561-1.33 0.678-2.617 1.569-3.445 2.842m0.07 0.047c0.828-1.25 2.104-2.118 3.43-2.781 1.337-0.663 2.763-1.136 4.205-1.519 2.894-0.754 5.869-1.154 8.847-1.415 5.964-0.491 11.964-0.458 17.936-0.105 5.973 0.367 11.928 1.002 17.837 1.901 2.953 0.456 5.899 0.967 8.809 1.616 2.882 0.678 5.841 1.382 8.436 2.578 0.314 0.155 0.618 0.323 0.869 0.503 0.259 0.185 0.421 0.378 0.387 0.417 0.157 0.755 0.356 1.499 0.567 2.231 0.425 1.465 0.915 2.896 1.43 4.317 1.034 2.838 2.18 5.623 3.334 8.402 2.33 5.551 4.854 11.011 7.471 16.429 2.588 5.435 5.324 10.797 8.188 16.124 1.436 2.664 2.92 5.308 4.513 7.928 0.791 1.316 1.609 2.625 2.506 3.93 0.449 0.652 0.918 1.303 1.436 1.96 0.526 0.657 1.068 1.312 1.845 2.016l0.006 0.006 2.895-5.147c-10.964-3.747-22.069-6.792-33.311-9.383-11.24-2.571-22.609-4.616-34.08-6-11.469-1.378-23.046-2.098-34.65-1.856-11.595 0.249-23.237 1.656-34.627 4.354l1.616 5.97h0.004c5.053-3 9.579-5.799 12.968-9.906 3.471-4.041 5.876-8.814 7.778-13.558 1.895-4.766 3.258-9.718 4.541-14.621 0.641-2.452 1.281-4.927 1.985-7.358 0.742-2.411 1.512-4.876 2.836-7.033" fill="#d8cab2"/>
     </g>
    </g>
   </g>
   <g transform="matrix(1.25 0 0 -1.25 -1089.1 725.15)">
    <g opacity=".5" clip-path="url(#z)">
     <g transform="translate(347.23 315.99)">
      <path d="m0 0c-1.354 2.156-2.144 4.598-2.915 7.004-0.76 2.418-1.414 4.865-2.143 7.291-1.462 4.843-2.995 9.686-5.189 14.231-2.147 4.549-4.922 8.667-8.508 12.097-3.578 3.424-7.976 5.889-12.685 6.889h-0.003l-0.027 0.171c-0.783 0.269-1.199 1.204-0.929 1.987 0.253 0.732 1.024 1.184 1.763 1.011 11.005-2.606 22.341-3.773 33.683-4.015 11.349-0.237 22.724 0.478 34.016 1.834 11.294 1.364 22.514 3.387 33.614 5.925 11.092 2.554 22.102 5.58 32.85 9.251 0.785 0.268 1.637-0.149 1.906-0.933 0.204-0.597 0.01-1.233-0.439-1.622l-0.02-0.015-0.003-0.002c-0.961-0.77-1.934-1.915-2.836-3.033-0.91-1.137-1.783-2.329-2.637-3.538-1.701-2.43-3.307-4.941-4.875-7.476-3.13-5.078-6.098-10.27-8.954-15.522-2.826-5.268-5.523-10.609-8.048-16.026-1.258-2.71-2.472-5.442-3.577-8.211-0.551-1.385-1.075-2.78-1.533-4.192-0.227-0.707-0.438-1.414-0.61-2.131-0.135-0.559-0.552-0.836-0.867-1.065-0.34-0.227-0.689-0.401-1.042-0.562-2.834-1.196-5.784-1.785-8.726-2.388-2.947-0.577-5.909-1.056-8.88-1.456-5.944-0.799-11.921-1.331-17.91-1.595-5.985-0.25-11.993-0.298-17.965 0.243-2.983 0.28-5.963 0.699-8.863 1.471-1.445 0.393-2.874 0.875-4.216 1.55-1.329 0.674-2.613 1.559-3.441 2.827m0.035 0.023c0.828-1.255 2.108-2.129 3.434-2.796 1.339-0.667 2.765-1.143 4.209-1.53 2.895-0.759 5.872-1.166 8.851-1.433 5.967-0.507 11.97-0.469 17.947-0.151 5.977 0.332 11.94 0.933 17.861 1.799 2.959 0.439 5.91 0.936 8.831 1.565 2.901 0.66 5.856 1.333 8.524 2.533 0.326 0.157 0.644 0.327 0.923 0.522 0.276 0.199 0.516 0.419 0.534 0.619 0.161 0.744 0.362 1.477 0.577 2.202 0.433 1.448 0.931 2.87 1.456 4.28 1.051 2.819 2.21 5.592 3.412 8.343 2.409 5.502 5.01 10.912 7.704 16.276 2.673 5.376 5.458 10.698 8.425 15.935 1.486 2.618 3.019 5.211 4.651 7.765 0.812 1.28 1.648 2.55 2.549 3.799 0.923 1.249 1.816 2.476 3.133 3.662l0.005 0.004 1.447-2.573c-10.898-3.721-21.971-6.76-33.163-9.339-11.194-2.559-22.513-4.596-33.925-5.974-11.41-1.37-22.92-2.085-34.439-1.844-11.51 0.247-23.05 1.45-34.312 4.116l0.808 2.886 0.003-0.001c4.94-1.927 9.422-4.943 12.874-8.822 3.506-3.84 6.042-8.377 8.033-13.053 1.965-4.705 3.441-9.568 4.75-14.462 0.663-2.446 1.326-4.89 2.053-7.314 0.749-2.41 1.515-4.853 2.843-7.014" fill="#d8cab2"/>
     </g>
    </g>
   </g>
   <g transform="matrix(1.25 0 0 -1.25 -655.05 330.15)">
    <path d="m0 0c7.75-12 70.437-3.736 71.5 1 2.75 12.25 25.25 55.25 32.5 61.25-13-4.5-80.25-26-135-13 24.75-8 24.98-39.929 31-49.25" fill="#333"/>
   </g>
   <g transform="matrix(1.25 0 0 -1.25 -1089.1 725.15)">
    <g clip-path="url(#y)">
     <g transform="translate(451.25,378.25)">
      <path d="m0 0c-10.052-3.479-52.537-17.122-96.599-17.122-12.924 0-25.983 1.174-38.401 4.122 24.75-8 24.98-39.929 31-49.25 2.957-4.578 13.914-6.207 26.391-6.207 20.226 0 44.451 4.277 45.109 7.207 2.75 12.25 25.25 55.25 32.5 61.25m-8.432-5.867c-9.785-14.716-24.002-43.229-26.798-53.92-3.708-2.031-23.159-5.67-42.379-5.67-15.297 0-22.362 2.497-23.87 4.835-1.44 2.228-2.623 6.434-3.992 11.304-2.598 9.243-6.133 21.819-14.779 30.625 7.483-0.951 15.391-1.429 23.651-1.429 35.981 0 71.051 9.067 88.167 14.255" fill="#333"/>
     </g>
    </g>
   </g>
   <g transform="matrix(1.25 0 0 -1.25 -622.76 338)">
    <path d="m0 0c-12.929 0-21.462 1.858-24.678 5.373-0.248 0.298-0.3 2.094 1.166 5.483 3.57 8.251 14.745 22.523 33.988 23.677 1.274 0.076 2.564 0.115 3.836 0.115 22.58 0 36.202-11.463 36.237-13.504-0.252-0.616-0.639-1.54-1.103-2.652-1.217-2.91-3.05-7.298-4.69-12.197-1.991-1.806-24.535-6.295-44.756-6.295" fill="#fcd4c3"/>
   </g>
   <g transform="matrix(1.25 0 0 -1.25 -604.87 293.44)">
    <path d="m0 0c-1.275 0-2.575-0.038-3.896-0.117-26.453-1.587-38.615-27.791-35.832-30.833 3.864-4.223 13.983-5.698 25.416-5.698 20.383 0 44.942 4.69 45.667 6.865 2.25 6.75 4.833 12.416 5.833 15 1.026 2.65-14.319 14.784-37.188 14.783m0.002-2c20.179 0 33.689-9.698 35.159-12.473-0.251-0.628-0.58-1.414-0.949-2.298-1.195-2.858-2.983-7.132-4.604-11.932-3.185-1.804-24.319-5.945-43.92-5.945-12.269 0-20.702 1.739-23.8 4.9-0.155 1.056 0.881 5.226 4.632 10.568 3.367 4.798 13.002 16.065 29.705 17.067 1.253 0.075 2.523 0.113 3.776 0.113h0.001" fill="#f8a38f"/>
   </g>
   <g transform="matrix(1.25 0 0 -1.25 -1089.1 725.15)">
    <g clip-path="url(#x)">
     <g transform="translate(348.08 315.92)">
      <path d="m0 0c-1.73-8.188 48.082 31.749 74.916 12.582 5.5 7.333-24.166 19.918-41.5 17-14.634-2.464-29.666-11.832-33.416-29.582" fill="#fcd4c3"/>
     </g>
    </g>
   </g>
   <g transform="matrix(1.25 0 0 -1.25 -641.3 276.71)">
    <path d="m0 0c2.5-4.5 7.25-26.5 9.25-27s14.25-4 16-3.25 1.628 4.998 3.5 3.75c1.5-1 2.25-3 3.75-2.25 2.684 1.342 10.75 6.25 12 8.5s1 14.75 0 24.75c-5.25-2.25-35.5-5.5-44.5-4.5" fill="#fff7e3"/>
   </g>
   <g transform="matrix(1.25 0 0 -1.25 -1089.1 725.15)">
    <g clip-path="url(#w)">
     <g transform="translate(402.75,363.25)">
      <path d="m0 0c-4.579-1.963-28.181-4.687-40.107-4.687-1.747 0-3.244 0.059-4.393 0.187 2.5-4.5 7.25-26.5 9.25-27 1.808-0.452 11.99-3.354 15.223-3.354 0.343 0 0.609 0.032 0.777 0.104 1.528 0.655 1.629 3.978 2.877 3.978 0.181 0 0.386-0.07 0.623-0.228 1.271-0.848 2.004-2.415 3.112-2.415 0.199 0 0.409 0.051 0.638 0.165 2.684 1.342 10.75 6.25 12 8.5s1 14.75 0 24.75m-0.875-1.355c0.945-10.273 0.962-21.18 0.001-22.91-1.007-1.811-8.305-6.457-11.573-8.09-0.054-0.028-0.131-0.06-0.191-0.06-0.233 0-0.694 0.494-1.063 0.891-0.418 0.447-0.893 0.955-1.494 1.356-0.395 0.263-0.79 0.396-1.178 0.396-1.295 0-1.828-1.308-2.256-2.359-0.265-0.646-0.626-1.533-0.997-1.693-0.004-0.001-0.105-0.03-0.401-0.03-2.572 0-10.208 2.048-13.469 2.924-0.584 0.157-1.052 0.283-1.363 0.363-0.946 1.066-2.948 8.106-4.417 13.275-1.312 4.61-2.564 9.015-3.616 11.667 0.822-0.041 1.751-0.062 2.785-0.062 11.478 0 32.55 2.385 39.232 4.332" fill="#ffdc99"/>
     </g>
    </g>
   </g>
   <g transform="matrix(1.25 0 0 -1.25 -1089.1 725.15)">
    <g clip-path="url(#v)">
     <g transform="translate(361.75 348.25)">
      <path d="m0 0c-0.834 8.083 36.666 10.75 41.333 10.083 0.083 1.917-0.333 3.25-0.25 5.417-6.167-3.167-39.833-6.5-44.5-5.083 0.5-1 2.167-5.5 3.417-10.417" fill="#eadcbe"/>
     </g>
    </g>
   </g>
   <g transform="matrix(1.25 0 0 -1.25 -1089.1 725.15)">
    <g clip-path="url(#u)">
     <g transform="translate(380.46 354.37)">
      <path d="m0 0c0.842-1.735 1.498-3.521 2.148-5.305 0.643-1.786 1.247-3.582 1.834-5.383l1.715-5.414 1.644-5.395-2.596-0.742-1.246 5.548-1.296 5.496c-0.448 1.827-0.912 3.65-1.413 5.459-0.507 1.804-1.024 3.613-1.704 5.332l0.914 0.404z" fill="#ffdc99"/>
     </g>
    </g>
   </g>
   <g transform="matrix(1.25 0 0 -1.25 -1089.1 725.15)">
    <g opacity=".39999" clip-path="url(#t)">
     <g transform="translate(253.58 481.92)">
      <path d="m0 0c19.917-5.083 16.667-39.5 28.5-42.167 11.833-2.666 27.416 28.292 28.916 35.125-22.937 9.75-33.563 21.271-49.937 17.938-5.489-1.117-13.12-9.457-7.479-10.896" fill="#fcd4c3"/>
     </g>
    </g>
   </g>
   <g transform="matrix(1.25 0 0 -1.25 -1089.1 725.15)">
    <g opacity=".5" clip-path="url(#s)">
     <g transform="translate(308.67 381.33)">
      <path d="m0 0c25-2 45.667-3 53 4.667s10 41.666 22.166 40.833c10.192-0.697 13.667-45 20.334-46.333 6.67-1.333 53.5-14.167 65.17-2.167 11.667 12 17 19.501 14.334 26.834s-71.167 30.666-85.167 31.999c-14 1.334-108.67-10.5-111-16.5-2.333-6-4.942-5.132-4.5-11.499 0.826-12 0.66-25.834 25.66-27.834" fill="#e3ab5e"/>
     </g>
    </g>
   </g>
   <g transform="matrix(1.25 0 0 -1.25 -615.68 185.46)">
    <path d="m0 0c1.797 0 8.914 0.5 10.5-0.75 9.065-7.146 8.676-36.101 18.25-45.25 8.451-8.075 54.5-14 62.5-4.75s19.75 37.25 22.5 39.25 8.75 3.5 10.5 6.25 0.25 15-4 14.5-12.25-3.25-17.25-1.75-29.25 16.75-90.25 7.5c-5.817-0.882-11.75 0-15.75 1s-27 14.25-88.25 5.5c-6.122-0.875-14.5 1.75-17.5 1.5s-4-9.75-2.75-12.25 7.5-4.5 8.25-7.5 6.25-32.5 20.75-44.75c15.277-12.907 54.536-3.975 58-1.5 15.75 11.25 19.25 43 24.5 43" fill="#333"/>
   </g>
   <g transform="matrix(1.25 0 0 -1.25 -1089.1 725.15)">
    <g clip-path="url(#r)">
     <g transform="translate(326.04 456.22)">
      <path d="m0 0c-10.724 0-23.473-0.821-38.538-2.973-0.88-0.126-1.808-0.179-2.758-0.179-5.359 0-11.478 1.695-14.297 1.696-0.159 0-0.307-0.006-0.445-0.017-3-0.25-4-9.75-2.75-12.25s7.5-4.5 8.25-7.5 6.25-32.5 20.75-44.75c6.083-5.14 15.973-6.817 25.887-6.817 14.984 0 30.028 3.828 32.113 5.317 15.75 11.25 19.25 43 24.5 43 0.799 0 2.649 0.099 4.598 0.099 2.434 0 5.021-0.155 5.902-0.849 9.065-7.146 8.676-36.101 18.25-45.25 5.403-5.163 26.18-9.447 42.552-9.447 9.232 0 17.063 1.361 19.948 4.697 8 9.25 19.75 37.25 22.5 39.25s8.75 3.5 10.5 6.25c1.715 2.695 0.309 14.515-3.749 14.515-0.083 0-0.166-0.005-0.251-0.015-3.357-0.395-9.051-2.193-13.761-2.193-1.254 0-2.437 0.127-3.489 0.443-3.85 1.155-19.114 10.458-53.765 10.46-10.359 0-22.445-0.831-36.485-2.96-1.681-0.255-3.372-0.363-5.023-0.363-4.062 0-7.883 0.652-10.727 1.363-3.009 0.754-16.831 8.473-49.705 8.473m0-3c27.26 0 41.191-5.435 46.437-7.48 1.143-0.447 1.899-0.742 2.547-0.904 2.65-0.662 6.788-1.452 11.455-1.452 1.897 0 3.738 0.134 5.473 0.397 12.806 1.941 24.93 2.926 36.035 2.926 28.661-0.002 43.571-6.417 49.937-9.156 1.279-0.551 2.204-0.949 2.966-1.178 1.277-0.383 2.701-0.569 4.351-0.569 3.322 0 6.861 0.76 9.982 1.431 1.398 0.3 2.728 0.586 3.76 0.734 1.375-1.505 2.225-8.194 1.465-9.896-0.638-0.936-3.164-2.079-5.012-2.916-1.748-0.791-3.397-1.537-4.699-2.484-1.604-1.167-3.315-4.382-8.188-14.023-4.641-9.179-10.415-20.602-14.817-25.69-1.529-1.77-6.977-3.66-17.678-3.66-15.878 0-35.928 4.267-40.48 8.616-4.153 3.97-6.351 13.102-8.477 21.934-2.388 9.92-4.643 19.29-9.988 23.503-1.362 1.074-3.538 1.493-7.759 1.493-1.236 0-2.399-0.038-3.334-0.067-0.536-0.017-0.974-0.032-1.264-0.032-4.218 0-5.986-4.948-9.196-13.93-3.532-9.879-8.366-23.405-17.02-29.608-1.97-1.165-16.163-4.779-30.397-4.779-10.939 0-19.221 2.113-23.952 6.109-5.736 4.847-13.774 16.053-19.486 41.914-0.129 0.586-0.225 1.017-0.289 1.271-0.698 2.794-3.384 4.538-5.753 6.078-0.901 0.585-2.401 1.559-2.723 2.038-0.531 1.379-0.056 6.315 0.863 7.913 0.979-0.057 2.524-0.319 4.148-0.594 2.868-0.486 6.438-1.091 9.797-1.091 1.139 0 2.21 0.07 3.182 0.209 13.666 1.953 26.489 2.943 38.108 2.943" fill="#1a1a1a"/>
     </g>
    </g>
   </g>
   <g transform="matrix(1.25 0 0 -1.25 -1089.1 725.15)">
    <g opacity=".5" clip-path="url(#q)">
     <g transform="translate(292.5,434.75)">
      <path d="m0 0c-1.39-1.787-2.25-28.5 9-35.75 7.379-4.755 38.75-3.75 45-0.25 9.864 5.523 19.454 30.895 16.75 34.5-4.5 6-37 14-61.5 7.75-2.927-0.747-7.5-4-9.25-6.25z" stroke="#333" stroke-miterlimit="10" stroke-width="4" fill="none"/>
     </g>
    </g>
   </g>
   <g transform="matrix(1.25 0 0 -1.25 -723.49 181.71)">
    <path d="m0 0c-1.39-1.787-2.25-28.5 9-35.75 7.379-4.755 38.75-3.75 45-0.25 9.864 5.523 19.454 30.895 16.75 34.5-4.5 6-37 14-61.5 7.75-2.927-0.747-7.5-4-9.25-6.25" fill="#fff"/>
   </g>
   <g transform="matrix(1.25 0 0 -1.25 -1089.1 725.15)">
    <g opacity=".5" clip-path="url(#p)">
     <g transform="translate(476.59 423.06)">
      <path d="m0 0c1.146-1.952-1.459-28.551-13.554-34.284-7.932-3.759-38.909 1.299-44.653 5.578-9.066 6.755-15.29 33.154-12.143 36.379 5.24 5.367 38.502 9.092 61.987-0.278 2.805-1.119 6.919-4.937 8.363-7.395z" stroke="#333" stroke-miterlimit="10" stroke-width="4" fill="none"/>
     </g>
    </g>
   </g>
   <g transform="matrix(1.25 0 0 -1.25 -493.37 196.32)">
    <path d="m0 0c1.146-1.952-1.459-28.551-13.554-34.284-7.932-3.759-38.909 1.299-44.653 5.578-9.066 6.755-15.29 33.154-12.143 36.379 5.24 5.367 38.502 9.092 61.987-0.278 2.805-1.119 6.919-4.937 8.363-7.395" fill="#fff"/>
   </g>
   <g transform="matrix(1.25 0 0 -1.25 -678.88 201.96)">
    <path d="m0 0c-0.828-5.81-3.771-10.195-6.571-9.796-2.8 0.4-4.399 5.433-3.571 11.241 0.829 5.81 3.77 10.196 6.572 9.796 2.799-0.399 4.398-5.432 3.57-11.241"/>
   </g>
   <g transform="matrix(1.25 0 0 -1.25 -528.86 210.4)">
    <path d="m0 0c0.609-5.837-1.181-10.806-3.993-11.099-2.814-0.294-5.587 4.201-6.195 10.036-0.609 5.837 1.178 10.806 3.993 11.1 2.812 0.293 5.587-4.201 6.195-10.037"/>
   </g>
   <g transform="matrix(1.25 0 0 -1.25 -1089.1 725.15)">
    <g opacity="0.3" clip-path="url(#o)">
     <g transform="translate(270.38 446.25)">
      <path d="m0 0c3.407-2.271 6.625-0.875 7.375-5.375s11.132-43.74 24.125-48.25c21.25-7.375 48-0.125 51.625 2.125s20.625 40.375 23.5 41.875 11.92-0.168 13.875-1c5.875-2.5 16.646-43.775 19.625-45.875 13.125-9.25 55.125-8.5 57.125-6s17.771 38.587 20.625 40.75c4.125 3.125 13.625 5.25 13.875 3.875s-7.625-2.625-10-5.625-18.25-37.5-23.25-40.5c-5.012-3.007-41.809-7.95-60.375 5.125-8.87 6.25-12.37 43.875-19.37 45.875-4.55 1.3-8 1.25-11.25 0.375-4.38-2.875-10.5-34.75-23.625-42.875-5.209-3.225-46.083-11.077-58.25 1.625-22.75 23.75-15.875 45-23.25 48.125-5.065 2.146-6.125 4.75-6 6.625s1.75 0.375 3.625-0.875" fill="#333"/>
     </g>
    </g>
   </g>
   <g transform="matrix(1.25 0 0 -1.25 -1089.1 725.15)">
    <g opacity="0.3" clip-path="url(#n)">
     <g transform="translate(270.75,454.25)">
      <path d="m0 0c-2.379 0.865 10.25-4.375 14.875-4.125s12.5 3.625 15 4.375c2.274 0.683-11.75-1.875-15.25-1.625s-13.25 0.875-14.625 1.375" fill="#333"/>
     </g>
    </g>
   </g>
   <g transform="matrix(1.25 0 0 -1.25 -1089.1 725.15)">
    <g opacity="0.3" clip-path="url(#m)">
     <g transform="translate(368.5,447.25)">
      <path d="m0 0c4.375-2 6.375-6.875 10.625-7.375s9.375-1.25 11.75 0.125 8.375 4.5 10.125 4.875-13.125-2-18.625-1.5c-5.851 0.532-12.25 3.625-13.875 3.875" fill="#333"/>
     </g>
    </g>
   </g>
   <g transform="matrix(1.25 0 0 -1.25 -1089.1 725.15)">
    <g opacity="0.3" clip-path="url(#l)">
     <g transform="translate(475.38 441.38)">
      <path d="m0 0c-1.754 0.751 6.625-6.125 9.125-5.75s7.069 3.231 9 3.875c1.5 0.5-6-1.5-8.25-1.125s-8.125 2.25-9.875 3" fill="#333"/>
     </g>
    </g>
   </g>
   <g transform="matrix(1.25 0 0 -1.25 -1089.1 725.15)">
    <g opacity="0.3" clip-path="url(#k)">
     <g transform="translate(287.75 438.62)">
      <path d="m0 0c11.125 11 37.604 7.25 42.438 6.25-31.813-2.312-32.375-4.687-37.938-10.313-0.812-4.312-1.875-18.75 3.084-31.395-5.459 3.145-11.306 31.778-7.584 35.458" fill="#333"/>
     </g>
    </g>
   </g>
   <g transform="matrix(1.25 0 0 -1.25 -1089.1 725.15)">
    <g opacity="0.3" clip-path="url(#j)">
     <g transform="translate(482.66 426.8)">
      <path d="m0 0c-9.586 12.365-36.328 12.121-41.251 11.764 31.234-6.466 31.48-8.895 36.257-15.201 0.24-4.382-0.602-18.834-7.177-30.719 5.825 2.401 15.377 30.02 12.171 34.156" fill="#333"/>
     </g>
    </g>
   </g>
   <g transform="matrix(1.25 0 0 -1.25 -1089.1 725.15)">
    <g clip-path="url(#i)">
     <g transform="translate(292.81 416.38)">
      <path d="m0 0c1.104 13.042 2.25 23.438 27.938 24.25 20.586 0.651 37-4.187 39.416-9.125 1.525-3.114 0.334-17-9.979-29.688 6.688 5.938 17.223 29.174 12.625 32.126-16.75 10.75-50.062 11-62.375 6.562-2.262-0.815-5.937-3.312-8.313-6.062-0.312-3.25-0.375-16.25 0.688-18.063" fill="#d0dddc"/>
     </g>
    </g>
   </g>
   <g transform="matrix(1.25 0 0 -1.25 -1089.1 725.15)">
    <g clip-path="url(#h)">
     <g transform="translate(293.58 415.5)">
      <path d="m0 0c3.917-25.25 50.167-17.584 52.917-16.584-0.166-1.417-24.25-8.083-44.5-0.333-8.138 3.114-8.866 19.811-8.417 16.917" fill="#d0dddc"/>
     </g>
    </g>
   </g>
   <g transform="matrix(1.25 0 0 -1.25 -1089.1 725.15)">
    <g clip-path="url(#g)">
     <g transform="translate(474.46 405.09)">
      <path d="m0 0c0.504 13.079 0.642 23.537-24.752 27.494-20.352 3.172-37.233 0.382-40.239-4.221-1.895-2.904-2.416-16.831 6.263-30.687-5.909 6.713-13.515 31.066-8.59 33.43 17.942 8.615 51.035 4.777 62.711-1.138 2.143-1.086 5.485-4.015 7.505-7.036-0.089-3.264-1.621-16.173-2.898-17.842" fill="#d0dddc"/>
     </g>
    </g>
   </g>
   <g transform="matrix(1.25 0 0 -1.25 -1089.1 725.15)">
    <g clip-path="url(#f)">
     <g transform="translate(473.58 404.31)">
      <path d="m0 0c-6.984-24.578-51.944-11.298-54.551-9.967-0.009-1.428 23.076-10.997 44.124-5.79 8.457 2.093 11.229 18.573 10.427 15.757" fill="#d0dddc"/>
     </g>
    </g>
   </g>
   <g transform="matrix(1.25 0 0 -1.25 -1089.1 725.15)">
    <g opacity=".25" clip-path="url(#e)">
     <g transform="translate(327.38 426)">
      <path d="m0 0c0 0.829-0.672 1.5-1.5 1.5s-1.5-0.671-1.5-1.5 0.672-1.5 1.5-1.5 1.5 0.671 1.5 1.5" fill="#fff"/>
     </g>
    </g>
   </g>
   <g transform="matrix(1.25 0 0 -1.25 -1089.1 725.15)">
    <g opacity=".25" clip-path="url(#d)">
     <g transform="translate(446.38 419)">
      <path d="m0 0c0 0.828-0.672 1.5-1.5 1.5s-1.5-0.672-1.5-1.5 0.672-1.5 1.5-1.5 1.5 0.672 1.5 1.5" fill="#fff"/>
     </g>
    </g>
   </g>
   <g transform="matrix(1.25 0 0 -1.25 -1089.1 725.15)">
    <g opacity=".10001" clip-path="url(#c)">
     <g transform="translate(271.12 447.88)">
      <path d="m0 0c3.625-4.125 5.809-4.521 10.75-3.875 46.875 6.125 72.75 5.875 85.5-6.125 2.769-2.605 1.249 7.621-4 9-39.5 10.375-68.125 1-74.125 0.25s-10.5 0.625-18.125 0.75" fill="#d0dddc"/>
     </g>
    </g>
   </g>
   <g transform="matrix(1.25 0 0 -1.25 -1089.1 725.15)">
    <g opacity=".10001" clip-path="url(#b)">
     <g transform="translate(400.62 441.88)">
      <path d="m0 0c-1.056-1.102-0.616-11.95 4.5-7.875 14.75 11.75 45.625 9 67.125 1.75-3.5 6.75-28.625 11.5-42.75 11.25-6.635-0.117-26-2.125-28.875-5.125" fill="#d0dddc"/>
     </g>
    </g>
   </g>
   <g transform="matrix(1.25 0 0 -1.25 -476.77 183.66)">
    <path d="m0 0c0-0.449-2.351-0.813-5.25-0.813s-5.25 0.364-5.25 0.813 2.351 0.813 5.25 0.813 5.25-0.364 5.25-0.813" fill="#d0dddc"/>
   </g>
   <g transform="matrix(1.25 0 0 -1.25 -730.62 167.26)">
    <path d="m0 0c-0.075-0.443-2.453-0.407-5.313 0.08-2.858 0.487-5.114 1.24-5.039 1.682 0.076 0.443 2.454 0.407 5.313-0.08 2.858-0.487 5.114-1.24 5.039-1.682" fill="#d0dddc"/>
   </g>
   <g transform="matrix(1.25 0 0 -1.25 -1089.1 725.15)">
    <g clip-path="url(#a)">
     <g transform="translate(578.44 204.84)">
      <path d="m0 0c-0.915 9.176-7.634 13.283-13.887 13.283-2.876 0-5.172-0.82-6.025-1.174l-1.238-0.525-1.033-0.783c-1.48-1.125-4.016-2.613-6.342-3.461-0.118 1.9-0.054 4.286 0.216 6.289l0.042 0.34c1.704 16.16-1.681 25.594-10.057 28.039-1.391 0.406-2.849 0.612-4.333 0.612-5.126 0-9.624-2.446-12.573-4.583-2.467 3.117-6.592 4.858-11.701 4.858-7.66 0-13.818-3.577-16.069-9.332-0.221-0.563-0.525-1.46-0.889-2.623-4.533 9.952-13.698 13.783-22.264 13.783-8.108 0-15.936-3.147-18.902-5.377-0.123-0.092-0.283-0.204-0.473-0.34-7.67-5.443-13.65-12.326-17.897-20.574-2.075 7.154-6.554 13.812-14.649 18.884l-0.145 0.09c-0.212 0.127-0.425 0.252-0.638 0.371 7.92 14.077 14.92 32.731 10.736 50.493-4.463 18.946-15.599 21.775-21.839 21.775-2.561 0-5.221-0.481-7.906-1.428l-0.174-0.061-0.171-0.068c-11.755-4.64-16.935-11.581-18.049-13.248-1.175-1.734-14.08-21.34-17.15-49.972-0.342-3.174-0.702-6.434-1.073-9.712-1.837 2.58-4.789 4.938-9.58 6.387-1.461 0.444-2.986 0.668-4.533 0.668-6.484 0-11.804-3.986-14.612-6.621l-0.044 0.065c-2.455 3.609-6.37 5.797-10.739 6.002-0.356 0.016-0.708 0.024-1.059 0.024-6.895 0-12.438-3.054-16.491-6.485-2.602 4.533-7.317 7.328-12.914 7.328-0.465 0-0.896-0.02-1.284-0.051-0.283 0.012-0.598 0.02-0.939 0.02-7.683 0-13.742-3.614-16.205-9.661-0.184-0.451-0.397-1.068-0.635-1.826-6.028 7.496-13.731 11.007-24.045 11.007-0.32 0-0.641-0.003-0.97-0.01-6.439-0.128-22.48-2.82-32.361-24.985-1.505-3.376-2.704-6.83-3.564-10.23-2.182 0.97-4.158 1.229-5.645 1.229-5.146 0-9.003-2.946-10.904-5.714-1.538-2.245-6.371-10.168-3.997-17.869 1.275-4.138 4.284-7.317 8.475-8.953 3.707-1.446 8.362-2.865 11.894-3.873 2.164-4.918 6.029-10.588 12.899-15.811 4.873-3.703 11.058-5.58 18.383-5.58 12.301 0 24.182 5.335 25.496 5.943l0.482 0.231 0.125 0.09c2.362-2.442 5.471-4.249 9.359-4.964 1.165-0.213 2.723-0.397 4.441-0.397 6.658 0 11.327 3.392 15.615 9.779 3.523-5.529 9.895-8.635 17.444-8.635h0.044c0.404 0 0.833-0.32 1.285-0.32 3.97 0 8.96 1.422 13.114 8.071 3.486-6.22 9.776-9.785 17.278-9.785 6.675 0 12.466 2.737 13.56 3.285l0.212 0.11c2.254 1.2 4.091 2.214 5.593 3.076 4.975-2.663 12.539-5.576 21.824-5.576 1.579 0 3.176 0.087 4.748 0.258l0.424 0.047 0.42 0.082c19.624 3.861 32.391 8.571 40.021 12.117 5.329-5.976 13.832-11.699 25.958-12.619 1.37-0.103 2.752-0.156 4.106-0.156 9.943 0 17.949 2.788 23.825 5.945 1.847-2.015 4.221-3.781 7.246-5.029 1.812-0.75 3.701-1.129 5.613-1.129 12.204 0 17.904 14.52 19.487 19.466l2.954 7.864c2.575-2.747 5.845-4.971 10.002-6.176 2.291-0.662 4.739-0.998 7.273-0.998 13.399 0 26.341 9.508 28.383 11.074 3.82 2.835 7.871 9.092 7.008 17.727" fill="#fff"/>
     </g>
     <g transform="translate(455.45 200.81)">
      <path d="m0 0s-1.688 5.987 4.605 17.508c6.299 11.518 11.214 5.221 11.214 5.221s5.375-5.835-0.767-14.591c-6.144-8.752-15.052-8.138-15.052-8.138m-48.38-8.293c-7.218-18.893-24.727-11.214-24.727-11.214s-1.997 6.758 3.687 25.651c5.683 18.889 19.044 11.515 19.044 11.515s9.215-7.062 1.996-25.952m-13.054 79.095s10.905 28.415 13.515 14.591c2.611-13.823-22.885-54.984-22.885-54.984 0.307 9.215 9.37 40.393 9.37 40.393m-155.89-70.802c0.461 18.276 12.44 26.262 16.587 22.269 4.146-3.993 2.61-12.593-5.222-17.969-7.835-5.377-11.365-4.3-11.365-4.3m330.36 3.031c-0.612 6.144-6.143 3.86-6.143 3.86s-8.908-6.903-16.741-6.133c-7.832 0.765-5.377 18.282-5.377 18.282s1.692 16.048-2.916 17.393c-4.607 1.345-10.292-4.181-10.292-4.181s-7.064-7.835-10.443-17.815l-0.921-0.308s1.074 17.509-0.152 21.502c-0.923 1.998-9.37 1.843-10.752-1.69-1.383-3.532-8.141-28.105-8.601-38.397 0 0-13.21-11.209-24.726-13.054-11.521-1.844-14.286 5.375-14.286 5.375s31.333 8.754 30.258 33.789c-1.076 25.034-25.268 15.78-28.005 13.721-2.648-1.99-16.788-10.52-20.913-34.135-0.138-0.805-0.384-4.311-0.384-4.311s-12.135-8.143-18.893-10.292c0 0 18.893 31.793-4.147 46.229-10.443 6.299-18.736-6.911-18.736-6.911s31.177 34.711 24.266 64.045c-3.291 13.97-10.274 15.472-16.685 13.21-9.731-3.842-13.419-9.522-13.419-9.522s-12.594-18.279-15.51-45.464c-2.919-27.184-7.22-60.052-7.22-60.052s-5.99-5.836-11.518-6.143c-5.529-0.307-3.072 16.435-3.072 16.435s4.301 25.494 3.993 29.795c-0.307 4.3-0.614 6.605-5.683 8.139-5.068 1.539-10.596-4.913-10.596-4.913s-14.592-22.117-15.822-25.498l-0.767-1.38-0.768 0.921s10.29 30.103 0.461 30.563c-9.829 0.461-16.279-10.75-16.279-10.75s-11.212-18.739-11.673-20.889l-0.767 0.923s4.607 21.811 3.686 27.184c-0.922 5.378-5.99 4.3-5.99 4.3s-6.45 0.77-8.14-3.379c-1.689-4.144-7.835-31.637-8.602-40.393 0 0-16.126-11.519-26.723-11.672-10.598-0.152-9.522 6.722-9.522 6.722s38.858 13.301 28.258 39.565c-4.76 6.758-10.289 8.88-18.122 8.727-7.833-0.157-17.077-4.931-23.376-19.061-3.008-6.745-4.23-13.136-4.23-17.978v0.002s-7.289-1.391-10.971 1.683c-3.685 3.071-5.82 0-5.82 0s-6.449-9.192-0.151-11.651c6.297-2.457 16.006-4.737 16.006-4.737h-0.006c0.902-4 3.529-10.472 11.196-16.3 11.518-8.752 33.633 1.367 33.633 1.367l9.062 5.372s0.305-8.175 6.909-9.389c6.606-1.215 9.37 0.089 20.889 28.041 6.757 14.285 7.218 13.555 7.218 13.555l0.768 0.174s-5.221-27.331-3.225-34.704c1.996-7.372 10.751-6.599 10.751-6.599s4.76-1.682 8.6 11.832c3.841 13.52 11.213 27.652 11.213 27.652h0.922s-3.228-27.188 1.687-36.096c4.916-8.908 17.664-2.613 17.664-2.613s8.907 4.688 10.29 6.069c0 0 10.577-8.902 25.486-7.275 33.339 6.56 45.194 15.469 45.194 15.469s5.729-14.483 23.468-15.831c20.272-1.531 31.332 11.227 31.332 11.227s-0.153-8.286 6.911-11.202c7.065-2.92 11.827 12.567 11.827 12.567l11.825 31.685h1.077s0.612-20.276 12.286-23.659c11.672-3.375 26.877 8.367 26.877 8.367s3.685 2.493 3.071 8.635" fill="#e24b31"/>
     </g>
    </g>
   </g>
  </g>
 </g>
</svg>
