<svg version="1.1" id="Layer_1" xmlns="http://www.w3.org/2000/svg" xmlns:xlink="http://www.w3.org/1999/xlink" x="0px" y="0px"
	 viewBox="0 0 103.1 138.8" enable-background="new 0 0 103.1 138.8" xml:space="preserve">
<g>
	<path fill="#462F15" d="M1.4,12.6c0,0,17.9-18.3,34,4.7c0.9-0.3,2-0.7,2-0.7s1.7-9.5,8-13.3c0.2,5,1.9,8,1.9,8s2-8.6,10.2-11.3
		c-2,6.8,0.7,9.7,0.7,9.7S66,5,67.7,6.4c-2.2,2.5-2.9,10-2.9,10l2.2,0.9c0,0,21.2-23.7,34.9-4.4C86.8,14.7,91,25,91,25
		s16.8,2,5.8,16.3c-1.8,6.1,0.5,10.6,0.5,10.6s17.4,11.3-8.4,23.1c-4.5,3.1-0.9,23.8-0.9,23.8s5.6-3.5,6.6-12.2
		c15.7,18.9-2.3,32.9-7.1,33.6c-5.3,11.7-17.7,13.5-17.7,13.5s-3.6,5.2-16.6,5.2s-19.3-5.2-19.3-5.2s-13.8-1.8-17.6-13.5
		c-2.9-0.7-21.7-10.6-7.8-33.6c1.9,9.4,7.1,11.3,7.1,11.3s3.3-20.4-0.9-22.9c-6.4-3.4-23.6-11.5-8.9-23C9,47.1,6.4,41.2,6.4,41.2
		s-9.9-13.1,6.1-16.3C15.7,13.7,1.4,12.6,1.4,12.6z"/>
	<path fill="#FBA919" d="M33.1,106.4H71c0,0-6.3-16.9-6.2-24c4,7.4,8.5,20.3,8.5,20.3s9.4-0.1,10.9-1.8c0.3-4.7-3.1-23,1.6-27.5
		c6.8-6.1,18.6-8.4,10.4-17.4c-0.2,1.3,0,3.2,0,3.2s-7.2-11.5-2.5-23c0.1,2.1,0.2,0.8,0,3.6c12.4-18.7-19.2-8.4-30.7,2.3
		c0,0,4.2-8.9,14.8-14.3c0,0-23.6-18.2-51.9,0c9.2,4.7,12.9,10.6,14.9,14.3C29.2,31.3-2.4,21.1,10,39.8c-0.2-2.9-0.1-1.5,0-3.6
		c4.7,11.6-2.5,23-2.5,23s0.2-1.8,0-3.2C-0.7,65,11,67.3,17.9,73.4c4.7,4.5,1.4,22.7,1.6,27.5c1.5,1.7,10.9,1.8,10.9,1.8
		s4.5-12.9,8.5-20.3c0.2,7-6.2,24-6.2,24h37.9"/>
	<path fill="#FBA919" d="M51.5,109.9c-10.1,0-16.3-0.5-19.8,0.2c-2.3,0.5-3.8,2.7-3.6,5c1.1,11.3,11.3,20.6,23.6,20.6H52
		c12.4,0,22.5-9.3,23.6-20.6c0.2-2.3-1.3-4.5-3.6-5c-3.5-0.8-9.7-0.2-19.8-0.2H51.5z"/>
	<path fill="#463015" d="M37,123.9l-3.8-4.5c-1.2-1.5,0.1-3.4,2.3-3.4h7.7c2.2,0,3.5,2,2.3,3.4l-3.9,4.5
		C40.5,125.2,38.1,125.2,37,123.9z"/>
	<path fill="#463015" d="M62,123.9l-3.8-4.5c-1.2-1.5,0.1-3.4,2.3-3.4h7.7c2.2,0,3.5,2,2.3,3.4l-3.9,4.5
		C65.5,125.2,63.1,125.2,62,123.9z"/>
	<path fill="#FFFFFF" d="M28,106.6c0,0-16.3,0.2-20.4-12.5c-6.5,23.2,17,24.4,17,24.4s-1.2-2.7-0.6-5.8c0.1-0.3,0.2-0.7,0.3-1
		C25.6,109.1,28,106.6,28,106.6z"/>
	<path fill="#FFFFFF" d="M75.7,106.6c0,0,16.3,0.2,20.4-12.5c6.5,23.2-17,24.4-17,24.4s1.2-2.7,0.6-5.8c-0.1-0.3-0.2-0.7-0.3-1
		C78.1,109.1,75.7,106.6,75.7,106.6z"/>
	<path fill="#462F15" d="M44.2,46.5c0,0,3,2.2,7.3,2.2c4,0,7.3-2.2,7.3-2.2s-3.6,4.8-7.3,4.8S44.2,46.5,44.2,46.5z"/>
	<path fill="#462F15" d="M14.1,47.2c20.5-3.6,21.6,16.2,31.9,11.1c0.9,4.7-5.7,5.4-5.7,5.4s-0.1,6.2-3.3,8.4
		c1.5-7.3,0.3-8.7-0.4-9.1c-0.6,2.3-16.9,7.4-18.2-10.7c-0.3-4.3-1.3,2.7-1.4,4.4C14,52.5,17,49,17,49S18.7,47.6,14.1,47.2z"/>
	<path fill="#462F15" d="M88.2,47.2c-20.5-3.6-21.6,16.2-31.9,11.1C55.3,63,62,63.7,62,63.7s0.1,6.2,3.3,8.4
		c-1.5-7.3-0.3-8.7,0.4-9.1c0.6,2.3,16.9,7.4,18.2-10.7c0.3-4.3,1.3,2.7,1.4,4.4c3.1-4.3,0.1-7.7,0.1-7.7S83.6,47.6,88.2,47.2z"/>
	<path fill="#FFFFFF" d="M23.4,51.1c4.6,2.7,8.9,5.6,12,9.8c-2.9,2.1-7,2-10-0.1C23.1,59.1,22.1,55,23.4,51.1z"/>
	<path fill="#FFFFFF" d="M79.1,51.1c-4.6,2.7-8.9,5.6-12,9.8c2.9,2.1,7,2,10-0.1C79.4,59.1,80.3,55,79.1,51.1z"/>
	<path fill="#FBA919" d="M9.9,11.8l1.3,0.8c0.1,0.1,0.3,0.1,0.4,0.1c1.4-0.3,10-1.4,15.6,7.6c0.1,0.2,0.5,0.3,0.7,0.2l2.1-1.1
		c0.3-0.1,0.4-0.5,0.2-0.8c-1.4-2.3-8-12-20.2-7.8C9.5,10.9,9.5,11.5,9.9,11.8z"/>
	<path fill="#E88824" d="M14.6,15.6c0,0,7.6-0.4,9,7.7l-3,3.3c0,0-4.2,0.3-3.9-4.1S14.6,15.6,14.6,15.6z"/>
	<path fill="#FBA919" d="M93.1,11.8l-1.3,0.8c-0.1,0.1-0.3,0.1-0.4,0.1c-1.4-0.3-10-1.4-15.6,7.6c-0.1,0.2-0.5,0.3-0.7,0.2L73,19.4
		c-0.3-0.1-0.4-0.5-0.2-0.8c1.4-2.3,8-12,20.2-7.8C93.4,10.9,93.4,11.5,93.1,11.8z"/>
	<path fill="#E88824" d="M88.3,15.6c0,0-7.6-0.4-9,7.7l3,3.3c0,0,4.2,0.3,3.9-4.1S88.3,15.6,88.3,15.6z"/>
	<path fill="#FBA919" d="M20.5,121.5c0,0,3.5,6.1,8.1,6.8c0,0-2.4-3.6-3.1-6.2C23.1,122.1,20.5,121.5,20.5,121.5z"/>
	<path fill="#FBA919" d="M82.5,121.5c0,0-3.5,6.1-8.1,6.8c0,0,2.4-3.6,3.1-6.2C79.8,122.1,82.5,121.5,82.5,121.5z"/>
</g>
</svg>
