<svg xmlns:rdf="http://www.w3.org/1999/02/22-rdf-syntax-ns#" xmlns="http://www.w3.org/2000/svg" version="1.1" xmlns:cc="http://creativecommons.org/ns#" xmlns:dc="http://purl.org/dc/elements/1.1/" viewBox="0 0 285 633">
 <g transform="matrix(1.25,0,0,-1.25,0,633.75)">
  <g clip-path="url(#clipPath3018)">
   <g transform="translate(176.32 16.181)">
    <path d="m0 0c0-8.417-27.76-15.24-62.002-15.24-34.244 0-62.003 6.823-62.003 15.24l-5.31 78.514-15.01 24.939s30.02-12.239 81.053-12.239 81.515 12.47 81.515 12.47l-13.4-22.858-4.85-80.822z" fill="#e34e48"/>
   </g>
   <g transform="translate(1.4824 369.96)">
    <path d="m0 0 24.907-240.06s21.462-16.957 86.113-16.957 86.908 16.692 86.908 16.692l26.76 240.58s-15.368-12.718-113.14-12.718c-97.772 0.005-111.55 12.458-111.55 12.458" fill="#e34e48"/>
   </g>
   <g transform="translate(228.33 379)">
    <path d="m0 0c0-8.836-50.96-16-113.82-16-62.863 0-113.82 7.164-113.82 16s50.961 16 113.82 16c62.86 0 113.82-7.164 113.82-16" fill="#e34e48"/>
   </g>
   <g transform="translate(155.1 371.07)">
    <path d="m0 0c1.917 0.26 4.872 0.613 4.885 2.935 0.002 1.365-1.146 2.155-2.462 2.563l-0.978-1.53c0.807-0.193 1.271-0.438 1.271-0.698-0.005-0.86-6.14-1.278-11.217-1.341-5.077-0.064-11.714 0.533-11.71 1.405 0.001 0.186 0.245 0.36 0.672 0.508l-0.982 1.541c-1.039-0.424-1.854-1.101-1.859-2.249-0.003-0.603 0.267-1.494 0.76-1.943 1.835-1.671 6.442-1.74 12.929-1.713 6.486 0.027 8.691 0.522 8.691 0.522" fill="#fff"/>
   </g>
   <g transform="translate(227.47 493.05)">
    <path d="m0 0c-1.419-1.639-5.871-0.105-9.942 3.422-4.073 3.526-6.225 7.714-4.807 9.351 1.42 1.638 5.871 0.106 9.944-3.42 4.071-3.528 6.222-7.716 4.805-9.353" fill="#e34e48"/>
   </g>
   <g transform="translate(212.72 505.83)">
    <path d="m0 0-59.688-63.194-11.873-48.289 19.826-0.876 10.216 40.379 56.378 59.324l-14.859 12.657z" fill="#e34e48"/>
   </g>
   <g transform="translate(18.234 207.77)">
    <path d="m0 0c15.585-7.719 27.766 7.734 34.374 13.83 0.413-4.142-11.018-27.779-4-30 7.017-2.221 9.96 17.093 15.558 35.404 4.984 16.306 12.459 34.75 5.584 36.625s-8.999-15.997-12.142-22.029c-4.463-8.563-30.842-37.405-34-16-2.478 16.789 16.279 50.464 25 59 4.373 4.281 11.14 8.232 16 7 6.735-1.706 7.313-13.324 13-13 13.438 0.767-2.249 23.394-14 24-25.996 1.34-42.43-38.849-49.254-58.331-0.478-6.005 3.88-36.499 3.88-36.499" fill-rule="evenodd" fill="#fff"/>
   </g>
   <g transform="translate(209.67 220)">
    <path d="m0 0c-7.949-7.945-34.382-22.54-36.06-6.404-1.336 12.855 28.12 31.474 20.56 32.07-16.273-0.93-24.372-19.071-32.56-38.07-3-6.963-13.267-36.655-20-33-6.732 3.654 8.727 28.07 13.06 42.57-5-3.666-23.335-17.911-28.06-4.57-7.597-6.452-23.83-9.948-21.999 7-4.041-7.159-13.112-17.153-24-13-14.298 5.453 8.285 50.999 13.901 48.701 5.616-2.297-1.134-12.672-2.901-16.701-3.888-8.867-8.379-20.014-5.379-22.296 5.14-3.909 19.127 14.789 19.438 15.2 2.616 3.456 10.069 26.067 16.076 23.471s-14.983-32.45-7.135-38.375c1.583-1.196 8.059 0.737 11.999 5 2.549 2.757 1.672 8.864 10.169 29.127 8.497 20.262 16.07 45.496 21.897 43.574s1.024-14.873-1.066-19.701c-9.81-22.66-26.774-60.097-18.774-57.263s12.166 3 20 12.167 7.472 24.267 12.694 23.946c5.223-0.321 4.346-5.163 3.08-8.85 5.139 5.881 24.36 18.267 29 6 5.497-14.522-27.5-35.5-19.273-34.43s21.71 9.703 26.999 17.334c0.012 0.016-1.666-13.5-1.666-13.5" fill-rule="evenodd" fill="#fff"/>
   </g>
  </g>
 </g>
</svg>
