<svg version="1.1" id="Layer_1" xmlns="http://www.w3.org/2000/svg" xmlns:xlink="http://www.w3.org/1999/xlink" x="0px" y="0px"
	 viewBox="0 0 105.9 120.1" enable-background="new 0 0 105.9 120.1" xml:space="preserve">
<g>
	<polygon fill="#E55025" points="0,0 105.9,0 96.5,108.2 52.9,120.1 9.4,108.2 	"/>
	<polygon fill="#F26722" points="96.8,9 53.3,9 53.3,111.2 88.4,101.2 	"/>
	<g>
		<polygon fill="#FFFFFF" points="34.4,35.5 85.4,35.5 86.6,22.3 80.2,22.3 19.9,22.3 23.6,61.7 69.5,61.7 67.8,79.6 52.8,83.3 
			38.3,79.6 37.4,69 24.3,69 26.3,90.4 53.4,97.8 80.2,90.4 84.1,48.8 36,48.8 		"/>
	</g>
	<g>
		<polygon fill="#E6E6E6" points="52.8,83.3 38.3,79.6 37.4,69 24.3,69 26.3,90.4 53.3,97.8 53.3,83.2 		"/>
		<polygon fill="#EBEBEB" points="36,48.8 34.4,35.5 53.3,35.5 53.3,22.3 19.9,22.3 23.6,61.7 53.3,61.7 53.3,48.8 		"/>
	</g>
</g>
</svg>
