<svg xmlns:rdf="http://www.w3.org/1999/02/22-rdf-syntax-ns#" xmlns="http://www.w3.org/2000/svg" xml:space="preserve" version="1.1" xmlns:cc="http://creativecommons.org/ns#" xmlns:dc="http://purl.org/dc/elements/1.1/" viewBox="0 0 629.46 146.47"><defs><clipPath id="a"><path d="m0 1500v-1500h5455.7v1500h-5455.7z"/></clipPath></defs><g transform="matrix(1.25 0 0 -1.25 -18.803 166.98)"><g transform="scale(.1)"><g fill="#8a4182" clip-path="url(#a)"><path d="m5082.5 703.96c-19.24 70.605-81.6 115.55-154.04 115.55-66.04 0-129.3-51.348-143.05-115.55h297.09zm85.27-144.88c-38.51-93.523-129.27-156.79-231.05-156.79-143.07 0-257.68 111.87-257.68 255.84 0 144.88 109.12 261.33 254.91 261.33 67.87 0 135.72-30.258 183.39-78.863 48.62-51.344 68.79-113.7 68.79-183.38l-3.67-39.434h-396.13c14.67-67.863 77.03-117.36 146.72-117.36 48.59 0 90.76 18.328 118.28 58.672h116.44m-1008.6 241.17h-63.27v104.53h175.14v-69.687c29.35 54.101 84.36 80.699 144.87 80.699 53.19 0 105.45-22.016 141.22-60.527 40.34-44.934 41.26-88.032 41.26-143.96v-191.65h63.27v-104.53h-238.4v104.53h63.26v158.64c0 30.262 0 61.434-19.26 88.035-20.17 26.582-53.18 39.414-86.19 39.414-33.93 0-68.77-13.75-88.94-41.25-21.09-27.5-21.09-69.687-21.09-102.71v-142.13h63.26v-104.53h-238.4v104.53h63.27v280.6m-160.46 151.29h-111.87v118.29h111.87v-118.29zm0-431.89h63.27v-104.53h-239.33v104.53h64.19v280.6h-63.27v104.53h175.14v-385.12m-1010.5 280.6h-63.26v104.53h165.05v-73.355c31.18 51.347 78.86 85.277 141.21 85.277 67.85 0 124.71-41.258 152.21-102.7 26.6 62.351 92.62 102.7 160.47 102.7 53.19 0 105.46-22 141.21-62.351 38.52-44.938 38.52-93.532 38.52-149.46v-185.24h63.27v-104.53h-238.42v104.53h63.28v157.72c0 32.102 0 60.527-14.67 88.957-18.34 26.582-48.61 40.344-79.77 40.344-30.26 0-63.28-12.844-82.53-36.672-22.93-29.355-22.93-56.863-22.93-92.629v-157.72h63.27v-104.53h-238.41v104.53h63.28v150.38c0 29.348 0 66.023-14.67 91.699-15.59 29.336-47.69 44.934-80.7 44.934-31.18 0-57.77-11.008-77.94-35.774-24.77-30.253-26.6-62.343-26.6-99.941v-151.3h63.27v-104.53h-238.4v104.53h63.26v280.6m-365.6-243.03c3.67-44.016 33.01-73.348 78.86-73.348 33.93 0 66.93 23.824 66.93 60.504 0 48.606-45.84 56.856-83.44 66.941-85.28 22.004-178.81 48.606-178.81 155.88 0 93.536 78.86 147.63 165.98 147.63 44 0 83.43-9.176 110.94-44.008v33.922h82.53v-132.96h-108.21c-1.83 34.856-28.42 57.774-63.26 57.774-30.26 0-62.35-17.422-62.35-51.348 0-45.847 44.93-55.93 80.69-64.18 88.02-20.175 182.47-47.695 182.47-157.73 0-99.027-83.44-154.04-175.13-154.04-49.53 0-94.46 15.582-126.55 53.18v-40.34h-85.27v142.13h114.62m-321 105.43c0 80.703-66.94 145.81-147.63 145.81-83.44 0-147.63-68.781-147.63-151.3 0-79.785 66.94-145.8 145.8-145.8 84.35 0 149.46 67.852 149.46 151.29zm-1.83-181.55c-35.77-54.097-93.53-78.859-157.72-78.859-140.3 0-251.24 116.45-251.24 254.92 0 142.13 113.7 260.41 256.74 260.41 63.27 0 118.29-29.336 152.22-82.523v69.687h175.14v-104.53h-61.44v-280.6h61.44v-104.53h-175.14v66.019m-755.6 118.28c0.92-40.352 25.68-81.602 71.53-81.602 27.51 0 47.68 12.832 61.44 35.754 12.83 22.93 12.83 56.852 12.83 82.527v329.18h-71.52v104.54h266.83v-104.54h-70.6v-344.77c0-58.691-3.68-104.53-44.93-152.22-36.68-42.18-96.28-66.02-153.14-66.02-117.37 0-207.24 77.941-202.64 197.14h130.2"/><path d="m690.9 850.7h90.75l22.543 31.035v243.12h-135.83v-243.14l22.536-31.016"/><path d="m716.29 376.59h37.641v184.82h-37.641v-184.82zm-335.6 245.54-11.626 35.801 175.76 57.09 11.621-35.801-175.75-57.09m226.78 281.32-108.61 149.52 30.465 22.13 108.61-149.53-30.465-22.121m259.49-1.371-30.457 22.125 108.62 149.53 30.465-22.12-108.63-149.54m224.17-282.19-175.77 57.121 11.629 35.808 175.76-57.121-11.62-35.808m-279.04 208.7 28.055-86.32 36.484-11.836 231.22 75.117-41.97 129.18-231.24-75.14-22.555-31.004m16.52-122.11-73.43-53.34 0.01-38.35 142.9-196.7 109.9 79.83-142.93 196.71-36.45 11.85m-111.07-53.36-73.41 53.36-36.488-11.875-142.9-196.69 109.88-79.828 142.92 196.7v38.332m-85.054 89.153 28.039 86.304-22.551 31.04-231.22 75.128-41.976-129.18 231.26-75.137 36.454 11.848m103.91 593.62c-323.05 0-585.88-262.78-585.88-585.78 0-323.12 262.83-585.98 585.88-585.98 323.02 0 585.81 262.86 585.81 585.98 0 323-262.79 585.78-585.81 585.78zm0-118.61c257.97 0 467.19-209.13 467.19-467.17 0-258.13-209.22-467.35-467.19-467.35-258.07 0-467.25 209.22-467.25 467.35 0 258.04 209.18 467.17 467.25 467.17"/></g></g></g></svg>
