<svg xmlns:rdf="http://www.w3.org/1999/02/22-rdf-syntax-ns#" xmlns="http://www.w3.org/2000/svg" height="85.631" width="350.2" version="1.1" xmlns:cc="http://creativecommons.org/ns#" xmlns:dc="http://purl.org/dc/elements/1.1/" viewBox="0 0 350.19806 85.631355">
 <g fill-rule="evenodd">
  <path d="m41.204 35.496c1.6866-4.8617 3.3217-8.822 3.2875-12.698-0.098-11.085-8.078-18.019-22.575-16.394-16.657 1.8674-24.24 15.285-21.055 32.788 0.7309 4.018 3.7813 6.262 5.8284 7.824 5.1396 3.924 11.455 3.022 14.102-0.752 3.96-6.483-2.985-6.496-5.465-9.483-6.2747-7.556-0.158-15.88 7.352-18.174 2.8911-0.88286 8.0122 1.5428 8.3989 3.5483 0.52688 2.7324-0.15722 5.0544-1.1251 7.3934l-15.429 37.288c-2.982 7.2064 9.8767 10.805 13.662 1.1251l9.8043-25.073 13.662 36.485c2.0223 5.4008 10.136 5.6239 12.697 5.6254 89.364 0.05357 42.305 0.4286 266.64 0.48218 8.3423 0.002 8.7241-12.051 2.7323-12.054l-268.41-0.162c-2.1341-0.0013-2.5218-1.3455-3.9557-4.9976l-10.024-25.54 26.359-28.127c4.655-4.9676-5.221-11.894-10.126-6.7503z"/>
  <path d="m85.725 30.674c-4.3413-3.9731-6.8888-2.674-9.965-0.32145-2.8091 2.1483-7.7148 17.733-11.251 26.359-2.8904 7.0509 7.4161 9.3378 10.126 3.0538l7.5541-17.519c3.174-6.825 11.277-5.7209 8.6792 0.80363l-5.1432 13.18c-0.80308 2.0579-0.17965 6.5256 5.1432 6.5898l13.34 0.16073c7.8675 0.09479 6.7478-9.8043 1.1251-9.8043l-6.2683 0.000001 5.4647-15.108c2.4524-6.7801-2.8834-9.2661-6.7505-10.126-5.092-1.1319-9.333 1.2268-12.054 2.7323z"/>
  <path d="m131.69 37.826c-4.5145 0.11544-12.845 4.7923-8.197 13.581 1.6468 3.1139 5.8223 1.9344 7.7952 0.88399 6.875-3.6605 6.3865-14.618 0.40182-14.465zm0-10.849c-8.7191-0.8701-27.327 13.428-17.911 30.11 1.0692 1.8942 2.2408 3.5733 4.7316 4.6069 6.0925 2.5282 12.439 2.4215 17.198 0.16072 12.195-5.7931 13.864-19.204 7.7732-29.204-2.2347-3.669-7.1909-5.214-11.791-5.6731z"/>
  <path d="m170.61 43.42c0.0632 2.9855 7.2391 3.8198 8.8647 0.85238 3.7583-6.8602 0.63004-11.797-3.7651-14.996-2.2107-1.6091-4.5964-1.9256-6.5771-1.9383-13.444-0.08604-18.689 9.1524-19.662 21.48-0.39311 4.9807 1.6793 8.1104 3.2514 10.205 2.2817 3.0402 4.8926 3.774 8.9092 3.774l15.57 0.000001c7.3477 0 6.6687-9.7301 1.3638-9.7739l-13.752-0.11365c-6.1741-0.05103-5.8138-7.1621-3.5232-11.024 2.4538-4.1372 5.5672-4.5503 7.0695-4.4435 2.112 0.15015 2.9257 1.1209 2.2498 5.9777z"/>
  <path d="m183.77 56.953c-0.93443 2.2693 0.60164 5.1199 3.0673 6.2184 2.6199 1.1673 6.2479 0.41879 7.621-2.9236l6.1076-14.867 11.09 16.314c1.9492 2.8673 5.37 2.1026 6.8322 0.9731 2.2634-1.7486 2.985-4.8563 1.9274-6.5181l-7.8756-12.376 10.286-7.9559c1.1178-0.86455 1.127-3.425 0.17187-5.4715-1.0397-2.2275-5.5488-2.3444-6.2794-1.8416l-12.376 8.5185 12.21-31.342c2.6287-6.7447-8.709-7.2063-10.849-2.0091z"/>
  <path d="m245.08 37.98c-4.5145 0.11544-12.845 4.7923-8.197 13.581 1.6468 3.1139 5.8223 1.9344 7.7952 0.88399 6.875-3.6605 6.3865-14.618 0.40182-14.465zm0-10.849c-8.7191-0.8701-27.327 13.428-17.911 30.11 1.0692 1.8942 2.2408 3.5733 4.7316 4.6069 6.0925 2.5282 12.439 2.4215 17.198 0.16072 12.195-5.7931 13.864-19.204 7.7732-29.204-2.2347-3.669-7.1909-5.214-11.791-5.6731z"/>
  <path d="m282.13 33.085c1.9776-4.4496-8.1192-8.6556-10.929-1.768l-8.197 20.091c-2.103 5.1544 0.77379 10.875 7.7148 11.572 8.8551 0.88931 12.19-0.24937 13.34-2.5716 0.88286 2.3897 5.2903 3.0904 9.9342 3.1236 4.8631 0.03476 11.184-1.4498 11.121-4.7308 0.67711-3.9732-1.3528-5.7721-5.1432-6.1076l-5.1432-0.16072 7.7148-19.609c-0.15667-1.1482-0.24841-2.4686-1.4855-3.326-3.6584-2.5355-7.8266-1.2759-10.087 2.8438l-6.1076 16.073c-1.5579 4.0996-6.6965 5.2902-8.8399 4.3396-0.85272-0.37816-1.8714-0.4217-0.96436-3.8574z"/>
  <path d="m332.44 21.834c1.1015-2.616-2.0782-4.5556-3.457-5.1353-2.6511-1.1146-6.6646 0.54431-7.7938 3.3673l-3.2145 8.0363c-5.2605-0.35354-8.7223 1.0358-10.126 4.9825-0.67404 4.1401 2.041 4.9807 5.7861 5.4647l-6.7505 17.841c-0.63764 4.3409 1.829 6.7505 5.1432 6.7505h13.662c5.7922 0 7.4901-10.01 1.9287-10.126l-7.7148-0.16072 5.7861-14.305c4.7809-0.62517 10.336 0.70704 11.251-5.304 0.90861-4.0859-3.3599-4.5549-7.0719-5.304z"/>
  <circle opacity=".99" cy="58.078" cx="343.54" r="6.4998"/>
 </g>
</svg>
