<?xml version="1.0" encoding="UTF-8"?>
<svg width="272px" height="66px" viewBox="0 0 272 66" version="1.1" xmlns="http://www.w3.org/2000/svg" xmlns:xlink="http://www.w3.org/1999/xlink">
    <!-- Generator: Sketch 46.2 (44496) - http://www.bohemiancoding.com/sketch -->
    <title>meteor</title>
    <desc>Created with Sketch.</desc>
    <defs></defs>
    <g id="Page-1" stroke="none" stroke-width="1" fill="none" fill-rule="evenodd">
        <g id="Logos" transform="translate(-31.000000, -534.000000)">
            <g id="meteor" transform="translate(31.000000, 534.000000)">
                <path d="M272,64.9987633 L261.6385,64.9987633 L252.895643,51.7735951 L246.095643,51.7735951 L246.095643,64.9987633 L237.028571,64.9987633 L237.028571,24 L259.047214,24 C259.047214,24 270.912,24.4748892 270.912,37.8323832 C270.912,47.2943022 262.285714,50.7817694 262.285714,50.7817694 L272,64.9987633 Z M256.690286,31.5487588 L245.936571,31.5487588 L245.936571,43.5347631 L257.667786,43.5347631 C257.667786,43.5347631 262.152143,43.5335264 262.152143,37.5405242 C262.152143,31.319971 256.690286,31.5487588 256.690286,31.5487588 Z M136.647214,24 L167.085714,24 L167.085714,31.9296595 L145.714286,31.9296595 L145.714286,40.5320785 L164.171429,40.5320785 L164.171429,48.4679215 L145.714286,48.4679215 L145.714286,57.0641571 L167.085714,57.0641571 L167.085714,64.9987633 L136.647214,64.9987633 L136.647214,24 Z M113.657143,64.9987633 L104.590071,64.9987633 L104.590071,31.9358429 L92.6099286,31.9358429 L92.6099286,24 L125.6385,24 L125.6385,31.9358429 L113.657143,31.9358429 L113.657143,64.9987633 Z M51.1615,24 L81.6,24 L81.6,31.9296595 L60.2285714,31.9296595 L60.2285714,40.5320785 L78.6857143,40.5320785 L78.6857143,48.4679215 L60.2285714,48.4679215 L60.2285714,57.0641571 L81.6,57.0641571 L81.6,64.9987633 L51.1615,64.9987633 L51.1615,24 Z M31.0857143,39.2088197 L20.0697143,55.7408983 L9.061,39.2088197 L9.061,65 L0,65 L0,24 L9.061,24 L20.0697143,40.8622749 L31.0857143,24 L40.1527857,24 L40.1527857,65 L31.0857143,65 L31.0857143,39.2088197 Z" id="Shape" fill="#FFFFFF"></path>
                <path d="M227.471723,43.636604 C226.442513,44.7661485 225.097551,43.7979675 225.097551,43.7979675 L195.026306,10.7343405 L227.70914,41.3787374 C227.70914,41.3787374 228.500933,42.5082819 227.471723,43.636604 Z M224.109316,32.9230451 L210.48012,17.89179 L225.401252,31.7886108 C225.401252,31.7886108 225.79293,32.317932 225.283146,32.8472532 C224.774567,33.3753519 224.109316,32.9230451 224.109316,32.9230451 Z M226.337664,52.8648851 C224.864954,54.4821876 222.940308,53.0971508 222.940308,53.0971508 L179.896681,5.77119026 L226.67752,49.6339477 C226.67752,49.6339477 227.810374,51.2500276 226.337664,52.8648851 Z M221.920739,60.8303746 C220.448029,62.4464546 218.522177,61.0614178 218.522177,61.0614178 L162,0 L222.260595,57.5982147 C222.260595,57.5982147 223.392244,59.2142946 221.920739,60.8303746 Z M213.765396,65.2165281 C212.292686,66.8326081 210.366835,65.4475713 210.366835,65.4475713 L167.324413,18.1216108 L214.105252,61.9843682 C214.105252,61.9843682 215.236901,63.6004481 213.765396,65.2165281 Z M203.911978,65.3375507 C202.882768,66.4658728 201.537805,65.4989142 201.537805,65.4989142 L171.466561,32.4352873 L204.149395,63.0796841 C204.149395,63.0796841 204.939983,64.2092286 203.911978,65.3375507 Z M193.794629,62.6273773 C193.28605,63.1566985 192.620799,62.7031692 192.620799,62.7031692 L178.991603,47.6719141 L193.912735,61.5687349 C193.912735,61.5687349 194.303208,62.0980561 193.794629,62.6273773 Z" id="Shape" fill="#DE4F4F"></path>
            </g>
        </g>
    </g>
</svg>