<svg version="1.1" id="Layer_1" xmlns="http://www.w3.org/2000/svg" xmlns:xlink="http://www.w3.org/1999/xlink" x="0px" y="0px"
	 viewBox="0 0 133.5 36.9" enable-background="new 0 0 133.5 36.9" xml:space="preserve">
<g>
	<g>
		<g>
			<g>
				<path fill="#353128" d="M128,23.5c-0.1-0.7-0.7-1.1-1-1.4c-0.4-0.2-0.9-0.3-1.5-0.3c-1.3,0-2.5,0.4-2.5,1.1
					c0,0.5,0.3,0.8,1.3,0.9l2.6,0.2c1.1,0.1,1.7,0.4,2.3,0.7c0.8,0.4,1.2,1.3,1.2,2.2c0,1.1-0.5,1.9-1.4,2.4
					c-0.8,0.4-1.8,0.6-3.3,0.6c-1.8,0-3.1-0.4-3.9-1.1c-0.6-0.6-0.8-1.2-0.9-2.4h1.7c0.1,0.6,0.2,0.9,0.6,1.2
					c0.5,0.4,1.7,0.6,2.6,0.6c1.4,0,2.5-0.4,2.5-1.2c0-0.6-0.7-0.9-1.7-1l-2.5-0.3c-1.9-0.2-3-1.1-3-2.6c0-1.9,1.7-3.1,4.4-3.1
					c1.4,0,2.6,0.3,3.4,0.9c1,0.7,1,1.8,1,2.5H128z"/>
			</g>
			<path fill="#353128" d="M132.5,18l-8.8-5.1c-0.6-0.3-1.3-0.4-1.9,0l-8.8,5.1c-0.6,0.3-1,1-1,1.7l0,10.2c0,0.7,0.4,1.3,1,1.7
				l8.8,5.1c0.6,0.3,1.3,0.4,1.9,0l8.8-5.1c0.6-0.3,1-1,1-1.7l0-10.2C133.5,19,133.1,18.4,132.5,18z M131.8,30.1l-9.1,5.2l-4.2-2.5
				c0.7-0.4,1.1-1.2,1.2-2h0V20.1h-1.8v8.2c0,0,0,0,0,0c0,0.1,0,0.2,0,0.3v1.4c0,0,0,0.1,0,0.2c0,0.8-0.6,1.4-1.4,1.4
				c-0.2,0-0.4,0-0.5-0.1c0,0-0.1,0-0.1,0l-2.3-1.3l0-10.5l9.1-5.2l9.1,5.3L131.8,30.1z"/>
		</g>
	</g>
	<g>
		<path fill="#8CC644" d="M28.1,29.9l0-10c0-0.7,0.4-1.3,1-1.6l8.7-5c0.6-0.3,1.3-0.3,1.9,0l8.6,5c0.6,0.3,0.9,1,0.9,1.7l0,10
			c0,0.7-0.4,1.3-1,1.6l-8.7,5c-0.6,0.3-1.3,0.3-1.9,0l-8.6-5C28.5,31.2,28.1,30.6,28.1,29.9z"/>
		<path fill="#8CC644" d="M93,26l0-1.9c0-0.1,0.1-0.3,0.2-0.3l1.7-1c0.1-0.1,0.3-0.1,0.4,0l1.7,1c0.1,0.1,0.2,0.2,0.2,0.3l0,1.9
			c0,0.1-0.1,0.3-0.2,0.3l-1.7,1c-0.1,0.1-0.3,0.1-0.4,0l-1.7-1C93.1,26.2,93,26.1,93,26z"/>
		<g>
			<path fill="#353128" d="M76.6,3.1l-5.5-3c-0.3-0.2-0.7,0.1-0.7,0.4v14.1c0,0.2-0.3,0.4-0.5,0.4l-0.3-0.1l-1.7-1
				c-0.6-0.3-1.3-0.3-1.9,0l-8.5,4.9c-0.6,0.3-0.9,0.9-0.9,1.6l0,9.8c0,0.7,0.4,1.3,0.9,1.6l8.4,4.9c0.6,0.3,1.3,0.3,1.9,0l8.5-4.9
				c0.6-0.3,0.9-0.9,0.9-1.6l0-7.7h0V4.2C77.3,3.7,77,3.3,76.6,3.1z M70.4,27.2l-3.5,2l-3.4-2l0-4l3.5-2l3.4,2L70.4,27.2z"/>
		</g>
		<path fill="#353128" d="M0,33.9V19.7c0-0.3,0.2-0.6,0.5-0.8l9.7-5.4c0.3-0.1,0.6-0.1,0.9,0l9.5,5.4c0.3,0.2,0.5,0.5,0.5,0.8v14.2
			c0,0.3-0.3,0.5-0.6,0.4L14.6,31c-0.3-0.1-0.4-0.4-0.4-0.7v-6.5c0-0.3-0.2-0.6-0.4-0.8L11,21.4c-0.2-0.1-0.5-0.1-0.8,0l-2.7,1.6
			c-0.3,0.2-0.4,0.5-0.4,0.8v6.4c0,0.3-0.2,0.6-0.4,0.7l-6,3.2C0.3,34.4,0,34.2,0,33.9z"/>
		<path fill="#353128" d="M85.1,18.9l9.4-5.3c0.3-0.2,0.7-0.2,1.1,0l9.5,5.3c0.3,0.2,0.5,0.5,0.5,0.9v2.6c0,0.4-0.2,0.8-0.6,0.9
			l-6,3.3c-0.3,0.1-0.5-0.1-0.5-0.3v-2.7c0-0.3-0.1-0.5-0.4-0.7l-2.7-1.6c-0.3-0.2-0.6-0.2-0.8,0l-2.7,1.6c-0.2,0.1-0.4,0.4-0.4,0.7
			v3c0,0.3,0.2,0.6,0.4,0.7l9.4,5.5c0.2,0.1,0.2,0.5,0,0.6l-5.9,3.3c-0.3,0.1-0.6,0.1-0.8,0l-9.5-5.3c-0.3-0.2-0.6-0.6-0.6-0.9V19.8
			C84.5,19.4,84.7,19,85.1,18.9z"/>
	</g>
</g>
</svg>
