<svg xmlns:rdf="http://www.w3.org/1999/02/22-rdf-syntax-ns#" xmlns="http://www.w3.org/2000/svg" version="1.1" xmlns:cc="http://creativecommons.org/ns#" xmlns:dc="http://purl.org/dc/elements/1.1/" viewBox="0 0 518 202">
 <polygon points="0 0 0 173 144 173 144 202 259 202 259 173 518 173 518 0" fill="#CB3837"/>
 <g fill="#fff">
  <polygon points="86 29 29 29 29 58 29 144 86 144 86 58 115 58 115 144 144 144 144 58 144 29"/>
  <path d="m173 29v144h58v-29h57v-115h-115zm86 86h-28v-57h28v57z"/>
  <polygon points="374 29 317 29 317 58 317 144 374 144 374 58 403 58 403 144 432 144 432 58 461 58 461 144 490 144 490 58 490 31 490 29"/>
 </g>
</svg>
