<svg width="952" height="192" viewBox="0 0 952 192" fill="none" xmlns="http://www.w3.org/2000/svg">
<g clip-path="url(#clip0_2_31)">
<path d="M84.38 108.352C74.824 111.064 68.554 115.819 64.424 120.57C68.38 117.109 73.679 113.931 80.826 111.905C88.137 109.833 94.374 109.848 99.528 110.843V106.813C95.131 106.411 90.091 106.731 84.38 108.352ZM63.987 74.475L28.497 83.825C28.497 83.825 29.143 84.739 30.341 85.958L60.433 78.028C60.433 78.028 60.006 83.523 56.303 88.438C63.308 83.139 63.987 74.475 63.987 74.475ZM93.696 157.885C43.75 171.337 17.326 113.455 9.32599 83.413C5.62999 69.545 4.01599 59.043 3.58599 52.265C3.54508 51.652 3.55344 51.0367 3.61099 50.425C1.02099 50.58 -0.220012 51.927 0.031988 55.82C0.461988 62.593 2.07599 73.095 5.77199 86.967C13.769 117.005 40.196 174.887 90.142 161.435C101.013 158.506 109.18 153.172 115.312 146.362C109.66 151.466 102.588 155.485 93.696 157.885ZM103.08 39.05V42.605H122.67C122.269 41.346 121.864 40.212 121.462 39.05H103.08Z" fill="#2D4552"/>
<path d="M127.05 68.325C135.86 70.828 140.52 77.005 142.983 82.471L152.807 85.261C152.807 85.261 151.467 66.129 134.162 61.214C117.973 56.614 108.011 70.209 106.799 71.968C111.509 68.613 118.385 65.866 127.05 68.325ZM205.247 82.559C189.043 77.939 179.085 91.562 177.891 93.296C182.604 89.945 189.477 87.197 198.138 89.667C206.935 92.173 211.59 98.343 214.061 103.813L223.898 106.613C223.898 106.613 222.537 87.478 205.247 82.559ZM195.487 133.002L113.769 110.157C113.769 110.157 114.654 114.642 118.048 120.45L186.851 139.684C192.515 136.407 195.487 133.002 195.487 133.002ZM138.832 182.176C74.127 164.828 81.949 82.386 92.419 43.32C96.73 27.22 101.162 15.254 104.838 7.232C102.645 6.781 100.828 7.936 99.034 11.586C95.13 19.5 90.14 32.387 85.312 50.427C74.845 89.493 67.022 171.933 131.724 189.281C162.221 197.451 185.98 185.034 203.69 165.532C186.88 180.758 165.416 189.295 138.832 182.176Z" fill="#2D4552"/>
<path d="M103.081 138.565V121.928L56.858 135.036C56.858 135.036 60.273 115.19 84.38 108.352C91.691 106.28 97.929 106.294 103.081 107.289V39.05H126.226C123.706 31.263 121.268 25.268 119.22 21.102C115.833 14.207 112.361 18.778 104.479 25.371C98.927 30.009 84.896 39.904 63.781 45.593C42.667 51.287 25.596 49.777 18.474 48.543C8.377 46.801 3.096 44.583 3.59 52.264C4.02 59.038 5.633 69.541 9.33 83.412C17.326 113.451 43.754 171.332 93.7 157.88C106.746 154.365 115.954 147.416 122.337 138.56H103.081V138.564V138.565ZM28.493 83.825L63.987 74.475C63.987 74.475 62.953 88.129 49.647 91.637C36.337 95.141 28.493 83.825 28.493 83.825Z" fill="#E2574C"/>
<path d="M236.664 39.84C227.438 41.457 205.303 43.472 177.948 36.14C150.585 28.812 132.431 15.996 125.238 9.97201C115.041 1.43201 110.556 -4.50399 106.142 4.47401C102.24 12.392 97.249 25.279 92.419 43.32C81.953 82.386 74.13 164.825 138.832 182.173C203.519 199.506 237.958 124.195 248.425 85.126C253.255 67.089 255.373 53.431 255.955 44.624C256.62 34.648 249.767 37.544 236.664 39.84ZM106.668 72.161C106.668 72.161 116.864 56.302 134.158 61.218C151.463 66.133 152.803 85.264 152.803 85.264L106.668 72.161ZM148.883 143.324C118.464 134.414 113.773 110.157 113.773 110.157L195.487 133.003C195.487 132.999 178.993 152.123 148.883 143.323V143.324ZM177.773 93.474C177.773 93.474 187.956 77.627 205.247 82.556C222.537 87.479 223.898 106.61 223.898 106.61L177.774 93.474H177.773Z" fill="#2EAD33"/>
<path d="M86.9279 126.51L56.8579 135.032C56.8579 135.032 60.1239 116.423 82.2759 109.049L65.2499 45.147L63.7789 45.594C42.6639 51.288 25.5939 49.778 18.4719 48.544C8.37494 46.803 3.09294 44.584 3.58694 52.266C4.01694 59.04 5.63094 69.542 9.32694 83.413C17.3239 113.452 43.7519 171.333 93.6969 157.881L95.1679 157.419L86.9289 126.509L86.9279 126.51ZM28.4929 83.825L63.9869 74.474C63.9869 74.474 62.9529 88.128 49.6469 91.636C36.3369 95.14 28.4929 83.825 28.4929 83.825Z" fill="#D65348"/>
<path d="M150.255 143.658L148.879 143.323C118.46 134.413 113.769 110.157 113.769 110.157L155.906 121.935L178.214 36.211L177.944 36.141C150.582 28.812 132.428 15.996 125.234 9.97099C115.038 1.43099 110.552 -4.50401 106.138 4.47399C102.24 12.392 97.249 25.279 92.419 43.32C81.953 82.386 74.13 164.825 138.832 182.172L140.158 182.472L150.255 143.658ZM106.668 72.16C106.668 72.16 116.864 56.301 134.158 61.217C151.463 66.132 152.803 85.263 152.803 85.263L106.668 72.16Z" fill="#1D8D22"/>
<path d="M88.46 126.072L80.396 128.361C82.302 139.101 85.66 149.408 90.93 158.513C91.848 158.311 92.758 158.137 93.692 157.881C96.141 157.221 98.412 156.402 100.598 155.51C94.708 146.77 90.812 136.706 88.46 126.072ZM85.312 50.428C81.168 65.895 77.46 88.158 78.481 110.488C80.307 109.695 82.237 108.956 84.381 108.348L85.873 108.014C84.053 84.162 87.987 59.857 92.419 43.32C93.4697 39.3978 94.5942 35.4958 95.792 31.616C93.8404 32.8641 91.848 34.0471 89.818 35.163C88.1841 40.2115 86.6816 45.3015 85.312 50.428Z" fill="#C04B41"/>
</g>
<path d="M308.281 146V50.7273H345.869C353.095 50.7273 359.251 52.1074 364.337 54.8675C369.423 57.5967 373.3 61.3958 375.967 66.2649C378.665 71.103 380.014 76.6854 380.014 83.0121C380.014 89.3388 378.65 94.9212 375.92 99.7592C373.191 104.597 369.237 108.365 364.058 111.064C358.91 113.762 352.676 115.111 345.357 115.111H321.399V98.9684H342.1C345.977 98.9684 349.172 98.3016 351.684 96.968C354.227 95.6035 356.118 93.7272 357.359 91.3391C358.631 88.9201 359.266 86.1444 359.266 83.0121C359.266 79.8487 358.631 77.0885 357.359 74.7315C356.118 72.3435 354.227 70.4982 351.684 69.1957C349.141 67.8621 345.915 67.1953 342.007 67.1953H328.424V146H308.281ZM408.613 50.7273V146H388.796V50.7273H408.613ZM440.934 147.349C436.375 147.349 432.312 146.558 428.746 144.977C425.179 143.364 422.357 140.991 420.279 137.859C418.232 134.696 417.209 130.757 417.209 126.043C417.209 122.073 417.938 118.739 419.395 116.041C420.853 113.343 422.838 111.172 425.35 109.528C427.862 107.885 430.715 106.644 433.909 105.807C437.135 104.969 440.515 104.38 444.051 104.039C448.206 103.605 451.556 103.202 454.099 102.83C456.642 102.426 458.487 101.837 459.635 101.062C460.782 100.286 461.356 99.139 461.356 97.6193V97.3402C461.356 94.3939 460.426 92.1145 458.565 90.5018C456.735 88.8891 454.13 88.0827 450.75 88.0827C447.183 88.0827 444.345 88.8736 442.236 90.4553C440.128 92.0059 438.732 93.9598 438.05 96.3168L419.721 94.8281C420.651 90.4863 422.481 86.7337 425.21 83.5703C427.939 80.3759 431.459 77.9259 435.77 76.2202C440.112 74.4834 445.136 73.6151 450.843 73.6151C454.812 73.6151 458.611 74.0803 462.24 75.0106C465.9 75.941 469.14 77.3832 471.963 79.337C474.816 81.2908 477.064 83.8029 478.708 86.8732C480.352 89.9125 481.174 93.5566 481.174 97.8054V146H462.38V136.091H461.821C460.674 138.324 459.139 140.294 457.216 141.999C455.293 143.674 452.983 144.992 450.284 145.953C447.586 146.884 444.469 147.349 440.934 147.349ZM446.609 133.672C449.525 133.672 452.099 133.098 454.332 131.951C456.565 130.772 458.317 129.191 459.588 127.206C460.86 125.221 461.496 122.973 461.496 120.461V112.878C460.875 113.281 460.023 113.653 458.937 113.994C457.883 114.304 456.689 114.599 455.355 114.878C454.021 115.126 452.688 115.359 451.354 115.576C450.021 115.762 448.811 115.933 447.726 116.088C445.4 116.429 443.368 116.972 441.632 117.716C439.895 118.46 438.546 119.468 437.584 120.74C436.623 121.98 436.142 123.531 436.142 125.392C436.142 128.09 437.119 130.152 439.073 131.579C441.058 132.974 443.57 133.672 446.609 133.672ZM502.295 172.795C499.782 172.795 497.425 172.594 495.224 172.191C493.053 171.819 491.254 171.338 489.827 170.749L494.293 155.955C496.619 156.669 498.712 157.056 500.573 157.118C502.465 157.18 504.093 156.746 505.458 155.816C506.853 154.885 507.985 153.304 508.854 151.071L510.017 148.047L484.384 74.5455H505.225L520.019 127.02H520.763L535.696 74.5455H556.676L528.904 153.722C527.57 157.568 525.756 160.917 523.461 163.771C521.197 166.655 518.328 168.872 514.855 170.423C511.381 172.005 507.195 172.795 502.295 172.795ZM576.983 146L557.538 74.5455H577.588L588.66 122.554H589.311L600.848 74.5455H620.526L632.249 122.275H632.854L643.739 74.5455H663.743L644.344 146H623.363L611.082 101.062H610.198L597.917 146H576.983ZM670.384 146V74.5455H689.597V87.0128H690.341C691.644 82.5779 693.83 79.2285 696.901 76.9645C699.971 74.6695 703.507 73.522 707.507 73.522C708.5 73.522 709.57 73.584 710.717 73.7081C711.865 73.8321 712.873 74.0027 713.741 74.2198V91.8043C712.811 91.5252 711.523 91.2771 709.88 91.06C708.236 90.8429 706.732 90.7344 705.367 90.7344C702.452 90.7344 699.847 91.3701 697.552 92.6417C695.288 93.8822 693.489 95.619 692.156 97.8519C690.853 100.085 690.202 102.659 690.202 105.574V146H670.384ZM720.057 146V74.5455H739.874V146H720.057ZM730.012 65.3345C727.066 65.3345 724.538 64.3576 722.429 62.4038C720.352 60.4189 719.313 58.0464 719.313 55.2862C719.313 52.5571 720.352 50.2156 722.429 48.2617C724.538 46.2769 727.066 45.2844 730.012 45.2844C732.958 45.2844 735.47 46.2769 737.548 48.2617C739.657 50.2156 740.712 52.5571 740.712 55.2862C740.712 58.0464 739.657 60.4189 737.548 62.4038C735.47 64.3576 732.958 65.3345 730.012 65.3345ZM784.011 174.284C777.591 174.284 772.086 173.4 767.496 171.632C762.938 169.896 759.309 167.523 756.611 164.515C753.913 161.507 752.16 158.126 751.354 154.374L769.683 151.908C770.241 153.335 771.125 154.668 772.335 155.909C773.544 157.149 775.141 158.142 777.126 158.886C779.142 159.661 781.592 160.049 784.476 160.049C788.787 160.049 792.338 158.995 795.129 156.886C797.951 154.808 799.363 151.319 799.363 146.419V133.347H798.525C797.657 135.331 796.354 137.208 794.618 138.975C792.881 140.743 790.648 142.185 787.919 143.302C785.19 144.418 781.933 144.977 778.15 144.977C772.784 144.977 767.9 143.736 763.496 141.255C759.123 138.743 755.634 134.913 753.029 129.765C750.455 124.585 749.168 118.042 749.168 110.133C749.168 102.039 750.486 95.2778 753.122 89.8505C755.758 84.4232 759.262 80.3604 763.635 77.6623C768.039 74.9641 772.862 73.6151 778.103 73.6151C782.104 73.6151 785.453 74.2973 788.151 75.6619C790.849 76.9955 793.02 78.6702 794.664 80.6861C796.339 82.6709 797.626 84.6248 798.525 86.5476H799.27V74.5455H818.947V146.698C818.947 152.776 817.459 157.863 814.482 161.956C811.504 166.05 807.38 169.12 802.107 171.167C796.866 173.245 790.834 174.284 784.011 174.284ZM784.43 130.09C787.624 130.09 790.322 129.299 792.524 127.718C794.757 126.105 796.463 123.81 797.641 120.833C798.851 117.824 799.456 114.227 799.456 110.04C799.456 105.853 798.866 102.225 797.688 99.1545C796.509 96.0531 794.804 93.6496 792.571 91.9439C790.338 90.2382 787.624 89.3853 784.43 89.3853C781.173 89.3853 778.429 90.2692 776.196 92.0369C773.963 93.7737 772.273 96.1927 771.125 99.294C769.978 102.395 769.404 105.977 769.404 110.04C769.404 114.165 769.978 117.731 771.125 120.74C772.304 123.717 773.994 126.027 776.196 127.671C778.429 129.284 781.173 130.09 784.43 130.09ZM850.605 104.69V146H830.788V50.7273H850.047V87.1523H850.884C852.497 82.9345 855.102 79.6316 858.7 77.2436C862.297 74.8246 866.81 73.6151 872.237 73.6151C877.199 73.6151 881.525 74.7005 885.216 76.8714C888.938 79.0114 891.822 82.0972 893.869 86.1289C895.947 90.1296 896.97 94.9212 896.939 100.504V146H877.122V104.039C877.153 99.6352 876.036 96.2082 873.772 93.7582C871.539 91.3081 868.407 90.0831 864.375 90.0831C861.677 90.0831 859.289 90.6568 857.211 91.8043C855.164 92.9518 853.551 94.6265 852.373 96.8285C851.225 98.9994 850.636 101.62 850.605 104.69ZM946.612 74.5455V89.4318H903.581V74.5455H946.612ZM913.35 57.4261H933.167V124.043C933.167 125.872 933.446 127.299 934.005 128.322C934.563 129.315 935.338 130.013 936.331 130.416C937.354 130.819 938.533 131.021 939.866 131.021C940.797 131.021 941.727 130.943 942.657 130.788C943.588 130.602 944.301 130.462 944.797 130.369L947.914 145.116C946.922 145.426 945.526 145.783 943.727 146.186C941.929 146.62 939.742 146.884 937.168 146.977C932.392 147.163 928.205 146.527 924.608 145.07C921.041 143.612 918.265 141.348 916.281 138.278C914.296 135.207 913.319 131.331 913.35 126.648V57.4261Z" fill="#111111"/>
<defs>
<clipPath id="clip0_2_31">
<rect width="256" height="192" fill="white"/>
</clipPath>
</defs>
</svg>
