<svg xmlns:rdf="http://www.w3.org/1999/02/22-rdf-syntax-ns#" xmlns="http://www.w3.org/2000/svg" enable-background="new 0 0 416 286" xml:space="preserve" viewBox="0 0 416 286" version="1.1" y="0px" x="0px" xmlns:cc="http://creativecommons.org/ns#" xmlns:dc="http://purl.org/dc/elements/1.1/"><polygon points="84.157 143 42.878 214.5 84.157 286 125.44 214.5" fill="#303F9F"/><polygon points="331.84 0 290.56 71.5 331.84 143 373.12 71.5" fill="#3F51B5"/><polygon points="373.12 71.5 249.28 286 331.84 286 414.4 143" fill="#7986CB"/><polygon points="249.28 0 84.157 286 166.72 286 331.84 0" fill="#FF4081"/><polygon points="84.157 0 1.596 143 42.878 214.5 166.72 0" fill="#536DFE"/><g fill="#fff"><polygon fill-opacity=".2" points="249.28 0 290.56 71.5 331.84 0"/><polygon fill-opacity=".1" points="208 71.5 249.28 0 290.56 71.5"/><polygon fill-opacity="0" points="208 71.5 249.28 143 290.56 71.5"/></g><polygon points="166.72 143 208 71.5 249.28 143" fill-opacity=".1"/><polygon points="166.72 143 208 214.5 249.28 143" fill-opacity=".2"/><polygon points="125.44 214.5 166.72 143 208 214.5" fill-opacity=".3"/><polygon points="125.44 214.5 166.72 286 208 214.5" fill-opacity=".4"/><polygon points="84.157 286 125.44 214.5 166.72 286" fill-opacity=".5"/><g fill="#fff"><polygon fill-opacity=".2" points="84.157 0 125.44 71.5 166.72 0"/><polygon fill-opacity=".1" points="42.878 71.5 84.157 0 125.44 71.5"/><polygon fill-opacity="0" points="42.878 71.5 84.157 143 125.44 71.5"/></g><polygon points="1.598 143 42.878 71.5 84.157 143" fill-opacity=".1"/><polygon points="1.598 143 42.878 214.5 84.157 143" fill-opacity=".2"/><polygon fill-opacity="0" points="125.44 214.5 84.157 143 42.878 214.5" fill="#fff"/><polygon points="125.44 214.5 84.157 286 42.878 214.5" fill-opacity=".2"/><polygon points="373.12 71.5 331.84 0 290.56 71.5" fill-opacity=".2"/><polygon fill-opacity="0" points="373.12 71.5 331.84 143 290.56 71.5" fill="#fff"/><g fill="#fff"><polygon fill-opacity=".2" points="331.84 143 373.12 71.5 414.4 143"/><polygon fill-opacity=".1" points="331.84 143 373.12 214.5 414.4 143"/><polygon fill-opacity="0" points="290.56 214.5 331.84 143 373.12 214.5"/></g><polygon points="290.56 214.5 331.84 286 373.12 214.5" fill-opacity=".1"/><polygon points="249.28 286 290.56 214.5 331.84 286" fill-opacity=".2"/><rect y="-65" width="416" height="416" fill="none"/><g display="none"><g display="inline"><polygon points="84.157 143 42.878 214.5 84.157 286 166.72 286" fill="#303F9F"/><polygon points="331.84 0 249.28 0 331.84 143 373.12 71.5" fill="#3F51B5"/><polygon points="373.12 71.5 249.28 286 331.84 286 414.4 143" fill="#7986CB"/><polygon points="84.157 0 1.596 143 42.878 214.5 166.72 0" fill="#536DFE"/><polygon points="249.28 0 290.56 71.5 331.84 0" fill-opacity=".5"/><polygon points="84.157 286 125.44 214.5 166.72 286" fill-opacity=".5"/><g fill="#fff"><polygon fill-opacity=".2" points="84.157 0 125.44 71.5 166.72 0"/><polygon fill-opacity=".1" points="42.878 71.5 84.157 0 125.44 71.5"/><polygon fill-opacity="0" points="42.878 71.5 84.157 143 125.44 71.5"/></g><polygon points="1.598 143 42.878 71.5 84.157 143" fill-opacity=".1"/><polygon points="1.598 143 42.878 214.5 84.157 143" fill-opacity=".2"/><polygon fill-opacity="0" points="125.44 214.5 84.157 143 42.878 214.5" fill="#fff"/><polygon fill-opacity="0" points="373.12 71.5 331.84 143 290.56 71.5" fill="#fff"/><g fill="#fff"><polygon fill-opacity=".2" points="331.84 143 373.12 71.5 414.4 143"/><polygon fill-opacity=".1" points="331.84 143 373.12 214.5 414.4 143"/><polygon fill-opacity="0" points="290.56 214.5 331.84 143 373.12 214.5"/></g><polygon points="290.56 214.5 331.84 286 373.12 214.5" fill-opacity=".1"/><polygon points="249.28 286 290.56 214.5 331.84 286" fill-opacity=".2"/><polygon points="125.44 214.5 84.157 286 42.878 214.5" fill-opacity=".2"/><polygon points="373.12 71.5 331.84 0 290.56 71.5" fill-opacity=".2"/></g><rect display="inline" height="416" width="416" y="-65" fill="none"/></g><g display="none"><g display="inline"><polygon points="249.28 0 84.157 286 166.72 286 331.84 0" fill="#FF4081"/><g fill="#fff"><polygon fill-opacity=".2" points="249.28 0 290.56 71.5 331.84 0"/><polygon fill-opacity=".1" points="208 71.5 249.28 0 290.56 71.5"/><polygon fill-opacity="0" points="208 71.5 249.28 143 290.56 71.5"/></g><polygon points="166.72 143 208 214.5 249.28 143" fill-opacity=".2"/><polygon points="125.44 214.5 166.72 143 208 214.5" fill-opacity=".3"/><polygon points="125.44 214.5 166.72 286 208 214.5" fill-opacity=".4"/><polygon points="84.157 286 125.44 214.5 166.72 286" fill-opacity=".5"/><polygon points="166.72 143 208 71.5 249.28 143" fill-opacity=".1"/></g><g display="inline"><polygon points="331.84 0 166.72 286 249.28 286 373.12 71.5" fill="#FF4081"/><polygon fill-opacity=".1" points="290.56 71.5 331.84 0 373.12 71.5" fill="#fff"/><polygon fill-opacity="0" points="290.56 71.5 331.84 143 373.12 71.5" fill="#fff"/><polygon points="249.28 143 290.56 214.5 331.84 143" fill-opacity=".2"/><polygon points="208 214.5 249.28 143 290.56 214.5" fill-opacity=".3"/><polygon points="208 214.5 249.28 286 290.56 214.5" fill-opacity=".4"/><polygon points="166.72 286 208 214.5 249.28 286" fill-opacity=".5"/><polygon points="249.28 143 290.56 71.5 331.84 143" fill-opacity=".1"/></g><g display="inline"><polygon points="166.72 0 42.878 214.5 84.16 286 249.28 0" fill="#FF4081"/><g fill="#fff"><polygon fill-opacity=".2" points="166.72 0 208 71.5 249.28 0"/><polygon fill-opacity=".1" points="125.44 71.5 166.72 0 208 71.5"/><polygon fill-opacity="0" points="125.44 71.5 166.72 143 208 71.5"/></g><polygon points="84.16 143 125.44 214.5 166.72 143" fill-opacity=".2"/><polygon points="42.878 214.5 84.16 143 125.44 214.5" fill-opacity=".3"/><polygon points="42.878 214.5 84.16 286 125.44 214.5" fill-opacity=".4"/><polygon points="84.16 143 125.44 71.5 166.72 143" fill-opacity=".1"/></g><rect display="inline" height="416" width="416" y="-65" fill="none"/><g display="inline"><polygon points="84.157 143 42.878 214.5 84.157 286 166.72 286" fill="#303F9F"/><polygon points="331.84 0 249.28 0 331.84 143 373.12 71.5" fill="#3F51B5"/><polygon points="373.12 71.5 249.28 286 331.84 286 414.4 143" fill="#7986CB"/><polygon points="84.157 0 1.597 143 42.878 214.5 166.72 0" fill="#536DFE"/><polygon points="249.28 0 290.56 71.5 331.84 0" fill-opacity=".5"/><polygon points="84.157 286 125.44 214.5 166.72 286" fill-opacity=".5"/><g fill="#fff"><polygon fill-opacity=".2" points="84.157 0 125.44 71.5 166.72 0"/><polygon fill-opacity=".1" points="42.878 71.5 84.157 0 125.44 71.5"/><polygon fill-opacity="0" points="42.878 71.5 84.157 143 125.44 71.5"/></g><polygon points="1.6 143 42.878 71.5 84.157 143" fill-opacity=".1"/><polygon points="1.6 143 42.878 214.5 84.157 143" fill-opacity=".2"/><polygon fill-opacity="0" points="125.44 214.5 84.157 143 42.878 214.5" fill="#fff"/><polygon fill-opacity="0" points="373.12 71.5 331.84 143 290.56 71.5" fill="#fff"/><g fill="#fff"><polygon fill-opacity=".2" points="331.84 143 373.12 71.5 414.4 143"/><polygon fill-opacity=".1" points="331.84 143 373.12 214.5 414.4 143"/><polygon fill-opacity="0" points="290.56 214.5 331.84 143 373.12 214.5"/></g><polygon points="290.56 214.5 331.84 286 373.12 214.5" fill-opacity=".1"/><polygon points="249.28 286 290.56 214.5 331.84 286" fill-opacity=".2"/><polygon points="125.44 214.5 84.157 286 42.878 214.5" fill-opacity=".2"/><polygon points="373.12 71.5 331.84 0 290.56 71.5" fill-opacity=".2"/></g></g><g display="none"><g display="inline"><polygon points="249.28 0 84.157 286 166.72 286 331.84 0" fill="#9F499B"/><g fill="#fff"><polygon fill-opacity=".2" points="249.28 0 290.56 71.5 331.84 0"/><polygon fill-opacity=".1" points="208 71.5 249.28 0 290.56 71.5"/><polygon fill-opacity="0" points="208 71.5 249.28 143 290.56 71.5"/></g><polygon points="166.72 143 208 214.5 249.28 143" fill-opacity=".2"/><polygon points="125.44 214.5 166.72 143 208 214.5" fill-opacity=".3"/><polygon points="125.44 214.5 166.72 286 208 214.5" fill-opacity=".4"/><polygon points="84.157 286 125.44 214.5 166.72 286" fill-opacity=".5"/><polygon points="166.72 143 208 71.5 249.28 143" fill-opacity=".1"/></g><g display="inline"><polygon points="331.84 0 166.72 286 249.28 286 373.12 71.5" fill="#9F499B"/><polygon fill-opacity=".1" points="290.56 71.5 331.84 0 373.12 71.5" fill="#fff"/><polygon fill-opacity="0" points="290.56 71.5 331.84 143 373.12 71.5" fill="#fff"/><polygon points="249.28 143 290.56 214.5 331.84 143" fill-opacity=".2"/><polygon points="208 214.5 249.28 143 290.56 214.5" fill-opacity=".3"/><polygon points="208 214.5 249.28 286 290.56 214.5" fill-opacity=".4"/><polygon points="166.72 286 208 214.5 249.28 286" fill-opacity=".5"/><polygon points="249.28 143 290.56 71.5 331.84 143" fill-opacity=".1"/></g><g display="inline"><polygon points="373.12 71.5 249.28 286 331.84 286 414.4 143" fill="#9F499B"/><polygon points="331.84 143 373.12 214.5 414.4 143" fill-opacity=".2"/><polygon points="290.56 214.5 331.84 143 373.12 214.5" fill-opacity=".3"/><polygon points="290.56 214.5 331.84 286 373.12 214.5" fill-opacity=".4"/><polygon points="249.28 286 290.56 214.5 331.84 286" fill-opacity=".5"/><polygon points="331.84 143 373.12 71.5 414.4 143" fill-opacity=".1"/></g><g display="inline"><polygon points="166.72 0 42.878 214.5 84.16 286 249.28 0" fill="#9F499B"/><g fill="#fff"><polygon fill-opacity=".2" points="166.72 0 208 71.5 249.28 0"/><polygon fill-opacity=".1" points="125.44 71.5 166.72 0 208 71.5"/><polygon fill-opacity="0" points="125.44 71.5 166.72 143 208 71.5"/></g><polygon points="84.16 143 125.44 214.5 166.72 143" fill-opacity=".2"/><polygon points="42.878 214.5 84.16 143 125.44 214.5" fill-opacity=".3"/><polygon points="42.878 214.5 84.16 286 125.44 214.5" fill-opacity=".4"/><polygon points="84.16 143 125.44 71.5 166.72 143" fill-opacity=".1"/></g><g display="inline"><polygon points="84.157 0 1.6 143 42.878 214.5 166.72 0" fill="#9F499B"/><g fill="#fff"><polygon fill-opacity=".2" points="84.157 0 125.44 71.5 166.72 0"/><polygon fill-opacity=".1" points="42.878 71.5 84.157 0 125.44 71.5"/><polygon fill-opacity="0" points="42.878 71.5 84.157 143 125.44 71.5"/></g><polygon points="1.6 143 42.878 214.5 84.157 143" fill-opacity=".2"/><polygon points="1.6 143 42.878 71.5 84.157 143" fill-opacity=".1"/></g><rect display="inline" height="416" width="416" y="-65" fill="none"/></g></svg>
