<?xml version="1.0" encoding="UTF-8"?>
<svg width="245px" height="64px" viewBox="0 0 245 64" version="1.1" xmlns="http://www.w3.org/2000/svg" xmlns:xlink="http://www.w3.org/1999/xlink">
    <!-- Generator: Sketch 46.2 (44496) - http://www.bohemiancoding.com/sketch -->
    <title>redux</title>
    <desc>Created with Sketch.</desc>
    <defs></defs>
    <g id="Page-1" stroke="none" stroke-width="1" fill="none" fill-rule="evenodd">
        <g id="Logos" transform="translate(-31.000000, -33.000000)">
            <g id="redux" transform="translate(31.000000, 33.000000)">
                <g id="redux-logo-figure" fill="#764ABC">
                    <path d="M35.3557463,22.8013908 C36.606314,22.8189801 37.7201652,22.8684099 38.4477954,22.9316314 C41.5797211,23.2037548 44.5098275,23.8239718 46.9685913,24.6739399 C50.7253494,25.9726105 54.2230057,27.8954642 57.4615602,30.4425009 C60.1982075,32.8725748 62.0524588,34.8603856 63.024314,36.4059332 C63.6014474,37.3237521 64.6176474,38.7806332 65.3902478,40.687118 C65.6053651,41.217946 65.9297615,41.9864091 66.2254814,43.0027246 C66.3511788,43.434715 66.5331152,44.1830818 66.7712906,45.247825 C66.9136406,46.6027639 66.9892844,47.5627581 66.998222,48.1278077 C67.0168374,49.3047108 66.8857248,50.2769332 66.7712906,50.9768895 C66.6460004,51.743248 66.4510679,52.6880851 66.0246341,53.7491544 C65.862269,54.1531576 65.5426305,54.7968531 65.0657185,55.680241 C63.7047822,57.6450575 62.2142226,59.1969557 60.5940396,60.3359356 C58.9738566,61.4749155 56.9032887,62.4347283 54.3823359,63.2153742 C52.2294054,63.9029267 49.5984285,64.0993575 46.4894052,63.8046668 C45.082061,63.6712708 43.4612003,63.2943269 42.0573958,62.8772056 C41.1287844,62.6012814 39.8081697,62.0818421 38.0955518,61.3188878 L41.9131726,58.2672095 C42.8711046,58.6617333 43.5735993,58.9287066 44.0206568,59.0681295 C45.1784744,59.4292158 46.241936,59.6175243 46.9685913,59.7458813 C47.6191025,59.8607882 48.3995261,59.9547285 49.321483,59.992109 C49.7910841,60.0111489 50.5766493,60.0111489 51.6781787,59.992109 C52.7813085,59.8224764 53.5584688,59.677946 54.0096597,59.5585176 C55.1907151,59.2458971 56.066829,58.8291129 56.7349015,58.4725262 C57.3660241,58.1356616 58.1478654,57.6704518 58.912704,56.9786215 C59.2518491,56.6718498 59.7621911,56.1167947 60.4437301,55.3134564 C61.3207916,54.0355606 61.8933731,53.1059595 62.1614748,52.5246531 C62.6184444,51.5338371 62.7878559,50.5172639 62.9067184,49.8267026 C63.046656,49.0136996 63.1958501,47.928569 63.024314,46.6186702 C62.9560541,46.0974181 62.7431792,45.234914 62.3856891,44.0311577 C61.8133611,42.3026676 61.1660415,40.8977662 60.4437301,39.8164534 C59.3602631,38.1944842 58.5798907,37.2022426 57.8905345,36.4059332 C57.1221376,35.5183202 55.9174947,34.3869895 54.3823359,33.240988 C53.7602441,32.7765943 52.7030785,32.0704441 51.2108391,31.1225376 C49.7709501,30.3228153 48.6638988,29.7561543 47.889685,29.4225546 C46.035202,28.6234795 43.9610911,27.9781527 42.75058,27.6894947 C41.5200988,27.3960746 39.4938173,27.0328904 37.3938903,26.9008697 C36.8475681,26.8665229 35.9146918,26.7594141 34.9824181,26.7697586 C34.6517449,26.7734278 34.1659808,26.8038757 33.5251255,26.8611025 C32.7992208,28.56542 31.1103348,29.7600953 29.1427309,29.7600953 C26.5127502,29.7600953 24.3807297,27.6256765 24.3807297,24.9927375 C24.3807297,22.3597985 26.5127502,20.2253797 29.1427309,20.2253797 C30.9834448,20.2253797 32.5802305,21.2709353 33.3728542,22.8011823 C34.2705482,22.7953545 34.9315122,22.7954239 35.3557463,22.8013908 Z" id="Combined-Shape"></path>
                    <path d="M45.1670646,46.7353745 C44.5263093,47.8108216 43.926385,48.7518153 43.5077128,49.3510597 C41.7056297,51.9303767 39.7032571,54.1606694 37.7378238,55.8674328 C34.734828,58.4752054 31.3212683,60.5462454 27.4971445,62.0805526 C24.025294,63.2381878 21.3775511,63.8519175 19.553916,63.9217418 C18.4709557,63.9632067 16.7018711,64.1158112 14.665549,63.8324129 C14.09857,63.7535055 13.2712808,63.6505255 12.2438446,63.3987567 C11.8071273,63.291741 11.0684878,63.0752964 10.0279262,62.7494227 C8.78416163,62.1953706 7.91554776,61.7809565 7.42208459,61.5061806 C6.39428383,60.9338685 5.61850716,60.3340827 5.07000655,59.88489 C4.46947175,59.3930841 3.74931693,58.7516591 3.04437202,57.8514064 C2.77596353,57.5086343 2.37879392,56.9096599 1.85286319,56.0544834 C0.833255257,53.8921436 0.235823444,51.8238797 0.0605677468,49.8496915 C-0.114687951,47.8755033 0.0903894638,45.6004151 0.67579999,43.0244268 C1.15768871,40.8140604 2.30371159,38.4347888 4.11386864,35.886612 C4.93326233,34.733143 6.07022275,33.5163293 7.13338112,32.5077919 C7.83665643,31.8406482 8.946749,30.9553953 10.4636588,29.8520333 L11.1950018,34.6877489 C10.3744246,35.3210136 9.79199885,35.7965896 9.4477246,36.1144769 C8.55610136,36.9377613 7.86119651,37.7656279 7.38664387,38.3314592 C6.96181825,38.8379988 6.49015492,39.4676557 5.99664335,40.2483018 C5.74527202,40.6459258 5.35233257,41.3270106 4.81782501,42.2915562 C4.41283951,43.3327856 4.14918052,44.0788487 4.02684803,44.5297453 C3.70662563,45.7100302 3.62907788,46.6780128 3.60349759,47.4355249 C3.5793321,48.1511403 3.59084696,49.0616013 3.80698334,50.0706313 C3.90282264,50.5180559 4.12789311,51.2380499 4.48219474,52.2306132 C5.1493771,53.6299733 5.66744675,54.5912019 6.03640368,55.1142992 C6.66527755,56.0058998 7.46027818,56.6610662 7.9984334,57.1094006 C8.63200759,57.6372281 9.49645038,58.3091447 10.7158362,58.8153725 C11.2010701,59.0168173 12.0539593,59.2635069 13.2745037,59.5554413 C15.0566134,59.9234783 16.5962011,60.0647032 17.8932666,59.979116 C19.838865,59.8507351 21.0878906,59.6702734 22.1218307,59.4707565 C23.2743209,59.2483633 24.8559339,58.7696037 26.615567,58.0116223 C27.3286224,57.7044658 28.468517,57.1409787 30.0352508,56.3211609 C31.4475607,55.4726388 32.4916945,54.7961562 33.1676524,54.291713 C34.786782,53.0834144 36.3827159,51.6078244 37.2380172,50.7026406 C38.1074285,49.7825239 39.4352726,48.2073305 40.5999058,46.4527049 C40.9028997,45.9962171 41.4622158,45.2409681 41.9195866,44.4275148 C42.0818139,44.1389867 42.2984434,43.7026053 42.569475,43.1183707 C41.4576597,41.6368526 41.2685707,39.5752512 42.2527654,37.8693392 C43.5682809,35.5891468 46.4818381,34.8078952 48.7603776,36.1243649 C51.0389171,37.4408346 51.8196024,40.3565054 50.504087,42.6366978 C49.5833626,44.2325962 47.8798295,45.094231 46.159087,45.0163118 C45.7151041,45.7975262 45.3844301,46.3705471 45.1670646,46.7353745 Z" id="Combined-Shape"></path>
                    <path d="M18.1543989,41.9383107 C17.563321,40.8351981 17.0663666,39.8363191 16.7687579,39.168805 C15.4877662,36.2956362 14.608833,33.430419 14.1592445,30.8664117 C13.4723159,26.9488517 13.4564903,22.9555807 14.1117679,18.8865987 C14.9082295,15.313606 15.7461187,12.7272835 16.6254357,11.127631 C17.1476154,10.1776821 17.9279448,8.58218594 19.2193002,6.98201613 C19.5788559,6.53647627 20.0930801,5.88012304 20.8378014,5.12875372 C21.1543492,4.80938011 21.7200962,4.28745753 22.5350425,3.56298598 C23.6500514,2.78175121 24.4522786,2.25030338 24.9417241,1.96864248 C25.9611567,1.38199021 26.8743339,1.02558456 27.5414981,0.786528298 C28.2719535,0.524793673 29.1921484,0.237519493 30.3261788,0.0965430799 C30.7579621,0.0428661661 31.4754732,0.0106851395 32.4787121,0 C34.8556763,0.238988496 36.9346632,0.791544052 38.7156726,1.65766667 C40.496682,2.52378928 42.3395319,3.87095086 44.2442223,5.6991514 C45.8890929,7.25034742 47.3366105,9.45797526 48.586775,12.3220349 C49.15268,13.6184928 49.6092982,15.2198658 49.9255477,16.6507264 C50.1347456,17.5972353 50.3212406,19.004868 50.4850327,20.8736246 L45.9669514,19.0110883 C45.8471755,17.9814394 45.7398085,17.2371822 45.6448505,16.7783167 C45.3989222,15.5899179 45.0477656,14.5678392 44.8075496,13.8696121 C44.5925052,13.2445502 44.2961391,12.5159403 43.8817122,11.6908606 C43.6706228,11.2706041 43.2896718,10.58302 42.7388592,9.62810807 C42.0556721,8.74477663 41.5524962,8.13459235 41.2293314,7.79755523 C40.3834023,6.91531338 39.5943257,6.35045915 38.9587411,5.93852463 C38.3583097,5.5493735 37.5726318,5.09050198 36.5971625,4.75633871 C36.1646194,4.60816385 35.432089,4.43046964 34.3995714,4.22325605 C32.8575359,4.07489013 31.7675188,4.0242344 31.1295199,4.07128885 C30.0420736,4.15149147 29.0715669,4.49586866 28.4104654,4.72649598 C27.6321456,4.99801526 26.6115328,5.39331294 25.5500365,6.17826583 C25.127632,6.49062456 24.4771471,7.09494088 23.5985819,7.99121479 C22.3656508,9.32983057 21.4518604,10.5772649 20.8572108,11.7335177 C19.9652363,13.4678969 19.4765792,14.6318027 19.1150042,15.6210905 C18.7119714,16.7238086 18.3075139,18.3264733 18.0505159,20.2255396 C17.9463728,20.9950975 17.8419501,22.2626254 17.7372481,24.0281233 C17.736653,25.6759863 17.7783172,26.9195777 17.8622408,27.7588976 C18.0632639,29.7693299 18.5051491,31.8974861 18.8399233,33.0969055 C19.1802204,34.3161118 19.8454671,36.2656705 20.7484341,38.167661 C20.9833523,38.6624876 21.342141,39.5309169 21.8032764,40.3418978 C21.966839,40.629549 22.2290124,41.0399695 22.5897966,41.5731592 C24.4311673,41.3825664 26.294164,42.2818315 27.2483313,44.0040224 C28.5237108,46.3059739 27.6924063,49.2064707 25.3915609,50.4824632 C23.0907154,51.7584558 20.1916123,50.9267517 18.9162328,48.6248002 C18.0235993,47.0136727 18.1629354,45.1093449 19.1157979,43.673984 C18.6753786,42.8910809 18.3549122,42.3125232 18.1543989,41.9383107 Z" id="Combined-Shape"></path>
                </g>
                <g id="redux-logo-text" transform="translate(102.000000, 13.000000)" fill="#000000">
                    <path d="M0.00218477722,1.07934584 L14.3678347,1.07934584 C15.5854492,1.13514719 16.4797041,1.20656895 17.0505995,1.29361112 C17.6214948,1.38065329 18.4380148,1.57006666 19.5001594,1.86185122 C21.0548965,2.40224784 22.1916117,2.88743746 22.9103051,3.31742007 C23.6289985,3.74740268 24.5501934,4.49342743 25.6738899,5.5554943 C26.5711127,6.84821964 27.1549788,7.91756667 27.4254881,8.76353539 C27.6959974,9.60950412 27.8735041,10.9212123 27.9580083,12.6986599 C27.8191722,14.492058 27.5807887,15.8245494 27.2428578,16.6961341 C26.9049268,17.5677188 26.1576025,18.7775451 25.0008849,20.3256131 C24.2304986,21.1041376 23.6016224,21.6532989 23.114256,21.973097 C22.6268897,22.2928951 21.7173743,22.7720641 20.3857097,23.4106042 C20.8874921,23.7459444 21.2463069,23.9996319 21.4621542,24.1716666 C21.6780015,24.3437013 21.9634337,24.6034917 22.3184507,24.9510379 L23.3626663,26.2300318 L31.4114564,39.4503149 L22.9103051,39.4503149 C22.2155255,39.4113403 21.7328086,39.326283 21.4621542,39.1951429 C21.1914999,39.0640028 20.832685,38.7413128 20.3857097,38.2270729 L13.7382973,26.7141492 C13.3313633,26.1189968 13.024335,25.7484174 12.8172125,25.602411 C12.6100901,25.4564046 12.2486859,25.3557873 11.7330001,25.3005592 L8.84975518,25.3005592 L8.84975518,39.4503149 L0.00218477722,39.4503149 L0.00218477722,1.07934584 Z M8.87171759,7.71895891 L8.87171759,19.1328471 L13.0362186,19.1328471 C17.117344,18.7984471 19.1645547,16.8566619 19.1778508,13.3074917 C19.1911468,9.7583214 17.1439361,7.89547715 13.0362186,7.71895891 L8.87171759,7.71895891 Z" id="Combined-Shape"></path>
                    <path d="M42.8566888,11.7053082 C47.0561389,11.7053082 50.3041184,13.1459114 52.6006271,16.0271178 C54.8971357,18.9083242 55.6962032,22.3745126 54.9978294,26.4256829 C54.8341794,26.8344749 54.6310242,27.0836482 54.3883637,27.1732028 C54.1457032,27.2627575 53.549791,27.3084828 52.6006271,27.3103786 L37.6795449,27.3103786 C37.9223294,30.57628 39.2261912,32.6366738 41.5911304,33.4915598 C43.6858873,34.2487795 46.1849384,33.831618 49.1934308,32.3201623 C49.4521214,32.1901971 49.8652823,31.9897263 50.4329135,31.7187501 C50.9175388,31.6048123 51.2839254,31.563167 51.5320732,31.5938142 C51.780221,31.6244614 52.0956714,31.7503162 52.4784245,31.9713785 L54.9978294,35.2308475 C53.6796038,37.0034 51.7448043,38.2935949 49.1934308,39.1014325 C46.6420573,39.90927 44.0432834,40.1579287 41.397109,39.8474086 C37.612293,39.3500912 34.6701513,37.8112375 32.5706841,35.2308475 C30.4712168,32.6504575 29.3996429,29.3880112 29.3559623,25.4435086 C29.2934247,21.8870092 30.41413,18.7482122 32.7180784,16.0271178 C35.0220268,13.3060234 38.4015636,11.8654202 42.8566888,11.7053082 Z M37.7431874,22.5083435 L47.8642298,22.5083435 C47.8642298,20.898917 47.4209787,19.6199328 46.5344764,18.6713908 C45.6479741,17.7228489 44.4043848,17.2889367 42.8037086,17.3696543 C41.1599411,17.4637513 39.9567177,17.9785648 39.1940385,18.914095 C38.4313592,19.8496251 37.9477422,21.0477079 37.7431874,22.5083435 Z" id="Combined-Shape"></path>
                    <path d="M74.9700332,0.00873064108 L83.137552,0.00873064108 L83.137552,39.4479495 L77.5842518,39.4479495 C76.9552653,39.3458317 76.5326686,39.1318443 76.3164618,38.8059875 C76.100255,38.4801306 75.7914929,37.591848 75.3901754,36.1411397 C73.024341,38.6457909 70.2961405,39.9168796 67.2055741,39.9544058 C64.1150077,39.991932 61.5987192,38.7208433 59.6567086,36.1411397 C57.8017797,33.4724706 56.8986627,29.9629411 56.9473578,25.612551 C56.9960529,21.262161 58.1863824,17.8294964 60.5183463,15.3145573 C62.0478232,13.4163994 64.2768992,12.2145332 67.2055741,11.7089588 C70.134249,11.2033843 72.7224021,11.9312744 74.9700332,13.892629 L74.9700332,0.00873064108 Z M74.8760792,19.4696741 C74.1865923,18.6984544 73.538241,18.1986607 72.9310251,17.970293 C72.3238093,17.7419252 71.3700828,17.6391937 70.0698459,17.6620983 C67.5826664,17.9948369 66.1244158,19.6835144 65.6950941,22.728131 C65.4938699,24.1551513 65.366255,25.5246722 65.46124,27.3698633 C65.504289,28.2061398 65.7271966,29.4248585 66.1299627,31.0260192 C66.6474461,32.7981753 67.9607405,33.676709 70.0698459,33.6616201 C72.1789513,33.6465313 73.781029,32.7679976 74.8760792,31.0260192 L74.8760792,19.4696741 Z" id="Combined-Shape"></path>
                    <path d="M112.222561,12.1499964 L112.222561,39.5232684 L106.658394,39.5232684 C106.049258,39.3363674 105.639342,39.088637 105.428647,38.7800771 C105.217951,38.4715172 104.963431,37.7461929 104.665086,36.6041042 C102.388613,38.822845 99.7403291,39.9381209 96.7202335,39.9499319 C93.700138,39.961743 91.2580555,38.846467 89.3939861,36.6041042 C88.4722907,35.0668837 87.9039639,33.8251471 87.6890059,32.8788945 C87.4740478,31.9326419 87.3643324,30.1896142 87.3598596,27.6498115 L87.3598596,12.1499964 L95.6062566,12.1499964 L95.6062566,29.9111303 C95.706803,32.0008987 96.5781256,33.2672984 98.2202243,33.7103293 C99.862323,34.1533602 101.786062,33.4699415 103.991443,31.6600731 L103.991443,12.1499964 L112.222561,12.1499964 Z" id="Path-11"></path>
                    <path d="M114.15314,12.1268384 L122.662631,12.1268384 C123.114387,12.2941543 123.415111,12.4457662 123.564803,12.5816741 C123.714496,12.717582 123.903954,12.9875256 124.13318,13.3915049 L128.859114,21.2137983 L133.439284,12.9734473 C133.718139,12.6490945 133.951317,12.4351208 134.138818,12.3315261 C134.326318,12.2279315 134.603912,12.1597023 134.971598,12.1268384 L142.649067,12.1268384 L133.800598,24.9668851 L142.972704,39.4842841 L134.620048,39.4842841 C134.116449,39.3784569 133.745434,39.2239886 133.507003,39.0208791 C133.268572,38.8177697 132.947209,38.3824309 132.542915,37.7148629 L127.935207,29.8068093 L123.200197,38.0252362 C122.819788,38.5844703 122.522918,38.9488107 122.309586,39.1182573 C122.096255,39.2877039 121.780817,39.4097128 121.363273,39.4842841 L113.721792,39.4842841 L122.873557,25.4156115 L114.056944,12.1268384 L114.15314,12.1268384 Z" id="Path-12"></path>
                </g>
            </g>
        </g>
    </g>
</svg>