<?xml version="1.0" encoding="UTF-8"?>
<svg width="241px" height="92px" viewBox="0 0 241 92" version="1.1" xmlns="http://www.w3.org/2000/svg" xmlns:xlink="http://www.w3.org/1999/xlink">
    <!-- Generator: Sketch 46.2 (44496) - http://www.bohemiancoding.com/sketch -->
    <title>vue</title>
    <desc>Created with Sketch.</desc>
    <defs></defs>
    <g id="Page-1" stroke="none" stroke-width="1" fill="none" fill-rule="evenodd">
        <g id="Logos" transform="translate(-31.000000, -394.000000)">
            <g id="vue" transform="translate(31.000000, 394.000000)">
                <g id="Vue-logo">
                    <polygon id="Path-6" fill="#41B883" points="85.7207858 0.189790418 106.777577 0.189790418 53.6071737 91.8144847 0.0873377105 0.189790418 21.6234789 0.189790418 53.6071737 55.3499846"></polygon>
                    <polygon id="Path-5" fill="#35495E" points="65.8214402 0.171114617 85.848703 0.171114617 53.5811088 55.4463866 21.5721636 0.171114617 41.2857967 0.171114617 53.5811088 21.4509711"></polygon>
                </g>
                <g id="vue-logo-text" transform="translate(128.000000, 24.000000)" fill="#010101">
                    <path d="M0,1.89583333 C0,1.35416396 0.30068321,0.902779583 0.902058649,0.541666667 C1.50343409,0.18055375 2.13213535,0 2.78818128,0 C3.69935619,0 4.26427616,0.343052125 4.48295814,1.02916667 L14.1049171,33.2041667 L23.6722058,1.02916667 C23.9273347,0.343052125 24.4740315,0 25.3123124,0 C26.0048053,0 26.6517298,0.198609125 27.2531053,0.595833333 C27.8544807,0.993057542 28.1551639,1.44444192 28.1551639,1.95 C28.1551639,1.98611129 28.1460523,2.04027742 28.1278288,2.1125 C28.1096053,2.18472258 28.1004937,2.25694408 28.1004937,2.32916667 L17.0024388,38.35 C16.6015218,39.3972275 15.6356909,39.9208333 14.1049171,39.9208333 C12.5741432,39.9208333 11.6447587,39.3972275 11.3167358,38.35 L0.109340442,2.32916667 C0.0364464496,2.11249892 0,1.96805592 0,1.89583333 Z M28.5856918,29.6291667 L28.5856918,15.5458333 C28.5856918,15.1124978 28.8134821,14.733335 29.2690696,14.4083333 C29.724657,14.0833317 30.2622422,13.9208333 30.8818411,13.9208333 C31.4649931,13.9208333 31.984355,14.0923594 32.4399424,14.4354167 C32.8955299,14.7784739 33.1233202,15.1486091 33.1233202,15.5458333 L33.1233202,29.6291667 C33.1233202,31.2541748 33.7429098,32.7166602 34.9821077,34.0166667 C36.2213056,35.3166732 37.6973868,35.9666667 39.4103956,35.9666667 C41.0869574,35.9666667 42.5448154,35.3257009 43.7840133,34.04375 C45.0232112,32.7617991 45.6428008,31.2902861 45.6428008,29.6291667 L45.6428008,15.4916667 C45.6428008,15.0944425 45.8705911,14.733335 46.3261786,14.4083333 C46.781766,14.0833317 47.3193512,13.9208333 47.9389501,13.9208333 C48.594996,13.9208333 49.1325812,14.074304 49.5517216,14.38125 C49.9708621,14.688196 50.1804292,15.0583312 50.1804292,15.4916667 L50.1804292,29.6291667 C50.1804292,32.4097361 49.1143705,34.8381841 46.9822212,36.9145833 C44.850072,38.9909826 42.3261553,40.0291667 39.4103956,40.0291667 C36.4581889,40.0291667 33.916049,38.9909826 31.7838998,36.9145833 C29.6517505,34.8381841 28.5856918,32.4097361 28.5856918,29.6291667 Z M53.8911704,29.5208333 L53.8911704,23.8333333 C53.8911704,21.0527639 54.957229,18.651399 57.0893783,16.6291667 C59.2215276,14.6069343 61.7818907,13.5958333 64.7705444,13.5958333 C67.6134101,13.5958333 70.0735455,14.5437405 72.1510242,16.4395833 C74.228503,18.3354261 75.2672268,20.709708 75.2672268,23.5625 C75.2672268,24.6097275 75.1396643,25.4493024 74.8845353,26.08125 C74.6294063,26.7131976 74.237607,27.164582 73.7091255,27.4354167 C73.1806441,27.7062514 72.688617,27.8777774 72.2330296,27.95 C71.7774421,28.0222226 71.1669641,28.0583333 70.4015772,28.0583333 L58.4287987,28.0583333 L58.4287987,29.6833333 C58.4287987,31.6694544 59.1486161,33.2583274 60.5882725,34.45 C62.0279288,35.6416726 63.8958094,36.2375 66.1919701,36.2375 C67.394721,36.2375 68.4425564,36.0569462 69.3355079,35.6958333 C70.2284593,35.3347204 70.9482766,34.9826406 71.4949816,34.6395833 C72.0416865,34.2965261 72.4790439,34.125 72.8070669,34.125 C73.3173248,34.125 73.7546822,34.3506922 74.1191522,34.8020833 C74.4836222,35.2534745 74.6658544,35.7138865 74.6658544,36.1833333 C74.6658544,37.013893 73.8366977,37.8624957 72.1783594,38.7291667 C70.520021,39.5958377 68.4699082,40.0291667 66.0279595,40.0291667 C62.4561538,40.0291667 59.5404379,39.0632041 57.2807241,37.13125 C55.0210103,35.1992959 53.8911704,32.6625157 53.8911704,29.5208333 Z M58.4287987,25.025 L68.5427896,25.025 C69.4904116,25.025 70.1282244,24.9076401 70.4562474,24.6729167 C70.7842704,24.4381933 70.9482794,23.9777812 70.9482794,23.2916667 C70.9482794,21.6666585 70.346913,20.2402839 69.1441621,19.0125 C67.9414112,17.7847161 66.46533,17.1708333 64.7158742,17.1708333 C63.0028653,17.1708333 61.5267841,17.7395776 60.2875862,18.8770833 C59.0483884,20.014589 58.4287987,21.4138806 58.4287987,23.075 L58.4287987,25.025 Z M77.5565423,37.1041667 C77.5565423,36.3097182 77.8298907,35.6326417 78.3765956,35.0729167 C78.9233006,34.5131916 79.5975599,34.2333333 80.3993938,34.2333333 C81.1647807,34.2333333 81.8208168,34.5131916 82.3675218,35.0729167 C82.9142267,35.6326417 83.1875751,36.3097182 83.1875751,37.1041667 C83.1875751,37.8625038 82.9142267,38.521525 82.3675218,39.08125 C81.8208168,39.640975 81.1647807,39.9208333 80.3993938,39.9208333 C79.5975599,39.9208333 78.9233006,39.640975 78.3765956,39.08125 C77.8298907,38.521525 77.5565423,37.8625038 77.5565423,37.1041667 Z M81.5953048,50.05 C81.5953048,49.4722193 81.7775371,48.9937519 82.142007,48.6145833 C82.506477,48.2354148 82.9438344,48.0458333 83.4540923,48.0458333 C84.8755252,48.0458333 85.8049096,47.5222275 86.2422736,46.475 C86.6796376,45.4277725 86.8983163,43.8569549 86.8983163,41.7625 L86.8983163,15.4916667 C86.8983163,15.0222199 87.1078833,14.643057 87.5270238,14.3541667 C87.9461643,14.0652763 88.4837494,13.9208333 89.1397953,13.9208333 C89.7958413,13.9208333 90.342538,14.0652763 90.779902,14.3541667 C91.2172659,14.643057 91.4359446,15.0222199 91.4359446,15.4916667 L91.4359446,41.7625 C91.4359446,44.9041824 90.816355,47.3958241 89.5771571,49.2375 C88.3379592,51.0791759 86.4609671,52 83.9461243,52 C82.3789035,52 81.5953048,51.3500065 81.5953048,50.05 Z M86.2969438,4.27916667 C86.2969438,3.59305213 86.5702922,2.99722475 87.1169971,2.49166667 C87.6637021,1.98610858 88.3379614,1.73333333 89.1397953,1.73333333 C89.9051822,1.73333333 90.5612183,1.98610858 91.1079233,2.49166667 C91.6546282,2.99722475 91.9279766,3.59305213 91.9279766,4.27916667 C91.9279766,4.96528121 91.6546282,5.57013627 91.1079233,6.09375 C90.5612183,6.61736373 89.9051822,6.87916667 89.1397953,6.87916667 C88.3744084,6.87916667 87.7092607,6.61736373 87.1443323,6.09375 C86.5794038,5.57013627 86.2969438,4.96528121 86.2969438,4.27916667 Z M94.8186645,35.9125 C94.8186645,35.4430532 94.9735619,34.9826411 95.2833614,34.53125 C95.5931608,34.0798589 95.9667369,33.8541667 96.4041009,33.8541667 C96.6956769,33.8541667 97.114811,34.0708312 97.661516,34.5041667 C98.2082209,34.9375022 98.9918196,35.3618035 100.012335,35.7770833 C101.032851,36.1923632 102.235584,36.4 103.62057,36.4 C105.44292,36.4 106.764104,36.0750032 107.584161,35.425 C108.404219,34.7749968 108.814241,33.9625049 108.814241,32.9875 C108.814241,31.7958274 108.35866,30.8479202 107.447486,30.14375 C106.536311,29.4395798 105.424694,28.9069463 104.112602,28.5458333 C102.80051,28.1847204 101.488438,27.7875022 100.176346,27.3541667 C98.8642543,26.9208312 97.7526376,26.1986162 96.8414627,25.1875 C95.9302878,24.1763838 95.4747071,22.8402861 95.4747071,21.1791667 C95.4747071,19.120823 96.2127477,17.3423686 97.6888511,15.84375 C99.1649544,14.3451314 101.415523,13.5958333 104.440623,13.5958333 C106.372314,13.5958333 108.139967,13.893747 109.743635,14.4895833 C111.347303,15.0854196 112.149125,15.7624962 112.149125,16.5208333 C112.149125,16.9541688 111.976004,17.441664 111.629757,17.9833333 C111.283511,18.5250027 110.855265,18.7958333 110.345007,18.7958333 C110.199219,18.7958333 109.497625,18.5340304 108.240204,18.0104167 C106.982782,17.4868029 105.734492,17.225 104.495294,17.225 C102.818732,17.225 101.570441,17.6131906 100.750383,18.3895833 C99.9303261,19.1659761 99.5203035,20.0416618 99.5203035,21.0166667 C99.5203035,22.0277828 99.9758841,22.8222193 100.887059,23.4 C101.798234,23.9777807 102.918962,24.429165 104.249278,24.7541667 C105.579593,25.0791683 106.900777,25.4763865 108.212869,25.9458333 C109.524961,26.4152801 110.636577,27.2187443 111.547752,28.35625 C112.458927,29.4937557 112.914508,30.9652688 112.914508,32.7708333 C112.914508,35.0097334 112.112686,36.7791602 110.509018,38.0791667 C108.90535,39.3791732 106.663893,40.0291667 103.784581,40.0291667 C101.306185,40.0291667 99.1922909,39.58681 97.4428351,38.7020833 C95.6933793,37.8173567 94.8186645,36.8875049 94.8186645,35.9125 Z" id="Vue.js"></path>
                </g>
            </g>
        </g>
    </g>
</svg>