<svg version="1.1" id="Layer_1" xmlns="http://www.w3.org/2000/svg" xmlns:xlink="http://www.w3.org/1999/xlink" x="0px" y="0px"
	 viewBox="0 0 87.2 134.1" enable-background="new 0 0 87.2 134.1" xml:space="preserve">
<g>
	<path fill="#ECF8FE" d="M16,52.9c1.7-1.4-6.7-22.7,5.9-39.6c0.3,4.1,0.8,6.2,0.8,6.2s6.5-15,17.1-17.2C39.3,4.6,39,10,39,10
		S49.4-1.2,60.7,0.1c-2.4,2.1-2.9,9.1-2.9,9.1s5.5-1.2,8.1-0.1c-3.3,2.9-2.6,7.3-2.6,7.3s5.7-5.5,13.4-2.7c-1.2,1.5-2.8,9.8-2.8,9.8
		s1.6-0.8,2.8-0.6c-7.8,8.4-5.3,25.7-5.3,25.7s1.8-2,3.1-1.6c0,0-3,4.3-3.1,6.4v9.9c0,0,4.5,3.3,5.8,5.1s4.1,5.6,6.5,5.6
		c0,0-1.5,1.3-3.5,1.1c0,0,2.4,3.3,2.6,8.2c0.2,3.6,2.8,8,4.4,7.6c0,0,0,1.2-1.5,1.1c0,0,0.6,1.8,1.1,1.8c0,0-1.2,0.6-1.9,0
		c0,0,2.6,7.9,1.7,15h-1.1c0,0-0.4,5.9-2.4,7.1l-0.5-1.2c0,0-2,3.7-7.6,3.5l0.7,2.8l1.8-0.7l-1.5,2.1l1.8,0.6l-1.4,0.4
		c0,0,3.8,1.5,4.8,4.3c-0.6,0-1.2,0-1.2,0s2.2,3.8,1.2,5.3c-3.1-1.1-5.8-1.1-5.8-1.1l-0.2,2.2c0,0-8.6-1.2-11.5-0.5
		c-0.2-0.8-0.3-1.5-0.3-1.5s-3.9-0.2-5.6-0.2c-0.4-8.3-4.3-14.2-4.3-14.2s-7.6,3.1-17.9,0c0,0-3.9,6.3-4.6,14.3
		c-0.9,0-4.8,0.1-6.4,0c-0.7,0.2-0.7,1.5-0.7,1.5L13,134.1v-2c0,0-4.2,0.3-6.9,0.7c0.6-2.6,1.8-5.5,1.8-5.5s-0.2,0.1-1.2,0.5
		c1-3.1,4.6-4.7,4.6-4.7l-1.2-0.2l1.6-0.6l-1.6-2.3l2.3,0.5l0.2-1.9c0,0-7.5-0.8-10.7-9.2L0,111c0,0,0.3-6.1,1.6-9.5
		c-0.3-0.9-1.6-1.3-1.6-1.3s1.2-1.6,2.4-1.6c-0.4-3.5,2.1-9.4,2.1-9.4l-2.6,0.5c0,0,0.9-6.6,4.8-11.5c-0.3-0.7-3.8,0.5-3.8,0.5
		l7.9-9.4l-2.1-1.7l3.3-0.6c0,0,1.5-1.9,3.5-3.1c0.1-2.6-2.1-5.2-2.1-5.2h2c0,0-0.1-3.7-1.9-6.9C14.1,52.3,14.6,52.1,16,52.9z"/>
	<path fill="#CDEBF8" d="M53.4,117.8c6.5-1.8,12.8-8.7,12.8-8.7c0.2,6-6.2,12.9-6.2,12.9c3.2,0.2,4.1-1.2,4.1-1.2
		c-0.2,2.7-2.5,3.5-2.5,3.5c6.8-1.8,5.5,9.1,5.5,9.1l-3.6,0.2c-0.2-0.8-0.3-1.5-0.3-1.5s-3.9-0.2-5.6-0.2
		C57.3,123.6,53.4,117.8,53.4,117.8z"/>
	<g>
		<path fill="#9FD6EC" d="M34.2,48.4c1,0,2,0.5,2.5,1.2c-0.2-1.5-1.3-2.6-2.8-2.6c-1.5,0-2.8,1.3-2.8,2.9c0,0.1,0,0.3,0,0.4
			C31.6,49.2,32.8,48.4,34.2,48.4z"/>
	</g>
	<g>
		<path fill="#9FD6EC" d="M56.9,51.9c0.6,0.6,0.8,1.3,0.8,2c0.7-0.9,0.7-2.1-0.1-2.9c-0.8-0.8-2.2-0.8-3.1,0.1
			c-0.1,0.1-0.1,0.2-0.2,0.2C55.1,51,56.2,51.2,56.9,51.9z"/>
	</g>
	<g>
		<path fill="#9FD6EC" d="M55.1,55.6c0.9,0.3,1.5,0.9,1.8,1.7c0.3-1.3-0.4-2.6-1.6-3c-1.3-0.4-2.7,0.3-3.2,1.7
			c0,0.1-0.1,0.2-0.1,0.4C52.8,55.6,54,55.2,55.1,55.6z"/>
	</g>
	<g>
		<path fill="#9FD6EC" d="M35,53.4c1.3-0.1,2.6,0.3,3.4,1.1c-0.4-1.7-2-2.9-3.8-2.7c-2,0.2-3.4,1.9-3.3,3.8c0,0.2,0,0.3,0.1,0.5
			C31.8,54.7,33.2,53.6,35,53.4z"/>
	</g>
	<path fill="#FFFFFF" d="M40.5,62.6c0,2.7-1.6,4.9-3.6,4.9c-2,0-3.6-2.2-3.6-4.9c0-1.2,0.3-2.3,0.8-3.1c0.7-1.1,2.7,0.2,5.9,0.9
		C40.4,61,40.5,61.8,40.5,62.6z"/>
	<ellipse cx="37" cy="62.6" rx="1.7" ry="2.2"/>
	<ellipse fill="#FFFFFF" cx="37.2" cy="61.4" rx="1" ry="0.9"/>
	<path fill="#FFFFFF" d="M57.3,62.6c0,2.7-1.6,4.9-3.6,4.9s-3.6-2.2-3.6-4.9c0-1,0.2-2,0.6-2.7c3.5-0.5,5-1.5,5.7-0.5
		C57,60.3,57.3,61.4,57.3,62.6z"/>
	<ellipse cx="53.7" cy="62.6" rx="1.7" ry="2.2"/>
	<ellipse fill="#FFFFFF" cx="54" cy="61.4" rx="1" ry="0.9"/>
	<g>
		<path fill="#5C5B5D" d="M64,58.5c-2.3,0.2-9.4-0.2-16,1.2c0,0-3.7,0.8-7.3,0c-3.6-0.8-13.1-2.3-20.3,0l0.1,0.6
			c0.1,0.6,0.7,1.1,1.3,0.9l2.1-0.4l0.5,5.7c0,0-0.1,3.1,3.8,3.8c4,0.7,10.4,0.3,10.4,0.3s3.1-0.3,3.8-2.2c0.9-2.5,0.8-5.2,2.2-5.5
			c1.8-0.4,1.9,2.7,1.9,2.7s0.4,4.7,4,4.9c3.5,0.6,7.3,1,11.8-0.3c3.9-1.3,3.5-9.5,3.5-9.5s1,0.1,1.8,0.3c0.7,0.1,1.3-0.3,1.4-1
			l0.1-0.4C69.1,59.6,66.3,58.3,64,58.5z M41.5,66.2c-0.2,2-2.1,3-3.6,3H29c-1.5,0-2.8-1.3-2.8-2.8l-0.3-3.6c0-1.5,0.2-2.4,1.7-2.4
			l9.6-0.3c1.5,0,4.7,0.8,4.7,2.3L41.5,66.2z M63.7,66.4c0,1.5-1.3,2.8-2.8,2.8H52c-1.5,0-3.4-1-3.6-3L48,62.4
			c0-1.5,3.2-2.3,4.7-2.3l9.6,0.3c1.5,0,1.7,0.9,1.7,2.4L63.7,66.4z"/>
	</g>
	<path d="M45.1,74.8l8-0.2l0.7-1.1c0,0,0,1.8,0.6,1.8c0,0-1.7,0.9-4.7,0.7l2.7-0.6L45.1,74.8z"/>
	<path fill="#B1E0F3" d="M35.3,79.8l2,1.9c0.1,0.1,0.2,0.1,0.3,0l2.9-1.5c0.2-0.1,0.3,0,0.4,0.2c0.2,0.8,0.9,2.9,1.3,3.6
		c0.1,0.1,0.3,0.2,0.4,0.1c1.2-1,4-2.8,5.2-2.7c0.1,0,0.2,0.1,0.2,0.2c0.5,0.9,1.9,1.9,2.6,2.4c0.3,0.2,0.6,0.2,0.9,0
		c0.3-0.3,0.8-0.7,1.2-1.1c0.2-0.2,0.5-0.1,0.5,0.2c-0.1,1.2-0.5,3-1.8,4.2c-0.1,0.1-0.2,0.1-0.3,0c-0.5-0.3-1.8-1.1-3.6-3
		c-0.1-0.1-0.2-0.1-0.3-0.1c-0.7,0.4-2.9,1.7-4.1,3.6c-0.1,0.1-0.3,0.2-0.4,0.1c-0.7-0.7-2.9-2.9-3.5-4.3c-0.1-0.1-0.2-0.2-0.3-0.1
		c-0.4,0.1-1.4,0.3-2.2,0.7c-0.1,0.1-0.3,0-0.4-0.1c-0.4-0.6-1.4-2.3-1.5-4C34.8,79.8,35.1,79.6,35.3,79.8z"/>
	<path fill="#CDEBF8" d="M75.2,131.8c0,0,0.2-4.5-1-5.7c0,0,1.9,0.1,2.3,5.7H75.2z"/>
	<path fill="#CDEBF8" d="M13,132.1c0,0-0.2-4.5,1-5.7c0,0-1.9,0.1-2.3,5.7H13z"/>
	<path fill="#CDEBF8" d="M71.4,63.3c0,0,3.8,2.7,5.1,4.3c0,0-0.9,5.6-0.6,9.7c0.3,4.1,0.6,11.4,0.6,11.4l2.3-1.8l-2.8,10.6
		c0,0,1.9,0.7,2,1.7c0,0-2.2,1.6-2.8,3.3c-0.1,0.2-0.1,0.5-0.1,0.7c0,2,0,1.4,0,1.4l2.6-3l-3.8,9.4c0,0,2.1,1.3,6.6-1.1
		c0,0-1.9,2.2-4.6,2.8v5.5l-0.7,0c0,0-1.3-3.4-1.5-6.2c0,0-1.9-4.3,0.4-14.7c0,0,0.8-6.3,0.1-10.6c-0.7-4.3-2.7-11.7-2.4-15.1
		C72,68.1,71.4,63.3,71.4,63.3z"/>
	<path fill="#CDEBF8" d="M39,10c0,0,0.4-5.4,0.9-7.7C29.2,4.5,22.7,19.4,22.7,19.4s-0.5-2.1-0.8-6.2c-12.6,17-4.3,38.3-5.9,39.6
		c-1.4-0.8-1.9-0.6-2.6-1.1c1.8,3.2,1.9,6.9,1.9,6.9h-2c0,0,2.3,2.6,2.1,5.2c-2.1,1.2-3.5,3.1-3.5,3.1l-3.3,0.6l2.1,1.7l-7.9,9.4
		c0,0,3.5-1.2,3.8-0.5c-3.9,4.9-4.8,11.5-4.8,11.5l2.6-0.5c0,0-2.4,5.9-2.1,9.4c-1.3,0-2.4,1.6-2.4,1.6s1.2,0.3,1.6,1.3
		C0.3,104.9,0,111,0,111l1.9-1.5c3.2,8.4,10.7,9.2,10.7,9.2l-0.2,1.9l-2.3-0.5l1.6,2.3l-1.6,0.6l1.2,0.2c0,0-3.7,1.6-4.6,4.7
		c1-0.4,1.2-0.5,1.2-0.5s-1.2,2.9-1.8,5.5c2.8-0.4,6.9-0.7,6.9-0.7v2l1.8-0.1c0,0-0.4-6,1.6-7.1c1.9-1.1,2.3-6,1.1-8.5l2.2,2.4v-3.1
		c0.7,1,4.2,5.4,10.3,7.5c0,0,0.5,3.7,1.3,4.9c0,0,1.6-8.2,4.4-12.3c0,0-8.1-2-13.9-10.4c0,0,0,0,0-0.1l-2.2-3.8
		c-0.2-0.4-0.3-0.8-0.5-1.1c0-0.3,0.4-0.4,2,0.6c0,0-3.3-8.8-3.1-14.4c0,0,0.8,0.8,1.6,0.7c0,0-8.5-31.9,7.1-49.3l-3.1-0.8
		c0,0,1.2-4.3,8.5-11.5c0,0-5.1,0.3-8.5,1.9c0,0,1.4-8.2,11.3-19.3c0,0,0.5,6.2,1.2,7.9C49.6,1.2,59.1,2.9,59.1,2.9
		c0.4-1.2,1-2.2,1.7-2.8C49.4-1.2,39,10,39,10z"/>
	<path fill="#ABDCE4" d="M15.4,67v8.2c0,0-4.4,17.3-1.6,29.7c0,0-0.3,12.1-1.2,13.8c0,0-2.2-2.3-2-8.1l-2.1-0.4c0,0-3.5-12.6,0-22.8
		l1.7,0.4l-0.8-3.1C9.4,84.8,12.4,71.1,15.4,67z"/>
	<path fill="#85C1CE" d="M9.7,100.2c0,0,4.1,3.9,4.1,7.1l-0.4,5.3c0,0-5.1-1.4-6.8-4.5c0,0,3.6,2.9,5.6,2.8
		C12.2,111,12.2,103.2,9.7,100.2z"/>
	<path fill="#ABDCE4" d="M33.5,122c0,0,0.8-2.1,2.1-4.2c0,0-4.6-0.4-13.3-9.5C25.5,114,32.9,118.9,33.5,122z"/>
	<path fill="#ABDCE4" d="M55.5,121.8c0,0-0.9-2.2-2-4.1c0,0,4.9-1.7,9.1-4.9C62.5,112.8,56.2,120.5,55.5,121.8z"/>
	<path fill="#5C5B5D" d="M18.4,44.7c0,0,3.6-4.4,3-10.2c-0.3-3-1-3.1-1.7-2.3c-8.2,1.3-16.2-6.2-16.2-6.2C2,38,14.3,40.8,18.5,41.4
		C18.6,42.8,18.5,44,18.4,44.7z"/>
	<path fill="#748184" d="M3.5,25.9c0,0,8.4,7.9,16.8,6.1c0,0,1.5-0.5,0.9,6.3C21,39.5,7.5,36.9,3.5,25.9z"/>
	<path fill="none" stroke="#CDEBF8" stroke-miterlimit="10" d="M63.3,16.4"/>
	<path fill="#5C5B5D" d="M82.8,25.9c0,0-3.8,5.9-16.9,6.1l0,0c-0.5,0-0.9,0.7-1,2.7c-0.5,5.9,3,10.2,3,10.2
		c-0.2-0.7-0.2-2.1-0.2-3.5C71.4,41,84.1,38.3,82.8,25.9z"/>
	<path fill="#748184" d="M82.8,25.9c0,0-3.8,5.9-16.9,6.1c0,0-1.3,1-0.9,5.7C65.4,37.7,79.2,36.5,82.8,25.9z"/>
</g>
</svg>
